<svg xmlns="http://www.w3.org/2000/svg" xmlns:xlink="http://www.w3.org/1999/xlink" viewBox="0 0 498 180"><defs><style>.cls-1{fill:#fc0fc0;}</style><symbol id="New_Symbol_9" data-name="New Symbol 9" viewBox="0 0 305.56 81.75"><rect x="154.6" y="3.09" width="10.15" height="76.04"/><polygon points="226.31 79.13 201.02 41.14 188.78 54.24 188.78 79.13 178.63 79.13 178.63 3.09 188.78 3.09 188.78 41.34 223.11 3.09 234.18 3.09 234.45 3.65 207.4 33.86 237.32 78.39 236.97 79.13 226.31 79.13"/><path d="M262.08,79.13c-11.53,0-16.91-5.37-16.91-16.91V20c0-11.54,5.38-16.91,16.91-16.91h26.57c11.53,0,16.9,5.37,16.9,16.91V62.22c0,11.54-5.37,16.91-16.9,16.91ZM262.43,12c-4.51,0-7.1,2.55-7.1,7V63.26c0,4.45,2.59,7,7.1,7H288.3c4.51,0,7.1-2.54,7.1-7V19c0-4.44-2.59-7-7.1-7Z"/><polygon points="28.71 79.13 28.71 11.96 2.51 11.96 0 3.89 0.53 3.09 66.99 3.09 67.64 4.05 65.17 11.96 38.98 11.96 38.98 79.13 28.71 79.13"/><path class="cls-1" d="M144.33,76.35,119.42,41.44,101.45,2a3.42,3.42,0,0,0-3.11-2h0a3.4,3.4,0,0,0-3.1,2L77.36,41.24l-25,35.1a3.42,3.42,0,0,0,2.78,5.4l.33,0,42.83-4.13,43,4.14.32,0a3.42,3.42,0,0,0,2.79-5.4ZM101.23,4.73Zm-2.89,6.35L111,38.91H85.66ZM111.9,45.5,98.32,69,84.75,45.5Zm-50.17,29L79.5,49.59l12.68,22Zm42.73-2.92,12.69-22,17.76,24.9Z"/></symbol></defs><g id="Layer_1" data-name="Layer 1"><use width="305.55" height="81.75" transform="translate(37.29 32.37) scale(1.38)" xlink:href="#New_Symbol_9"/></g></svg>