<svg id="Layer_1" data-name="Layer 1" xmlns="http://www.w3.org/2000/svg" viewBox="0 0 2000 740"><defs><style>.cls-1{fill:#fff;}.cls-2{fill:#e28bfd;}</style></defs><path class="cls-1" d="M137.91,182.17V141.83H493.73v40.34H337.65v416H294v-416Z"/><path class="cls-1" d="M1006.94,598.17V141.83h44.31V598.17Z"/><path class="cls-1" d="M1133.92,598.17V141.83h44.31v250l224.2-250h39.69l4.63,10.58-159.4,177.25L1462,587.59l-5.29,10.58h-40.35L1258.25,361.4l-80,89.29V598.17Z"/><path class="cls-1" d="M1509.58,499.63V240.37q0-98.53,98.54-98.54h155.42q98.54,0,98.55,98.54V499.63q0,98.55-98.55,98.54H1608.12Q1509.57,598.17,1509.58,499.63Zm44.31,6.61q0,51.59,52.25,51.59h160q51.58,0,51.58-51.59V233.76q0-51.58-51.58-51.59h-160q-52.26,0-52.25,51.59Z"/><path class="cls-2" d="M933.82,568.39,796.49,375.89,697.37,158.35a18.84,18.84,0,0,0-34.28,0L564.48,374.76,426.39,568.32a18.85,18.85,0,0,0,15.35,29.79q.9,0,1.8-.09l236.23-22.77,236.91,22.84c.6,0,1.2.08,1.8.08a18.84,18.84,0,0,0,15.34-29.78Zm-253.59-360,69.94,153.51H610.29ZM755,398.27,680.13,528,605.25,398.27ZM478.32,558.14l98-137.32L646.23,542ZM714,542l69.94-121.15,98,137.33Z"/></svg>