<svg xmlns="http://www.w3.org/2000/svg" data-name="Layer 1" width="677.85755" height="623.71162" viewBox="0 0 677.85755 623.71162" xmlns:xlink="http://www.w3.org/1999/xlink"><path d="M741.51117,710.14419H432.32123a27.72126,27.72126,0,0,1-27.68994-27.7v-118.85c-.64014.73-1.31006,1.45-2,2.15v116.7a29.72707,29.72707,0,0,0,29.68994,29.7H742.38129C742.081,711.48421,741.79144,710.81417,741.51117,710.14419Zm-336.87988-439.3a27.72125,27.72125,0,0,1,27.68994-27.7h103.02c-.18995-.67-.37012-1.33-.54-2h-102.48a29.72707,29.72707,0,0,0-29.68994,29.7v182.2c.68994.7,1.35009,1.42,2,2.15Zm415.16015,23.36-64.6001-51.17a8.73323,8.73323,0,0,0-5.41992-1.89H692.28119c-.16016.67-.33985,1.34-.52979,2h58.02a6.79636,6.79636,0,0,1,4.17969,1.45l64.6001,51.18a5.14619,5.14619,0,0,1,1.96,4.06v297.83c.66992.02,1.34033.07,2,.12v-297.95A7.13663,7.13663,0,0,0,819.79144,294.20419Z" transform="translate(-261.07123 -138.14419)" fill="#3f3d56"/><path d="M818.93778,296.84591H766.81214a14.348,14.348,0,0,1-14.348-14.348V243.99865a.89675.89675,0,0,1,1.4536-.70291l65.57688,51.95051A.89675.89675,0,0,1,818.93778,296.84591Z" transform="translate(-261.07123 -138.14419)" fill="#e6e6e6"/><path d="M818.93768,297.84585H766.81219a15.36566,15.36566,0,0,1-15.34814-15.34815v-38.499a1.897,1.897,0,0,1,3.07446-1.4873l65.57691,51.95117a1.89648,1.89648,0,0,1-1.17774,3.3833Zm0-2v0Zm-65.47363-51.63379V282.4977a13.36322,13.36322,0,0,0,13.34814,13.34815H818.641Z" transform="translate(-261.07123 -138.14419)" fill="#3f3d56"/><path d="M715.4662,363.20537H562.122a7.174,7.174,0,1,1,0-14.348H715.4662a7.174,7.174,0,0,1,0,14.348Z" transform="translate(-261.07123 -138.14419)" fill="#ccc"/><path d="M745.05893,387.41761H562.122a7.174,7.174,0,1,1,0-14.348h182.9369a7.174,7.174,0,1,1,0,14.348Z" transform="translate(-261.07123 -138.14419)" fill="#ccc"/><path d="M715.4662,471.71207H562.122a7.174,7.174,0,0,1,0-14.348H715.4662a7.174,7.174,0,0,1,0,14.348Z" transform="translate(-261.07123 -138.14419)" fill="#ccc"/><path d="M745.05893,495.9243H562.122a7.174,7.174,0,1,1,0-14.348h182.9369a7.174,7.174,0,1,1,0,14.348Z" transform="translate(-261.07123 -138.14419)" fill="#ccc"/><path d="M715.4662,580.21876H562.122a7.174,7.174,0,1,1,0-14.348H715.4662a7.174,7.174,0,0,1,0,14.348Z" transform="translate(-261.07123 -138.14419)" fill="#ccc"/><path d="M745.05893,604.431H562.122a7.174,7.174,0,1,1,0-14.348h182.9369a7.174,7.174,0,1,1,0,14.348Z" transform="translate(-261.07123 -138.14419)" fill="#ccc"/><circle id="a4ecd73b-08d8-48cc-a4e8-61145e733de3" data-name="Ellipse 44" cx="237.19442" cy="229.99331" r="25.35612" fill="#e28bfd"/><path id="e1436a23-a259-49e2-b8fe-799bdd526759-619" data-name="Path 395" d="M495.753,377.81011a2.62978,2.62978,0,0,1-1.5821-.52581l-.02831-.02122-5.959-4.55847a2.64815,2.64815,0,1,1,3.22237-4.20322l3.85978,2.95986,9.12086-11.89918a2.647,2.647,0,0,1,3.71127-.49021l.00076.00058-.0566.0786.05814-.0786a2.65023,2.65023,0,0,1,.48963,3.712l-10.72813,13.98979a2.64863,2.64863,0,0,1-2.10632,1.03272Z" transform="translate(-261.07123 -138.14419)" fill="#fff"/><circle id="be8a52d2-63f9-435f-813d-f0401f75b826" data-name="Ellipse 44" cx="237.19442" cy="338.5" r="25.35612" fill="#e6e6e6"/><path id="e3c7ab69-76f6-4704-bab0-1a6933653e72-620" data-name="Path 395" d="M495.753,486.3168a2.62977,2.62977,0,0,1-1.5821-.5258l-.02831-.02123-5.959-4.55846a2.64815,2.64815,0,0,1,3.22237-4.20323l3.85978,2.95986,9.12086-11.89918a2.647,2.647,0,0,1,3.71127-.4902l.00076.00057-.0566.0786.05814-.0786a2.65023,2.65023,0,0,1,.48963,3.712l-10.72813,13.98979a2.64867,2.64867,0,0,1-2.10632,1.03273Z" transform="translate(-261.07123 -138.14419)" fill="#fff"/><circle id="fc7f6027-3824-4a0f-8274-ead5998d3b8e" data-name="Ellipse 44" cx="237.19442" cy="447.00669" r="25.35612" fill="#e6e6e6"/><path id="a068fab7-b499-433d-8534-b02b75008e19-621" data-name="Path 395" d="M495.753,594.82349a2.62977,2.62977,0,0,1-1.5821-.5258l-.02831-.02123-5.959-4.55846a2.64815,2.64815,0,1,1,3.22237-4.20322l3.85978,2.95985,9.12086-11.89917a2.647,2.647,0,0,1,3.71127-.49021l.00076.00057-.0566.0786.05814-.0786a2.65023,2.65023,0,0,1,.48963,3.712l-10.72813,13.98979a2.64861,2.64861,0,0,1-2.10632,1.03273Z" transform="translate(-261.07123 -138.14419)" fill="#fff"/><path d="M854.76786,752.46853q-2.14645,1.12149-4.3664,2.123-2.0214.91377-4.10724,1.71684c-.508.19385-1.02445.38766-1.54141.58151a82.638,82.638,0,0,1-12.5534,3.4614q-3.17069.62305-6.42431.97841-2.686.30465-5.42735.43386c-1.30163.06456-2.60326.09228-3.9139.09228a82.9274,82.9274,0,0,1-15.4699-1.44917c-1.32957-.24-2.63075-.52614-3.93237-.83994a81.94517,81.94517,0,0,1-18.15609-6.70127c-.517-.25848-1.03391-.53538-1.55086-.803-.76619-.40613-1.51346-.83075-2.26117-1.27379.35966-.49848.74771-.98766,1.14433-1.46766a48.9525,48.9525,0,0,1,72.8001-3.78443,50.09813,50.09813,0,0,1,4.67063,5.409C854.05666,751.44392,854.41677,751.95163,854.76786,752.46853Z" transform="translate(-261.07123 -138.14419)" fill="#e28bfd"/><circle cx="557.2048" cy="533.2476" r="40.53036" fill="#2f2e41"/><circle cx="814.58669" cy="685.5103" r="30.16567" transform="translate(-490.05859 336.58415) rotate(-28.66306)" fill="#a0616a"/><path d="M846.28379,666.53618a41.02761,41.02761,0,0,1-23.447,7.24616,25.14222,25.14222,0,0,0,9.96508,4.09971,82.72945,82.72945,0,0,1-33.79244.18987,21.87068,21.87068,0,0,1-7.07411-2.42965,8.95258,8.95258,0,0,1-4.36649-5.83969c-.74139-4.23545,2.55892-8.08344,5.98868-10.67677a44.17485,44.17485,0,0,1,37.12146-7.4179c4.1467,1.07187,8.30077,2.88289,10.99416,6.213s3.49123,8.46409.9251,11.89324Z" transform="translate(-261.07123 -138.14419)" fill="#2f2e41"/><path d="M822.51117,595.92422c-.65967-.05-1.33008-.09-2-.12006-1.3501-.07-2.71-.1-4.08008-.1a83.072,83.072,0,0,0-76.91992,114.44c.27.67.55029,1.34.8501,2a83.67261,83.67261,0,0,0,32.83984,37.56l.53027.31c.44971.27.88965.53,1.33008.77.75.45,1.5.87,2.25977,1.28.52.27,1.04.54,1.5498.8a81.774,81.774,0,0,0,18.16016,6.7c1.2998.32,2.6001.6,3.93017.84a82.96342,82.96342,0,0,0,15.46973,1.45c1.31006,0,2.61035-.03,3.92041-.09,1.81982-.08,3.62988-.23,5.41992-.43q3.25488-.36,6.42969-.98a83.3134,83.3134,0,0,0,12.55029-3.46c.52-.2,1.04-.39,1.54-.59,1.3999-.53,2.75977-1.1,4.10986-1.71q2.22-1.005,4.37012-2.13a83.87639,83.87639,0,0,0,34.18994-33.2,2.43189,2.43189,0,0,1,.11963-.22,83.04656,83.04656,0,0,0-66.56982-123.12Zm73.72021,98.1a80.75789,80.75789,0,0,1-8.66992,23.94c-.07031.13-.14014.26-.21.38a81.37737,81.37737,0,0,1-33.67041,32.6q-2.12988,1.11-4.31006,2.08c-1.21.54-2.44971,1.06-3.69971,1.54-.52.2-1.06005.41-1.59033.59a79.04216,79.04216,0,0,1-10.82959,3.1,76.82538,76.82538,0,0,1-8.26025,1.3c-1.71.19-3.43994.32-5.18994.38-1.12012.05-2.23975.08-3.37012.08a80.38937,80.38937,0,0,1-14.96973-1.4,77.371,77.371,0,0,1-8.89013-2.18,81.1394,81.1394,0,0,1-12.91016-5.23c-.48-.25-.96-.5-1.42969-.76-.68017-.36-1.36035-.73-2.02-1.12-.5-.28-1-.58-1.49023-.87-.29-.17-.56983-.34-.85986-.52a81.77638,81.77638,0,0,1-31.48-35.79c-.3003-.66-.58985-1.33-.87012-2a81.22564,81.22564,0,0,1,74.91992-112.59c1.37012,0,2.73.03,4.08008.11005.66992.02,1.34033.07,2,.12a81.29325,81.29325,0,0,1,73.72021,96.24Z" transform="translate(-261.07123 -138.14419)" fill="#3f3d56"/><path d="M797.75111,631.42073c-.43609-4.58561-6.05374-7.40872-10.44685-6.02358s-7.27734,5.80859-8.14917,10.33163a14.82135,14.82135,0,0,0,1.99864,11.1894c2.22057,3.19582,6.30124,5.19023,10.10729,4.379,4.3448-.92612,7.35492-5.1686,8.21621-9.52672s.00616-8.85128-.84784-13.21083Z" transform="translate(-261.07123 -138.14419)" fill="#2f2e41"/><path d="M859.57836,637.97163c-.43608-4.58562-6.05374-7.40873-10.44685-6.02358s-7.27734,5.80858-8.14916,10.33163a14.82128,14.82128,0,0,0,1.99864,11.18939c2.22056,3.19582,6.30124,5.19023,10.10729,4.379,4.3448-.92612,7.35492-5.1686,8.2162-9.52671s.00616-8.85129-.84784-13.21084Z" transform="translate(-261.07123 -138.14419)" fill="#2f2e41"/><path d="M657.85137,290.39a82.21366,82.21366,0,0,1-86.44286,1.37532,49.96286,49.96286,0,0,1,8.67692-11.6764,49.32058,49.32058,0,0,1,77.4518,9.75647C657.63864,290.02081,657.74951,290.20543,657.85137,290.39Z" transform="translate(-261.07123 -138.14419)" fill="#e28bfd"/><circle cx="349.94964" cy="67.30613" r="40.79973" fill="#2f2e41"/><circle cx="610.73471" cy="219.66266" r="30.36615" transform="translate(-136.02561 512.04683) rotate(-61.33679)" fill="#ffb8b8"/><path d="M582.827,200.56244a41.30039,41.30039,0,0,0,23.60286,7.29431,25.30911,25.30911,0,0,1-10.0313,4.127,83.27938,83.27938,0,0,0,34.017.19113,22.01619,22.01619,0,0,0,7.12113-2.4458,9.01207,9.01207,0,0,0,4.3955-5.8785c.74632-4.2636-2.57592-8.13717-6.02847-10.74773a44.46839,44.46839,0,0,0-37.36818-7.4672c-4.17426,1.079-8.35594,2.902-11.06723,6.2543s-3.51443,8.52034-.93125,11.97228Z" transform="translate(-261.07123 -138.14419)" fill="#2f2e41"/><path d="M613.52142,138.14419a83.17262,83.17262,0,0,0-83.08008,83.07,82.29871,82.29871,0,0,0,2.46,19.93c.16993.67.33985,1.34.52,2a82.98673,82.98673,0,0,0,80.1001,61.15,83.10436,83.10436,0,0,0,80.1499-61.15c.18018-.67.3501-1.33.50977-2a83.128,83.128,0,0,0-80.65967-103Zm78.75977,103c-.16016.67-.33985,1.34-.52979,2a81.26952,81.26952,0,0,1-119.87011,47.83,81.81046,81.81046,0,0,1-36.54-47.83c-.18995-.67-.37012-1.33-.54-2a80.3991,80.3991,0,0,1-2.50977-19.93,81.22491,81.22491,0,1,1,159.98975,19.93Z" transform="translate(-261.07123 -138.14419)" fill="#3f3d56"/><path d="M388.48138,578.52419a82.21056,82.21056,0,0,1-86.43994,1.38c.13965-.27.28955-.54.44971-.8a49.3502,49.3502,0,0,1,85.52-1.37c.06006.08.10986.17.16015.25C388.27142,578.1542,388.38129,578.3442,388.48138,578.52419Z" transform="translate(-261.07123 -138.14419)" fill="#e28bfd"/><path d="M382.45111,493.58419a40.79981,40.79981,0,1,1-40.79981-40.8A40.60618,40.60618,0,0,1,382.45111,493.58419Z" transform="translate(-261.07123 -138.14419)" fill="#2f2e41"/><path d="M373.621,518.93417a31.36588,31.36588,0,0,1-1.60986,3.43,30.36855,30.36855,0,0,1-41.21,12.08,30.366,30.366,0,1,1,29.12988-53.29A30.37532,30.37532,0,0,1,373.621,518.93417Z" transform="translate(-261.07123 -138.14419)" fill="#a0616a"/><path d="M404.63129,452.48421c-.64014-.7-1.31006-1.39-2-2.06a83.0271,83.0271,0,1,0-13.64991,128.87994,83.68371,83.68371,0,0,0,13.64991-10.93c.68017-.67,1.35009-1.35,2-2.05a83.006,83.006,0,0,0,0-113.84Zm-2,113.25995a81.49843,81.49843,0,0,1-14.62012,11.99c-.00977.01-.02.01-.02979.02a81.29964,81.29964,0,0,1-85.47021,1.36c-.00977,0-.00977-.01-.02-.01a81.22088,81.22088,0,1,1,100.14014-126.06c.68994.7,1.35009,1.42,2,2.15a81.19139,81.19139,0,0,1,0,108.4C403.99115,564.32418,403.32123,565.04421,402.63129,565.74416Z" transform="translate(-261.07123 -138.14419)" fill="#3f3d56"/><path d="M374.71868,459.70174a21.484,21.484,0,0,0-19.80911-10.53959c-4.14857.31062-8.09571,1.83922-11.97146,3.35108l-19.70459,7.68639c-5.09881,1.989-10.68309,4.42525-12.89564,9.4311-2.05354,4.64611-.52143,10.01188,1.0295,14.849l7.37223,22.993c1.01018-5.165,2.03626-10.38118,4.17771-15.18863s5.52837-9.24032,10.211-11.64252c5.11827-2.62568,11.15094-2.57131,16.89676-2.29479,8.1376.39163,16.98546,1.42694,22.76729,7.16666a23.6483,23.6483,0,0,1,6.00052,11.71927,70.54092,70.54092,0,0,1,1.25834,13.26545,109.97845,109.97845,0,0,0,8.39854-18.00537,44.5488,44.5488,0,0,0,3.12048-14.57465c.0441-4.99228-1.36928-10.14249-4.69827-13.86306s-8.7532-5.72923-13.52344-4.25627" transform="translate(-261.07123 -138.14419)" fill="#2f2e41"/><path d="M312.5838,349.987l-1.99976-.02344c.02381-2,.08142-4.02978.17127-6.03222l1.998.08984C312.66449,346.00161,312.60748,348.00893,312.5838,349.987Z" transform="translate(-261.07123 -138.14419)" fill="#e6e6e6"/><path d="M313.63177,332.60073l-1.98828-.2168c.4176-3.82275.96448-7.67822,1.62549-11.459l1.97022.34473C314.58539,325.008,314.04462,328.82046,313.63177,332.60073Zm3.94214-22.53564-1.94385-.47071c.90516-3.73486,1.94458-7.48779,3.08948-11.15527l1.90918.5957C319.49664,302.66128,318.46881,306.3727,317.57391,310.06509Zm6.82251-21.85157-1.86645-.71875c1.38122-3.58789,2.8988-7.17822,4.51037-10.67138l1.816.83789C327.26275,281.11538,325.76227,284.66567,324.39642,288.21352Zm9.592-20.793-1.758-.95312c1.83105-3.37695,3.79785-6.74072,5.8457-9.998l1.69311,1.06446C337.74408,260.755,335.79925,264.0812,333.98846,267.42055Zm12.184-19.38037-1.62134-1.17089c2.25013-3.11573,4.631-6.19922,7.07618-9.16456l1.543,1.27247C350.75213,241.90981,348.39776,244.95864,346.17242,248.04018Zm14.56018-17.65869-1.45849-1.36816c2.62756-2.80078,5.38171-5.5542,8.18567-8.18457l1.36816,1.459C366.055,224.88882,363.33124,227.612,360.7326,230.38149Zm16.68994-15.65332-1.27221-1.543c2.9646-2.44433,6.04663-4.82373,9.1604-7.07177l1.1709,1.62109C383.40228,209.95815,380.35443,212.31118,377.42254,214.72817Zm18.5459-13.39111L394.904,199.6437c3.253-2.04492,6.61316-4.00928,9.9873-5.83887l.95337,1.75781C402.50812,197.37222,399.18524,199.3146,395.96844,201.33706Zm20.1012-10.89893-.83789-1.8164c3.48523-1.60791,7.0686-3.12305,10.65088-4.50342l.719,1.86621C423.05939,187.34927,419.51593,188.8478,416.06964,190.43813Zm21.32642-8.21582-.59681-1.90918c3.66578-1.146,7.41846-2.187,11.15381-3.09375l.47168,1.94336C444.73138,180.05972,441.02081,181.089,437.39606,182.22231Zm22.23205-5.39892-.34521-1.96973c3.78-.6626,7.635-1.21094,11.45825-1.62988l.21777,1.98828C467.17816,175.62612,463.3659,176.1686,459.62811,176.82339Z" transform="translate(-261.07123 -138.14419)" fill="#e6e6e6"/><path d="M482.44769,174.32632l-.08984-1.99805c2.00342-.08984,4.03271-.14746,6.032-.17139l.02393,2C486.43622,174.18032,484.42889,174.23745,482.44769,174.32632Z" transform="translate(-261.07123 -138.14419)" fill="#e6e6e6"/><polygon points="58.899 205.414 57.47 204.013 50.576 211.064 44.046 203.673 42.547 205 50.502 214 58.899 205.414" fill="#e6e6e6"/><polygon points="220.914 43.399 219.513 41.97 226.564 35.076 219.173 28.546 220.5 27.047 229.5 35.002 220.914 43.399" fill="#e6e6e6"/><path d="M781.19674,194.10108q-2.641-1.38958-5.32032-2.73123l.895-1.78821q2.69838,1.34991,5.35671,2.74932Z" transform="translate(-261.07123 -138.14419)" fill="#e6e6e6"/><path d="M917.10108,563.228l-1.85067-.7586c1.5047-3.67154,2.95172-7.417,4.301-11.13264l1.87988.68217C920.073,555.76037,918.616,559.53164,917.10108,563.228Zm8.19941-22.58586-1.9061-.60489c1.19875-3.77657,2.33511-7.62834,3.37722-11.448l1.92936.52675C927.65184,532.96186,926.50773,536.83984,925.30049,540.64216Zm6.3244-23.18321-1.94962-.44677c.88516-3.86468,1.70066-7.79694,2.42426-11.6874l1.96641.366C933.3373,509.60779,932.516,513.56716,931.62489,517.459Zm4.39492-23.62736-1.97976-.2843c.56329-3.92167,1.05214-7.90829,1.45317-11.84839l1.98969.20279C937.079,485.86878,936.5869,489.88289,936.01981,493.83159Zm2.433-23.91091-1.99665-.12042c.23829-3.95263.39745-7.96563.47286-11.92837l1.99971.0382C938.85273,461.89972,938.69249,465.94062,938.45285,469.92068Zm.45742-24.03071-1.99936.04389q-.05793-2.60938-.16209-5.214c-.08916-2.22674-.20576-4.48609-.34679-6.71465l1.99607-.12586c.14188,2.24368.25934,4.51815.34912,6.76049Q938.85221,443.262,938.91027,445.89Zm-3.5043-23.77581c-.41139-3.94031-.90981-7.92453-1.48178-11.8418l1.979-.28937c.57575,3.94448,1.0777,7.95593,1.49214,11.92349Zm-3.44583-23.61542c-.73094-3.89038-1.55294-7.82158-2.4428-11.68409l1.94892-.44942c.896,3.88914,1.72351,7.847,2.45969,11.76453Zm-5.35992-23.26024c-1.04665-3.824-2.18578-7.67554-3.3858-11.44891l1.906-.606c1.20813,3.79894,2.35492,7.67707,3.409,11.52714Zm-7.23483-22.75075c-1.35347-3.72471-2.80216-7.472-4.306-11.13791l1.8505-.75921c1.51389,3.69141,2.97239,7.4642,4.33541,11.21394Zm-9.062-22.09215c-1.65256-3.60327-3.40171-7.22076-5.199-10.75227l1.78253-.907c1.80946,3.55545,3.57059,7.19738,5.23414,10.82514ZM899.471,309.11125c-1.94008-3.45542-3.97871-6.91863-6.05947-10.29316l1.70254-1.04943c2.09488,3.39743,4.14741,6.88451,6.10091,10.36383Zm-12.53581-20.33067c-2.21752-3.28746-4.53344-6.57292-6.88274-9.76469l1.6106-1.1855c2.36557,3.2136,4.6973,6.52188,6.9304,9.83217Zm-14.16168-19.23986c-2.48207-3.09653-5.06066-6.1809-7.66392-9.16752l1.50771-1.3143c2.62119,3.0074,5.21749,6.113,7.71679,9.23089Zm-15.7-18.01277c-2.72931-2.88237-5.55408-5.74431-8.3959-8.50734l1.39443-1.43389c2.86114,2.78181,5.70529,5.664,8.45346,8.56563ZM839.9369,234.86573c-2.95737-2.6465-6.00947-5.26673-9.07225-7.78782l1.27126-1.54428c3.08378,2.53882,6.15713,5.17725,9.13453,7.842Zm-18.46011-15.19551c-3.15363-2.38551-6.40652-4.74212-9.66784-7.00408l1.13975-1.64359c3.28394,2.27767,6.55922,4.65049,9.73475,7.05222Zm-19.61543-13.605c-3.33743-2.11866-6.77188-4.20119-10.20824-6.19079l1.00187-1.73092c3.45985,2.00283,6.9181,4.1,10.27834,6.23294Z" transform="translate(-261.07123 -138.14419)" fill="#e6e6e6"/><path d="M909.75,579.71647l-1.80134-.86906q1.3026-2.69905,2.5448-5.41181l1.81844.83222Q911.06114,576.99925,909.75,579.71647Z" transform="translate(-261.07123 -138.14419)" fill="#e6e6e6"/><polygon points="517.31 62.693 519.197 62.028 515.91 52.731 525.424 50.131 524.894 48.201 513.308 51.369 517.31 62.693" fill="#e6e6e6"/><polygon points="643.078 431.677 644.979 431.051 648.055 440.42 657.176 436.668 657.935 438.52 646.826 443.088 643.078 431.677" fill="#e6e6e6"/></svg>