<?xml version="1.0" encoding="utf-8"?>
<!-- Generator: Adobe Illustrator 26.0.3, SVG Export Plug-In . SVG Version: 6.00 Build 0)  -->
<svg version="1.1" id="Layer_1" xmlns="http://www.w3.org/2000/svg" xmlns:xlink="http://www.w3.org/1999/xlink" x="0px" y="0px"
	 viewBox="0 0 926.9 1527.3" style="enable-background:new 0 0 926.9 1527.3;" xml:space="preserve">
<style type="text/css">
	.st0{clip-path:url(#SVGID_00000171699954208424663390000010867110806768244153_);}
	.st1{fill:none;stroke:#FC0FC0;stroke-width:2;stroke-linecap:round;stroke-linejoin:round;stroke-miterlimit:10;}
	.st2{clip-path:url(#SVGID_00000118391337813284963670000006742255994258534832_);}
	.st3{clip-path:url(#SVGID_00000138549442165465263650000017178187351151995799_);}
</style>
<g id="Layer_2_00000023998001689838689230000012475353351032950706_">
	<g id="Layer_1_copy">
	</g>
	<g>
		<g>
			<g>
				<defs>
					<rect id="SVGID_1_" width="926.9" height="1527.3"/>
				</defs>
				<clipPath id="SVGID_00000000945489007236173280000002630824693101220762_">
					<use xlink:href="#SVGID_1_"  style="overflow:visible;"/>
				</clipPath>
				<g style="clip-path:url(#SVGID_00000000945489007236173280000002630824693101220762_);">
					<path class="st1" d="M960.4,152.6c48.9,0,107.6,156.9,107.6,156.9l27.7,97l27.7,97l135,336.2l-149,7.4l-149,7.4l-298-14.7
						l135-336.2l27.7-97l27.6-96.9C852.7,309.7,911.6,152.6,960.4,152.6z"/>
					<path class="st1" d="M960.4,232.2c53.9,0,134.9,137.3,134.9,137.3l14,103.2l14,103.2l107,314.3l-135,14.7l-135,14.7l-270-29.5
						l107-314.3l14-103.2l14-103.1C825.4,369.6,906.6,232.2,960.4,232.2z"/>
					<path class="st1" d="M960.4,311.8c58.8,0,162.2,117.7,162.2,117.7l0.4,109.4l0.4,109.4l78.9,292.3l-121,22.1l-121,22.1
						l-242-44.2l78.9-292.3l0.4-109.4l0.3-109.3C798.1,429.6,901.6,311.8,960.4,311.8z"/>
					<path class="st1" d="M960.4,391.4c54.9,0,189.5,98.1,189.5,98.1l-13.3,115.6l-13.3,115.6l50.9,270.3l-107,29.5l-107,29.5
						l-213.9-59l50.9-270.3l-13.3-115.6l-13.3-115.5C770.9,489.6,905.6,391.4,960.4,391.4z"/>
					<path class="st1" d="M960.4,471c57.8,0,216.8,78.5,216.8,78.5l-26.9,121.8l-26.9,121.8l22.9,248.4l-93,36.9l-93,36.9
						l-185.9-73.7l22.9-248.4l-26.9-121.8l-26.9-121.8C743.6,549.5,902.6,471,960.4,471z"/>
					<path class="st1" d="M960.4,550.6c57.8,0,244.1,58.8,244.1,58.8l-40.6,128l-40.6,128l-5.1,226.4l-78.9,44.2l-78.9,44.2
						l-157.9-88.5l-5.1-226.4l-40.6-128l-40.6-128C716.3,609.5,902.6,550.6,960.4,550.6z"/>
					<path class="st1" d="M960.4,630.2c67.8,0,271.4,39.2,271.4,39.2l-54.2,134.2l-54.2,134.2l-33.2,204.4l-64.9,51.6l-64.9,51.6
						l-129.9-103.2l-33.2-204.4l-54.2-134.2L689,669.5C689,669.5,892.6,630.2,960.4,630.2z"/>
					<polygon class="st1" points="960.4,709.8 1259.2,729.4 1191.3,869.8 1123.4,1010.3 1062.3,1192.7 1011.3,1251.7 960.4,1310.7 
						858.6,1192.7 797.4,1010.3 729.6,869.8 661.7,729.5 					"/>
					<polygon class="st1" points="634.4,789.4 715.9,936 797.4,1082.6 960.4,1375.9 1123.4,1082.6 1205,936 1286.5,789.4 
						1123.4,789.4 960.4,789.4 					"/>
					<path class="st1" d="M634.4,789.4l163-358.2c0,0,111.2-358.2,163-358.2c51.9,0,162.2,356.5,162.2,356.5l163.8,359.9h-163h-163
						H634.4z"/>
				</g>
			</g>
		</g>
		<g>
			<g>
				<defs>
					<rect id="SVGID_00000078032571312823513250000009246528231949932167_" width="926.9" height="1527.3"/>
				</defs>
				<clipPath id="SVGID_00000067914749099206824750000010840856073659799454_">
					<use xlink:href="#SVGID_00000078032571312823513250000009246528231949932167_"  style="overflow:visible;"/>
				</clipPath>
				<g style="clip-path:url(#SVGID_00000067914749099206824750000010840856073659799454_);">
					<path class="st1" d="M232.4,1414.2c-24.4-42.3,82.1-171.7,82.1-171.7l70.2-72.5l70.2-72.5l223.7-285l80.9,125.4l80.9,125.4
						l136.2,265.5L617.9,1380l-97.9,24.5l-97.7,24.5C422.3,1428.9,256.9,1456.5,232.4,1414.2z"/>
					<path class="st1" d="M301.4,1374.4c-26.9-46.6,51.4-185.5,51.4-185.5l82.4-63.8l82.4-63.8l218.7-249.8L816.6,921l80.3,109.5
						l109.4,248.6l-325.6,64.5l-96.4,39.5l-96.3,39.4C487.9,1422.6,328.3,1421,301.4,1374.4z"/>
					<path class="st1" d="M370.3,1334.6c-29.4-51,20.8-199.3,20.8-199.3l94.6-55.1l94.6-55.1L794,810.6l79.6,93.7l79.6,93.7
						l82.7,231.7l-292.6,77.8l-94.9,54.4l-94.9,54.4C553.5,1416.2,399.7,1385.5,370.3,1334.6z"/>
					<path class="st1" d="M439.3,1294.8c-27.4-47.5-9.8-213.2-9.8-213.2l106.8-46.3L642.9,989l208.6-179.2l79,77.9l79,77.9
						l55.9,214.8L806,1271.3l-93.5,69.3l-93.4,69.3C619,1409.9,466.7,1342.3,439.3,1294.8z"/>
					<path class="st1" d="M508.2,1255c-28.9-50.1-40.5-227-40.5-227l119-37.6l119-37.6l203.6-144l78.4,62.1l78.4,62.1l29.1,197.9
						l-226.5,104.4l-92,84.2l-92,84.2C684.6,1403.5,537.1,1305.1,508.2,1255z"/>
					<path class="st1" d="M577.1,1215.2c-28.9-50.1-71.1-240.8-71.1-240.8l131.1-28.9l131.1-28.9l198.6-108.7l77.8,46.2l77.8,46.2
						l2.3,181l-193.5,117.6l-90.6,99.1l-90.5,99.1C750.2,1397.2,606,1265.3,577.1,1215.2z"/>
					<path class="st1" d="M646.1,1175.4c-33.9-58.7-101.7-254.7-101.7-254.7l143.3-20.2L831,880.4l193.6-73.5l77.2,30.4l77.2,30.4
						l-24.5,164.1L994,1162.7l-89.1,114.1l-89.1,114.1C815.8,1390.8,680,1234.1,646.1,1175.4z"/>
					<polygon class="st1" points="715,1135.6 582.6,867.1 738.1,855.6 893.7,844.2 1082.3,806 1158.8,820.6 1235.4,835.2 
						1184.1,982.3 1056.7,1126.6 969,1255.5 881.4,1384.5 					"/>
					<polygon class="st1" points="946.9,1378.2 1033.2,1234.3 1119.4,1090.4 1291.8,802.6 956.4,808 788.6,810.7 620.9,813.4 
						702.4,954.6 783.9,1095.8 					"/>
					<path class="st1" d="M946.9,1378.2l-391.7,37.9c0,0-365.8,82.8-391.7,37.9c-25.9-44.9,227.6-318.7,227.6-318.7l229.8-321.8
						l81.5,141.2l81.5,141.2L946.9,1378.2z"/>
				</g>
			</g>
		</g>
		<g>
			<g>
				<defs>
					<rect id="SVGID_00000037680376766047095160000009563232255708973500_" width="926.9" height="1527.3"/>
				</defs>
				<clipPath id="SVGID_00000083793101012940559630000015891226122696755585_">
					<use xlink:href="#SVGID_00000037680376766047095160000009563232255708973500_"  style="overflow:visible;"/>
				</clipPath>
				<g style="clip-path:url(#SVGID_00000083793101012940559630000015891226122696755585_);">
					<path class="st1" d="M1688.4,1414.2c-24.4,42.3-189.7,14.8-189.7,14.8l-97.9-24.5l-97.9-24.5l-358.7-51.2l68.1-132.7
						l68.1-132.7l161.8-250.7l223.7,285l70.2,72.5l70.1,72.4C1606.3,1242.4,1712.9,1371.8,1688.4,1414.2z"/>
					<path class="st1" d="M1619.5,1374.4c-26.9,46.6-186.4,48.2-186.4,48.2l-96.4-39.5l-96.4-39.5l-325.6-64.5l54.7-124.3
						l54.7-124.3l160.5-219.1l218.7,249.8l82.4,63.8l82.3,63.7C1568,1188.7,1646.4,1327.7,1619.5,1374.4z"/>
					<path class="st1" d="M1550.5,1334.6c-29.4,51-183,81.7-183,81.7l-95-54.4l-95-54.4L885,1229.7l41.3-115.8L967.7,998L1127,810.6
						l213.7,214.5l94.6,55l94.5,55C1529.7,1135.1,1580,1283.6,1550.5,1334.6z"/>
					<path class="st1" d="M1481.6,1294.8c-27.4,47.5-179.7,115.1-179.7,115.1l-93.5-69.3l-93.5-69.3l-259.6-91.1l27.9-107.4
						l27.9-107.4l158.1-155.8l208.6,179.3l106.8,46.3l106.7,46.3C1491.4,1081.5,1509,1247.3,1481.6,1294.8z"/>
					<path class="st1" d="M1412.7,1255c-28.9,50.1-176.4,148.6-176.4,148.6l-92-84.2l-92-84.2l-226.5-104.4l14.5-98.9l14.5-98.9
						l156.8-124.1l203.6,144l118.9,37.6l118.9,37.6C1453.1,1027.9,1441.6,1204.9,1412.7,1255z"/>
					<path class="st1" d="M1343.7,1215.2c-28.9,50.1-173,182-173,182l-90.6-99.1l-90.6-99.1L796,1081.4l1.1-90.5l1.1-90.5
						l155.6-92.5l198.6,108.7l131.1,28.9l131.1,28.8C1414.8,974.3,1372.7,1165.1,1343.7,1215.2z"/>
					<path class="st1" d="M1274.8,1175.4c-33.9,58.7-169.7,215.5-169.7,215.5l-89.1-114.1l-89.1-114.1l-160.4-130.9l-12.2-82
						l-12.2-82L896.4,807l193.6,73.5l143.3,20.2l143.3,20.1C1376.5,920.6,1308.7,1116.6,1274.8,1175.4z"/>
					<polygon class="st1" points="1205.9,1135.6 1039.5,1384.5 951.9,1255.5 864.2,1126.5 736.8,982.3 711.1,908.7 685.5,835.1 
						838.6,805.9 1027.2,844.2 1182.7,855.6 1338.3,867 					"/>
					<polygon class="st1" points="1300,813.4 1132.2,810.7 964.5,808 629.1,802.5 801.5,1090.3 887.7,1234.2 973.9,1378.1 
						1055.4,1236.9 1136.9,1095.8 					"/>
					<path class="st1" d="M1300,813.4l228.7,320.3c0,0,254.6,275.4,228.7,320.3s-389.8-37.7-389.8-37.7L974,1378.2l81.5-141.2
						l81.5-141.2L1300,813.4z"/>
				</g>
			</g>
		</g>
	</g>
</g>
</svg>
