<svg id="Layer_1" data-name="Layer 1" xmlns="http://www.w3.org/2000/svg" viewBox="0 0 1000 1000"><defs><style>.cls-1{fill:#fff;}</style></defs><circle cx="500" cy="500" r="495"/><path class="cls-1" d="M812.8,684.58,643.49,447.25,521.29,179A23.23,23.23,0,0,0,479,179L357.45,445.86,187.2,684.5a23.23,23.23,0,0,0,18.92,36.72c.73,0,1.47,0,2.21-.11l291.25-28.06,292.09,28.14c.74.07,1.48.11,2.22.11a23.22,23.22,0,0,0,18.91-36.72ZM500.15,240.76,586.38,430H413.92Zm92.19,234.09L500,634.74,407.71,474.85ZM251.21,672,372,502.64,458.23,652Zm290.56-19.87L628,502.72,748.79,672Z"/></svg>