<svg xmlns="http://www.w3.org/2000/svg" fill="none" viewBox="-10 -10 130.056 124.2732558139535" style="max-height: 500px" width="130.056" height="124.2732558139535">
<path fill="url(#paint0_linear_639_5692)" d="M43.205 3.81678C42.8817 1.90747 45.5698 1.13572 46.3085 2.92579L47.7489 6.41616C47.7939 6.52517 47.8282 6.63556 47.8525 6.74627C51.3068 5.91342 54.7864 5.49394 58.2322 5.46138C58.2286 5.34743 58.2348 5.23136 58.2523 5.11407L58.8015 1.38767C59.0843 -0.528108 61.879 -0.431404 62.0284 1.49932L62.3194 5.2548C62.3282 5.37344 62.3266 5.49002 62.3153 5.60382C65.8199 5.88174 69.2631 6.55726 72.5818 7.60158C72.6137 7.49226 72.6554 7.38403 72.7085 7.27791L74.3858 3.89712C75.2461 2.16239 77.8744 3.11808 77.4201 5.00048L76.534 8.66918C76.5067 8.78421 76.4691 8.89409 76.4232 8.99825C79.6481 10.3331 82.721 12.0286 85.5775 14.0557C85.6398 13.965 85.7114 13.8783 85.7913 13.7965L88.4314 11.0994C89.7858 9.71555 91.9901 11.4367 90.9763 13.0865L89.0001 16.3017C88.9414 16.3973 88.876 16.4857 88.8049 16.567C91.7078 19.0386 94.3268 21.8865 96.578 25.0734C96.5724 24.7653 96.5708 24.4594 96.5688 24.1588V24.1057C96.5621 22.5778 97.9437 21.4034 99.5092 21.1845C100.257 21.0853 101.018 21.237 101.67 21.6161C102.323 21.9951 102.831 22.5801 103.116 23.2792C104.008 25.546 104.158 28.0366 103.546 30.3941C103.496 30.6068 103.437 30.8194 103.37 31.0603C103.345 31.1519 103.319 31.2478 103.291 31.3491C105.579 32.639 107.374 34.6534 108.391 37.0751C109.21 39.0253 108.434 41.0171 106.632 41.8079C105.702 42.2071 104.793 42.1018 103.96 41.6654C104.696 44.9067 105.07 48.1674 105.104 51.3985C105.201 51.3981 105.298 51.405 105.397 51.4195L109.123 51.969C111.039 52.2513 110.942 55.0465 109.011 55.1959L105.256 55.4865C105.158 55.4942 105.061 55.4942 104.965 55.4875C104.69 58.9967 104.016 62.4451 102.973 65.7689C103.06 65.7977 103.147 65.8333 103.233 65.8755L106.614 67.5529C108.348 68.4137 107.393 71.042 105.51 70.5871L101.842 69.7015C101.75 69.6794 101.661 69.6511 101.576 69.6171C100.24 72.8471 98.5428 75.9256 96.5131 78.7868C96.5832 78.8388 96.6502 78.896 96.7145 78.9588L99.4114 81.5985C100.795 82.9533 99.0739 85.1576 97.4239 84.1433L94.2094 82.1677C94.1347 82.1219 94.0646 82.0719 93.9987 82.0183C91.749 84.6605 89.1877 87.0673 86.343 89.1758C86.3909 89.2449 86.4352 89.3175 86.4754 89.3942L88.2207 92.7314C89.1186 94.4474 86.8005 96.0119 85.5445 94.5375L83.1027 91.6707C83.046 91.6043 82.995 91.5357 82.9492 91.4646C80.5455 92.9354 77.9733 94.2068 75.2461 95.2489C74.6491 95.4766 74.0505 95.692 73.4503 95.8939C73.4745 95.9733 73.4936 96.0546 73.508 96.1386L74.1385 99.8611C74.4615 101.77 71.7735 102.542 71.0348 100.752L69.5944 97.2622C69.563 97.1849 69.5362 97.1071 69.5151 97.0293C66.0527 97.8649 62.5652 98.2852 59.1116 98.3172C59.11 98.3986 59.1033 98.4815 59.091 98.5645L58.5418 102.29C58.259 104.206 55.4643 104.109 55.3149 102.178L55.0244 98.4238C55.0177 98.3393 55.0166 98.2554 55.0208 98.1735C51.5089 97.8932 48.0583 97.2142 44.7334 96.1644C44.7061 96.2442 44.6733 96.323 44.6347 96.4008L42.9578 99.7807C42.0971 101.515 39.4687 100.56 39.9233 98.6773L40.8089 95.0094C40.8296 94.9239 40.8555 94.8415 40.8862 94.7616C37.6572 93.4212 34.5805 91.7186 31.7216 89.6833C31.6702 89.7523 31.6135 89.8187 31.5515 89.8821L28.912 92.5784C27.5574 93.9621 25.353 92.241 26.367 90.5915L28.3428 87.3769C28.389 87.3012 28.4395 87.2306 28.4936 87.1642C25.8558 84.9109 23.4538 82.347 21.3501 79.4992C21.2768 79.5518 21.1989 79.5997 21.1165 79.6429L17.7794 81.3883C16.0634 82.2857 14.4988 79.9675 15.9729 78.7121L18.8398 76.2697C18.9126 76.2079 18.9885 76.1523 19.0668 76.1028C17.9154 74.2148 16.8867 72.2227 15.9952 70.1333L9.44309 78.8192C8.72306 79.7738 7.32071 79.8763 6.55453 78.9583C0.202618 71.349 -0.46109 61.0898 0.206442 55.0661C0.343254 53.8313 1.63906 53.1492 2.78351 53.6319L12.6253 57.784C12.3884 55.9455 12.2644 54.1074 12.2493 52.2791C12.1496 52.2802 12.0485 52.2735 11.9464 52.2585L8.22043 51.7089C6.30468 51.4264 6.40138 48.6314 8.33211 48.482L12.0871 48.1914C12.1921 48.1833 12.2956 48.1836 12.3969 48.1916C12.6794 44.6856 13.3599 41.2407 14.4097 37.9213C14.3086 37.8905 14.2086 37.8509 14.1104 37.8022L10.7299 36.125C8.99516 35.2643 9.95082 32.6359 11.8332 33.0905L15.5016 33.9763C15.6101 34.0025 15.7139 34.0371 15.8127 34.0792C17.1525 30.856 18.8529 27.7847 20.8849 24.9306C20.7955 24.8686 20.7099 24.7982 20.6291 24.7191L17.9322 22.0792C16.5483 20.7246 18.2694 18.5203 19.9193 19.5342L23.1344 21.5103C23.2304 21.5693 23.3194 21.6352 23.4011 21.7067C25.6505 19.0729 28.2101 16.6742 31.0522 14.5726C30.9839 14.4837 30.9222 14.3875 30.8681 14.2842L29.1224 10.9466C28.2248 9.23064 30.5429 7.66602 31.7986 9.14018L34.241 12.0075C34.3179 12.0977 34.3849 12.1927 34.4422 12.2911C36.8352 10.8303 39.3949 9.56652 42.1081 8.52972C42.7117 8.29909 43.3171 8.08185 43.9241 7.8779C43.8853 7.77024 43.8555 7.65742 43.8356 7.54007L43.205 3.81678ZM21.3363 66.1594C29.2171 86.783 52.3239 97.1128 72.947 89.232C93.3779 81.4243 103.706 58.6727 96.2339 38.1968C93.7565 40.2774 90.7846 42.1626 87.328 43.4294C79.5739 46.2714 73.6528 47.5098 68.6558 47.9997C62.9737 55.8151 53.312 59.0755 48.6373 59.7468L49.2329 48.044C46.1889 48.1707 42.9181 48.5714 39.0933 49.554C31.9111 51.3991 25.2211 54.4082 19.149 57.9025C19.5728 60.6709 20.2958 63.4368 21.3363 66.1594ZM31.5249 67.1629C29.6098 67.5039 27.781 66.2274 27.4403 64.3126C27.0994 62.3972 28.3757 60.5684 30.2908 60.2274C32.2059 59.8869 34.0346 61.1629 34.3754 63.0782C34.7162 64.9936 33.44 66.8224 31.5249 67.1629ZM47.7629 67.5889C46.513 67.8115 45.3194 66.9785 45.097 65.7282C44.8745 64.4784 45.7075 63.2848 46.9574 63.0623C48.2073 62.8397 49.4009 63.6727 49.6234 64.923C49.8457 66.1728 49.0128 67.3664 47.7629 67.5889ZM68.3812 66.7832C67.1315 67.0058 65.9379 66.1728 65.7153 64.923C65.4928 63.6727 66.3258 62.4791 67.5755 62.2571C68.8258 62.0345 70.0194 62.8675 70.2414 64.1173C70.464 65.3671 69.631 66.5607 68.3812 66.7832ZM72.6745 77.7941C72.897 79.0438 74.0906 79.8768 75.3404 79.6543C76.5901 79.4317 77.4231 78.2381 77.2006 76.9884C76.9786 75.7386 75.785 74.9056 74.5347 75.1282C73.2849 75.3502 72.4519 76.5438 72.6745 77.7941ZM48.5787 83.4066C47.3288 83.6292 46.1352 82.7962 45.9128 81.5464C45.6904 80.2962 46.5233 79.1026 47.7732 78.8805C49.0232 78.658 50.2167 79.491 50.4392 80.7407C50.6616 81.991 49.8286 83.1841 48.5787 83.4066ZM36.1729 73.6909C36.3953 74.9412 37.5889 75.7742 38.8388 75.5516C40.0887 75.3291 40.9216 74.1355 40.6992 72.8857C40.4767 71.6354 39.2832 70.8029 38.0333 71.025C36.7834 71.2475 35.9504 72.4411 36.1729 73.6909ZM58.6181 74.4317C57.3678 74.6542 56.1747 73.8212 55.9521 72.5709C55.7296 71.3212 56.5626 70.1276 57.8124 69.905C59.0621 69.6825 60.2557 70.5155 60.4783 71.7658C60.7008 73.0155 59.8678 74.2091 58.6181 74.4317ZM78.2407 65.0281C78.5817 66.9434 80.41 68.2195 82.3253 67.8789C84.2407 67.5379 85.5167 65.7091 85.1757 63.7943C84.8352 61.879 83.0064 60.6029 81.091 60.9435C79.1762 61.2845 77.8997 63.1133 78.2407 65.0281ZM58.5253 82.8802C58.8664 84.7955 60.6952 86.0715 62.6105 85.7305C64.5253 85.39 65.8013 83.5612 65.4608 81.6459C65.1198 79.731 63.291 78.4545 61.3762 78.7955C59.4608 79.136 58.1848 80.9648 58.5253 82.8802ZM85.4549 28.8356C86.1601 31.9326 84.3318 34.9894 81.3723 35.663C78.4122 36.3367 75.4414 34.3721 74.7366 31.2751C74.0319 28.1781 75.8597 25.1213 78.8197 24.4477C81.7793 23.774 84.7501 25.7385 85.4549 28.8356Z" clip-rule="evenodd" fill-rule="evenodd"/>
<path fill="url(#paint1_linear_639_5692)" d="M81.597 32.9717C82.9302 32.6684 83.7266 31.1754 83.3768 29.6372C83.0265 28.0989 81.6619 27.0978 80.3292 27.4013C78.996 27.7047 78.199 29.1976 78.5493 30.7359C78.8996 32.2741 80.2638 33.2752 81.597 32.9717Z"/>
<path fill="url(#paint2_linear_639_5692)" d="M266.878 26.0151C266.878 11.8059 277.524 0.287119 290.656 0.287109V12.8543C283.938 12.8543 278.493 18.7466 278.493 26.0151V26.0157H290.656V38.5828H278.493V77.4714H266.878V26.0151ZM260.029 0.660441C246.896 0.660441 236.251 12.1788 236.251 26.3876L236.25 77.8439H247.865V26.3884C247.865 19.1199 253.311 13.2276 260.029 13.2276V0.660441ZM148.964 65.2762C155.681 65.2762 161.127 59.3839 161.127 52.1157C161.127 44.847 155.681 38.9547 148.964 38.9547C142.246 38.9547 136.8 44.847 136.8 52.1157C136.8 59.3839 142.246 65.2762 148.964 65.2762ZM148.964 77.8434C144.519 77.8434 140.359 76.5241 136.8 74.227V103.387H125.186V52.1157C125.186 37.9063 135.832 26.3876 148.964 26.3876C162.096 26.3876 172.742 37.9063 172.742 52.1157C172.742 66.3246 162.096 77.8434 148.964 77.8434ZM225.52 26.3876H213.905V52.1152C213.905 59.3834 208.46 65.2757 201.742 65.2757C195.025 65.2757 189.579 59.3834 189.579 52.1152V52.1141V26.3876H177.964V52.1141V52.1152C177.964 66.3241 188.61 77.8428 201.742 77.8428C214.874 77.8428 225.521 66.3241 225.521 52.1146L225.52 26.3876ZM247.865 26.3881V38.9552H260.029V26.3881H247.865ZM335.901 35.5716C338.081 38.4903 339.629 41.8684 340.465 45.4592C340.465 45.4592 340.725 46.5499 340.929 48.3124C341.132 50.0747 341.185 51.7422 341.185 51.7422V51.7432C341.185 53.9105 340.937 56.0154 340.47 58.0265H335.748L306.715 58.027C308.776 62.1245 312.791 64.9053 317.406 64.9053C320.502 64.9053 323.328 63.654 325.475 61.5929L333.178 70.997C329.107 74.9008 323.922 77.1768 318.488 77.4446C313.054 77.712 307.7 75.9558 303.317 72.4683C298.935 68.9807 295.791 63.9729 294.409 58.28C293.027 52.5875 293.49 46.5541 295.722 41.1866C297.954 35.819 301.82 31.4418 306.674 28.7851C311.528 26.1284 317.077 25.3529 322.396 26.5879C327.715 27.8229 332.481 30.9938 335.901 35.5716ZM306.715 45.4601C308.777 41.3627 312.791 38.582 317.406 38.582C322.021 38.582 326.036 41.3627 328.097 45.4601H306.715ZM358.021 52.1136C358.021 44.8592 363.445 38.9758 370.145 38.9529V26.3858C357.031 26.4086 346.406 37.9186 346.406 52.1136H358.021ZM346.406 77.8423H358.021V52.1152H346.406V77.8423Z" clip-rule="evenodd" fill-rule="evenodd"/>
<path fill="url(#paint3_linear_639_5692)" d="M384.82 77.7462V25.9292H388.942V77.7462H384.82Z" clip-rule="evenodd" fill-rule="evenodd"/>
<path fill="#4FF4FF" d="M603.129 25.9113C600.641 25.9113 598.591 25.1917 596.983 23.7524C595.438 22.2578 594.66 20.431 594.66 18.2721C594.66 16.0578 595.438 14.231 596.983 12.7917C598.591 11.2971 600.641 10.5498 603.129 10.5498C605.566 10.5498 607.56 11.2971 609.11 12.7917C610.712 14.231 611.516 16.0578 611.516 18.2721C611.516 20.431 610.712 22.2578 609.11 23.7524C607.56 25.1917 605.566 25.9113 603.129 25.9113ZM610.187 30.7274V77.0613H595.989V30.7274H610.187Z"/>
<path fill="#4FF4FF" d="M588.524 18.7697V30.1455H564.776V42.4347H582.548V53.4782H564.776V77.0603H550.578V18.7697H588.524Z"/>
<path fill="#4FF4FF" d="M533.227 25.9113C530.739 25.9113 528.688 25.1917 527.086 23.7524C525.536 22.2578 524.758 20.431 524.758 18.2721C524.758 16.0578 525.536 14.231 527.086 12.7917C528.688 11.2971 530.739 10.5498 533.227 10.5498C535.664 10.5498 537.657 11.2971 539.208 12.7917C540.815 14.231 541.614 16.0578 541.614 18.2721C541.614 20.431 540.815 22.2578 539.208 23.7524C537.657 25.1917 535.664 25.9113 533.227 25.9113ZM540.284 30.7274V77.0613H526.087V30.7274H540.284Z"/>
<path fill="#4FF4FF" d="M498.371 30.2299C503.796 30.2299 508.114 32.0013 511.325 35.5442C514.591 39.0316 516.224 43.8477 516.224 49.9923V77.0617H502.107V51.9022C502.107 48.8021 501.305 46.3941 499.699 44.6781C498.094 42.962 495.935 42.1039 493.223 42.1039C490.51 42.1039 488.351 42.962 486.746 44.6781C485.14 46.3941 484.338 48.8021 484.338 51.9022V77.0617H470.139V30.7281H484.338V36.8727C485.777 34.8245 487.715 33.2191 490.15 32.0566C492.586 30.8388 495.326 30.2299 498.371 30.2299Z"/>
<path fill="#4FF4FF" d="M425.541 18.7697V53.6446C425.541 57.1322 426.399 59.8167 428.115 61.699C429.831 63.5809 432.35 64.5221 435.671 64.5221C438.993 64.5221 441.539 63.5809 443.311 61.699C445.082 59.8167 445.968 57.1322 445.968 53.6446V18.7697H460.166V53.5617C460.166 58.7652 459.059 63.1662 456.845 66.764C454.631 70.3623 451.642 73.0746 447.877 74.9019C444.168 76.7286 440.017 77.6419 435.422 77.6419C430.827 77.6419 426.703 76.7559 423.05 74.9848C419.451 73.1581 416.6 70.4453 414.497 66.8469C412.393 63.1935 411.342 58.7652 411.342 53.5617V18.7697H425.541Z"/>
<defs>
<linearGradient gradientUnits="userSpaceOnUse" y2="48.4278" x2="-56.4181" y1="83.5593" x1="110.752" id="paint0_linear_639_5692">
<stop stop-color="#4FF4FF"/>
<stop stop-color="#0097EC" offset="1"/>
</linearGradient>
<linearGradient gradientUnits="userSpaceOnUse" y2="30.5971" x2="75.8145" y1="31.924" x1="83.4701" id="paint1_linear_639_5692">
<stop stop-color="#4FF4FF"/>
<stop stop-color="#0097EC" offset="1"/>
</linearGradient>
<linearGradient gradientUnits="userSpaceOnUse" y2="-65.2517" x2="53.3886" y1="83.3809" x1="370.68" id="paint2_linear_639_5692">
<stop stop-color="#4FF4FF"/>
<stop stop-color="#0097EC" offset="1"/>
</linearGradient>
<linearGradient gradientUnits="userSpaceOnUse" y2="67.5892" x2="382.443" y1="67.6913" x1="388.951" id="paint3_linear_639_5692">
<stop stop-color="#4FF4FF"/>
<stop stop-color="#0097EC" offset="1"/>
</linearGradient>
</defs>
</svg>
