<svg width="288" height="258" viewBox="0 0 288 258" fill="none" xmlns="http://www.w3.org/2000/svg">
<path d="M281.444 207.893L232.256 141.063C226.912 133.802 218.999 129.451 210.573 128.492C208.655 128.27 206.942 127.156 205.983 125.478C205.007 123.799 204.904 121.761 205.675 119.98C209.049 112.204 209.254 103.179 205.623 94.9233L172.345 18.9138C167.413 7.62711 156.263 0.348145 143.949 0.348145C131.635 0.348145 120.485 7.64423 115.552 18.9138L82.2746 94.9233C78.6608 103.179 78.8492 112.204 82.2232 119.98C82.9939 121.761 82.8741 123.799 81.9149 125.478C80.9387 127.156 79.2431 128.27 77.3249 128.492C68.8984 129.451 60.9858 133.802 55.6422 141.063L6.45346 207.893C-0.842631 217.809 -1.5791 231.1 4.56949 241.77C10.7352 252.423 22.6213 258.435 34.85 257.082L117.316 247.902C126.274 246.908 133.998 242.233 139.033 235.416C140.181 233.857 142.014 232.933 143.949 232.933C145.884 232.933 147.7 233.857 148.864 235.416C153.9 242.233 161.624 246.908 170.581 247.902L253.048 257.082C265.276 258.452 277.163 252.44 283.328 241.77C289.477 231.1 288.74 217.809 281.444 207.893ZM103.786 104.463L137.115 28.3679C138.314 25.6447 141.003 23.8806 143.966 23.8806C146.929 23.8806 149.618 25.6447 150.817 28.3679L184.146 104.463C185.191 106.861 184.968 109.635 183.529 111.828C182.091 114.02 179.659 115.339 177.021 115.339H110.894C108.273 115.339 105.824 114.02 104.386 111.828C102.947 109.635 102.724 106.861 103.769 104.463H103.786ZM120.896 220.31C119.714 222.656 117.419 224.232 114.816 224.523L32.2638 233.703C29.3179 234.029 26.4406 232.59 24.9506 230.021C23.4605 227.452 23.6489 224.249 25.413 221.851L74.6531 154.953C76.2116 152.847 78.7122 151.648 81.3326 151.802C83.9531 151.939 86.3166 153.395 87.6353 155.673L87.6867 155.758L120.656 212.86L120.708 212.945C122.026 215.223 122.095 217.998 120.913 220.327L120.896 220.31ZM150.731 194.482C149.327 196.897 146.758 198.405 143.949 198.405C141.157 198.405 138.571 196.915 137.167 194.5L111.836 150.637C110.431 148.223 110.431 145.225 111.836 142.81C113.24 140.396 115.809 138.888 118.618 138.888H169.263C172.054 138.888 174.64 140.361 176.045 142.793C177.449 145.225 177.449 148.205 176.045 150.62L150.731 194.482ZM262.964 230.021C261.474 232.59 258.614 234.046 255.651 233.72L173.099 224.54C170.496 224.249 168.201 222.674 167.019 220.327C165.837 217.981 165.906 215.206 167.224 212.945L167.276 212.86L200.245 155.758L200.297 155.673C201.615 153.395 203.979 151.939 206.599 151.802C209.22 151.665 211.72 152.847 213.279 154.953L262.519 221.851C264.283 224.249 264.454 227.452 262.981 230.021H262.964Z" fill="#E81899"/>
</svg>
