<svg width="253" height="226" viewBox="0 0 253 226" fill="none" xmlns="http://www.w3.org/2000/svg">
<path d="M247.018 182.255L203.941 123.73C199.262 117.37 192.332 113.56 184.953 112.72C183.273 112.526 181.773 111.551 180.933 110.081C180.078 108.611 179.988 106.826 180.663 105.266C183.618 98.4567 183.798 90.5524 180.618 83.323L151.476 16.7586C147.156 6.87446 137.392 0.5 126.608 0.5C115.824 0.5 106.06 6.88945 101.74 16.7586L72.5975 83.323C69.4327 90.5524 69.5977 98.4567 72.5525 105.266C73.2274 106.826 73.1224 108.611 72.2825 110.081C71.4276 111.551 69.9427 112.526 68.2628 112.72C60.8834 113.56 53.9541 117.37 49.2745 123.73L6.1981 182.255C-0.191359 190.939 -0.836313 202.578 4.54823 211.922C9.94777 221.251 20.3569 226.516 31.066 225.331L103.285 217.292C111.129 216.422 117.894 212.327 122.303 206.358C123.308 204.993 124.913 204.183 126.608 204.183C128.303 204.183 129.893 204.993 130.913 206.358C135.322 212.327 142.087 216.422 149.931 217.292L222.15 225.331C232.859 226.531 243.268 221.266 248.668 211.922C254.052 202.578 253.407 190.939 247.018 182.255ZM91.4359 91.6773L120.623 25.0379C121.673 22.6531 124.028 21.1082 126.623 21.1082C129.218 21.1082 131.572 22.6531 132.622 25.0379L161.81 91.6773C162.725 93.7771 162.53 96.2069 161.27 98.1267C160.01 100.047 157.88 101.201 155.57 101.201H97.6603C95.3655 101.201 93.2207 100.047 91.9608 98.1267C90.7009 96.2069 90.5059 93.7771 91.4208 91.6773H91.4359ZM106.42 193.129C105.385 195.184 103.375 196.563 101.095 196.818L28.8012 204.858C26.2214 205.143 23.7016 203.883 22.3967 201.633C21.0918 199.383 21.2568 196.578 22.8017 194.479L65.923 135.894C67.2879 134.049 69.4778 132.999 71.7726 133.134C74.0674 133.254 76.1372 134.529 77.2921 136.523L77.3371 136.598L106.21 186.604L106.255 186.679C107.41 188.674 107.47 191.104 106.435 193.144L106.42 193.129ZM132.547 170.511C131.318 172.625 129.068 173.945 126.608 173.945C124.163 173.945 121.898 172.64 120.668 170.526L98.4853 132.114C97.2554 129.999 97.2554 127.374 98.4853 125.259C99.7152 123.145 101.965 121.825 104.425 121.825H148.776C151.221 121.825 153.486 123.115 154.716 125.244C155.945 127.374 155.945 129.984 154.716 132.099L132.547 170.511ZM230.834 201.633C229.529 203.883 227.024 205.158 224.43 204.873L152.136 196.833C149.856 196.578 147.846 195.199 146.811 193.144C145.776 191.089 145.836 188.659 146.991 186.679L147.036 186.604L175.909 136.598L175.954 136.523C177.109 134.529 179.178 133.254 181.473 133.134C183.768 133.014 185.958 134.049 187.323 135.894L230.444 194.479C231.989 196.578 232.139 199.383 230.849 201.633H230.834Z" fill="#E81899"/>
</svg>
