<svg width="30" height="30" viewBox="0 0 30 30" fill="none" xmlns="http://www.w3.org/2000/svg">
<g clip-path="url(#clip0_6_59)">
<circle cx="15" cy="15" r="15" fill="#E81899"/>
<path d="M23.8301 19.3287L20.6711 15.0368C20.3279 14.5705 19.8198 14.2911 19.2786 14.2295C19.1554 14.2152 19.0455 14.1437 18.9839 14.0359C18.9212 13.9281 18.9146 13.7972 18.9641 13.6828C19.1807 13.1835 19.1939 12.6038 18.9608 12.0737L16.8236 7.1923C16.5069 6.46746 15.7908 6 15 6C14.2092 6 13.4931 6.46856 13.1764 7.1923L11.0392 12.0737C10.8072 12.6038 10.8193 13.1835 11.0359 13.6828C11.0854 13.7972 11.0777 13.9281 11.0161 14.0359C10.9534 14.1437 10.8445 14.2152 10.7214 14.2295C10.1802 14.2911 9.67205 14.5705 9.32888 15.0368L6.16995 19.3287C5.70139 19.9655 5.65409 20.819 6.04896 21.5043C6.44492 22.1884 7.20826 22.5745 7.99359 22.4876L13.2896 21.8981C13.8649 21.8343 14.361 21.534 14.6843 21.0962C14.758 20.9961 14.8757 20.9367 15 20.9367C15.1243 20.9367 15.2409 20.9961 15.3157 21.0962C15.639 21.534 16.1351 21.8343 16.7104 21.8981L22.0064 22.4876C22.7917 22.5756 23.5551 22.1895 23.951 21.5043C24.3459 20.819 24.2986 19.9655 23.8301 19.3287ZM12.4207 12.6863L14.5611 7.79945C14.6381 7.62456 14.8108 7.51127 15.0011 7.51127C15.1914 7.51127 15.3641 7.62456 15.4411 7.79945L17.5815 12.6863C17.6486 12.8403 17.6343 13.0185 17.5419 13.1593C17.4495 13.3001 17.2933 13.3848 17.1239 13.3848H12.8772C12.7089 13.3848 12.5516 13.3001 12.4592 13.1593C12.3668 13.0185 12.3525 12.8403 12.4196 12.6863H12.4207ZM13.5195 20.1261C13.4436 20.2768 13.2962 20.378 13.1291 20.3967L7.8275 20.9862C7.63832 21.0071 7.45354 20.9147 7.35784 20.7498C7.26215 20.5848 7.27425 20.3791 7.38754 20.2251L10.5498 15.9289C10.6499 15.7936 10.8105 15.7166 10.9787 15.7265C11.147 15.7353 11.2988 15.8288 11.3835 15.9751L11.3868 15.9806L13.5041 19.6476L13.5074 19.6531C13.5921 19.7994 13.5965 19.9776 13.5206 20.1272L13.5195 20.1261ZM15.4356 18.4674C15.3454 18.6225 15.1804 18.7193 15 18.7193C14.8207 18.7193 14.6546 18.6236 14.5644 18.4685L12.9377 15.6517C12.8475 15.4966 12.8475 15.3041 12.9377 15.149C13.0279 14.9939 13.1929 14.8971 13.3732 14.8971H16.6257C16.8049 14.8971 16.971 14.9917 17.0612 15.1479C17.1514 15.3041 17.1514 15.4955 17.0612 15.6506L15.4356 18.4674ZM22.6433 20.7498C22.5476 20.9147 22.3639 21.0082 22.1736 20.9873L16.872 20.3978C16.7049 20.3791 16.5575 20.2779 16.4816 20.1272C16.4057 19.9765 16.4101 19.7983 16.4948 19.6531L16.4981 19.6476L18.6154 15.9806L18.6187 15.9751C18.7034 15.8288 18.8552 15.7353 19.0235 15.7265C19.1917 15.7177 19.3523 15.7936 19.4524 15.9289L22.6147 20.2251C22.7279 20.3791 22.7389 20.5848 22.6444 20.7498H22.6433Z" fill="#FAFAFA"/>
</g>
<defs>
<clipPath id="clip0_6_59">
<rect width="30" height="30" fill="white"/>
</clipPath>
</defs>
</svg>
