<svg width="32" height="32" viewBox="0 0 32 32" fill="none" xmlns="http://www.w3.org/2000/svg">
<path d="M15.1056 11.9252V11.801H15.1037L15.2131 0L4.77995 16.0806L4.46486 16.5681L4.73361 16.6126L14.7979 18.2937L14.9554 18.3196L15.1352 18.2696L24.9771 15.4801L15.1056 11.9252ZM10.1531 8.3517L14.6626 11.99L5.11172 16.1214L10.1531 8.3517ZM14.7979 17.9897L5.24146 16.3939L14.7998 12.2606V17.9897H14.7979ZM14.8035 11.7176L10.3181 8.09777L14.9036 1.03052L14.8035 11.7176ZM15.0982 17.9675L15.1056 12.244L23.9948 15.4467L15.0982 17.9675Z" fill="black"/>
<path d="M23.9948 15.4469L15.0982 17.9676L15.1056 12.2441L23.9948 15.4469Z" fill="#92EEE5"/>
<path d="M14.7998 12.2605L14.798 17.9895L5.24151 16.3937L14.7998 12.2605Z" fill="#BE9EFF"/>
<path d="M14.6626 11.9902L5.11176 16.1215L10.1532 8.35181L14.6626 11.9902Z" fill="#7CACFF"/>
<path d="M14.9035 1.03076L14.8035 11.7178L10.3181 8.09801L14.9035 1.03076Z" fill="#FAC3B2"/>
<path d="M25.5239 16.5513L14.9888 19.7689L14.8202 19.8208V20.2712L14.7961 31.9999L20.8995 23.157L20.9774 23.0421L21.0682 22.9105H21.0663L25.522 16.5513H25.5239ZM15.0982 31.0342L15.1204 20.1915L20.6382 23.0069L15.0982 31.0342ZM20.8068 22.7585L15.3465 19.9746L24.8122 17.0832L20.8068 22.7585Z" fill="black"/>
<path d="M20.6382 23.0071L15.0982 31.0344L15.1204 20.1917L20.6382 23.0071Z" fill="#FAC3B2"/>
<path d="M24.8121 17.0835L20.8068 22.7588L15.3465 19.9749L24.8121 17.0835Z" fill="#BE9EFF"/>
</svg>
