<?xml version="1.0" encoding="utf-8"?>
<!-- Generator: Adobe Illustrator 27.5.0, SVG Export Plug-In . SVG Version: 6.00 Build 0)  -->
<svg version="1.1" id="Layer_1" xmlns="http://www.w3.org/2000/svg" xmlns:xlink="http://www.w3.org/1999/xlink" x="0px" y="0px"
	 width="252.1px" height="126px" viewBox="0 0 252.1 126" style="enable-background:new 0 0 252.1 126;" xml:space="preserve">
<style type="text/css">
	.st0{fill:#00ACEB;}
	.st1{fill:#00BFF2;}
	.st2{fill:#009CDD;}
	.st3{fill:#FFA726;}
</style>
<g>
	<g id="XMLID_00000000209599212211036890000006728175402107455401_">
		<g>
			<path class="st0" d="M77.2,1.6l-9.1,33.9c-1.6-0.3-3.3-0.5-5-0.5c-2.5,0-4.9,0.3-7.3,0.9C51.7,37,48,39,44.9,41.7L20.1,16.9
				c3.2-3,6.7-5.7,10.5-7.9l1.9-1.1c4.4-2.4,9.2-4.4,14.2-5.7C51.9,0.7,57.4,0,63,0C67.9,0,72.6,0.5,77.2,1.6z"/>
			<path class="st1" d="M250.5,48.9c1.1,4.5,1.6,9.2,1.6,14.1c0,5.7-0.7,11.1-2.1,16.3c-1.3,5-3.3,9.7-5.7,14.2l-1.1,2
				c-2.3,3.8-4.9,7.3-7.9,10.5l-24.8-24.8c2.6-3.1,4.6-6.8,5.7-10.9c0.6-2.3,0.9-4.7,0.9-7.3c0-1.7-0.1-3.3-0.4-4.9L250.5,48.9z"/>
			<path class="st2" d="M179.7,89.5l-9.1,33.9c-4.2-1.3-8.2-3-12-5.1l-1.9-1.1c-4.5-2.7-8.5-5.9-12.2-9.5c0,0,0,0,0,0l-1.8-1.9
				c-1.4-1.5-2.8-3.2-4-4.8l24.4-24.4l5.4,5.6c0.2,0.3,0.5,0.5,0.8,0.8C172.2,85.8,175.7,88.1,179.7,89.5z"/>
			<path class="st2" d="M113.5,25.2L89.1,49.6l0,0L83.7,44c-0.3-0.3-0.5-0.5-0.8-0.8c-2.9-2.9-6.5-5.2-10.4-6.6l9.1-33.9
				c4.2,1.3,8.3,3,12,5.1l1.9,1.1c4.5,2.7,8.6,5.9,12.2,9.5c0,0,0,0,0,0l1.8,1.9C110.9,21.9,112.2,23.6,113.5,25.2z"/>
			<path class="st0" d="M207.2,84.4l24.8,24.8c-3.2,3-6.7,5.7-10.5,7.9l-1.9,1.1c-4.4,2.4-9.2,4.4-14.2,5.7
				c-5.2,1.4-10.7,2.1-16.3,2.1c-4.9,0-9.6-0.5-14.1-1.6l9.1-33.9c1.6,0.3,3.3,0.5,5,0.5c2.5,0,5-0.3,7.3-0.9
				C200.4,89,204.1,87.1,207.2,84.4z"/>
			<path class="st3" d="M78.4,86.5l24.7,25.2c-2.4,2-4.9,3.8-7.6,5.3l-2,1.1c-4.4,2.5-9.2,4.4-14.1,5.7c-5.2,1.4-10.7,2.1-16.3,2.1
				c-5.6,0-11.1-0.7-16.3-2.1c-5-1.3-9.7-3.3-14.1-5.7l-2-1.2c-4.4-2.6-8.5-5.8-12.1-9.5c-3.6-3.6-6.8-7.7-9.5-12.1l-1.1-1.9
				c-2.1-3.8-3.8-7.8-5.1-12l33.8-9.2c1.4,4,3.7,7.6,6.6,10.6c3.4,3.4,7.8,6,12.6,7.3c2.3,0.6,4.7,0.9,7.3,0.9c2.5,0,5-0.3,7.3-0.9
				C73.2,89.3,75.9,88.1,78.4,86.5z"/>
			<path class="st1" d="M16.9,20.1l24.8,24.8C39,48,37,51.7,35.9,55.8C35.3,58.1,35,60.5,35,63c0,1.7,0.1,3.3,0.4,4.9L1.6,77.1
				C0.5,72.6,0,67.9,0,63c0-5.7,0.7-11.1,2.1-16.3c1.3-5,3.3-9.7,5.7-14.1l1.1-2C11.3,26.8,13.9,23.3,16.9,20.1z"/>
			<path class="st3" d="M249.3,44.5l-33.8,9.2c-1.4-4-3.7-7.6-6.6-10.6c-3.4-3.4-7.8-6-12.6-7.3c-2.3-0.6-4.7-0.9-7.3-0.9
				c-2.5,0-5,0.3-7.3,0.9c-2.9,0.8-5.6,2-8.1,3.6l-24.7-25.2c2.4-2,4.9-3.8,7.6-5.3l2-1.2c4.4-2.4,9.2-4.4,14.1-5.7
				C178,0.7,183.4,0,189.1,0c5.6,0,11.1,0.7,16.3,2.1c5,1.3,9.7,3.3,14.1,5.7l2,1.2c4.4,2.6,8.5,5.8,12.1,9.5
				c3.6,3.6,6.8,7.7,9.5,12.1l1.1,1.9C246.3,36.3,248.1,40.3,249.3,44.5z"/>
		</g>
	</g>
</g>
</svg>
