<svg width="512" height="513" viewBox="0 0 512 513" fill="none" xmlns="http://www.w3.org/2000/svg">
<rect width="512" height="512" transform="translate(0 0.496094)" fill="black"/>
<path fill-rule="evenodd" clip-rule="evenodd" d="M230.18 155.054C229.498 151.025 235.17 149.397 236.729 153.174L239.769 160.539C239.865 160.773 239.938 161.01 239.99 161.247C247.278 159.49 254.62 158.606 261.89 158.537C261.882 158.293 261.895 158.043 261.932 157.792L263.092 149.928C263.688 145.886 269.586 146.09 269.901 150.164L270.514 158.089C270.534 158.343 270.53 158.594 270.505 158.838C277.899 159.424 285.165 160.849 292.167 163.053C292.234 162.818 292.324 162.585 292.437 162.358L295.977 155.224C297.793 151.563 303.339 153.58 302.38 157.552L300.511 165.293C300.451 165.54 300.371 165.776 300.272 165.999C307.076 168.816 313.56 172.393 319.587 176.669C319.721 176.475 319.873 176.288 320.045 176.113L325.616 170.422C328.474 167.502 333.126 171.133 330.986 174.615L326.816 181.4C326.69 181.604 326.55 181.794 326.397 181.967C332.524 187.183 338.051 193.193 342.802 199.918C342.791 199.27 342.787 198.627 342.783 197.995L342.783 197.882C342.769 194.658 345.684 192.18 348.988 191.718C350.567 191.509 352.17 191.829 353.548 192.629C354.925 193.429 355.998 194.663 356.599 196.138C358.48 200.922 358.797 206.177 357.506 211.152C357.401 211.6 357.277 212.047 357.137 212.554L357.137 212.554L357.137 212.555L357.136 212.557L357.136 212.558L357.133 212.568C357.08 212.758 357.025 212.957 356.968 213.167C361.797 215.889 365.584 220.14 367.731 225.25C369.457 229.365 367.82 233.568 364.017 235.237C362.058 236.079 360.14 235.858 358.383 234.938C359.935 241.772 360.724 248.647 360.796 255.46C361 255.459 361.207 255.473 361.416 255.504L369.278 256.663C373.321 257.26 373.117 263.158 369.043 263.473L361.119 264.086C360.911 264.102 360.706 264.103 360.505 264.089C359.925 271.494 358.504 278.771 356.302 285.784C356.487 285.845 356.67 285.92 356.85 286.009L363.983 289.548C367.644 291.364 365.627 296.911 361.655 295.952L353.914 294.083C353.721 294.036 353.534 293.976 353.356 293.905C350.538 300.722 346.957 307.219 342.674 313.257C342.82 313.366 342.96 313.486 343.095 313.617L348.785 319.187C351.705 322.046 348.073 326.697 344.592 324.558L337.808 320.388C337.653 320.293 337.506 320.189 337.369 320.078C332.622 325.654 327.217 330.734 321.214 335.184C321.313 335.327 321.405 335.478 321.488 335.637L325.172 342.679C327.066 346.3 322.174 349.602 319.524 346.491L314.371 340.441C314.254 340.304 314.148 340.162 314.053 340.015C308.979 343.12 303.549 345.804 297.791 348.004C296.533 348.485 295.271 348.938 294.006 349.364C294.056 349.527 294.095 349.696 294.125 349.87L295.455 357.724C296.137 361.753 290.465 363.382 288.906 359.604L285.867 352.24C285.801 352.081 285.746 351.921 285.702 351.76C278.395 353.524 271.034 354.412 263.746 354.479C263.742 354.647 263.728 354.817 263.702 354.988L262.543 362.85C261.947 366.893 256.049 366.689 255.734 362.614L255.121 354.691C255.107 354.517 255.105 354.345 255.113 354.175C247.701 353.585 240.418 352.151 233.401 349.936C233.344 350.1 233.277 350.262 233.197 350.422L229.658 357.555C227.842 361.215 222.296 359.199 223.255 355.226L225.124 347.487C225.167 347.31 225.22 347.14 225.283 346.975C218.468 344.146 211.975 340.552 205.941 336.257C205.835 336.399 205.717 336.536 205.589 336.666L200.019 342.357C197.161 345.277 192.509 341.645 194.649 338.164L198.818 331.38C198.914 331.224 199.018 331.078 199.13 330.94C193.563 326.184 188.494 320.772 184.055 314.763C183.903 314.871 183.741 314.971 183.569 315.06L176.528 318.743C172.907 320.637 169.605 315.746 172.716 313.096L178.765 307.943C178.917 307.814 179.075 307.698 179.237 307.595C176.809 303.611 174.639 299.408 172.759 295.001L159.401 312.709C157.631 315.056 154.178 315.306 152.329 313.021C139.673 297.375 138.109 276.683 139.349 264.042C139.648 261.002 142.83 259.326 145.644 260.513L165.651 268.953C165.15 265.067 164.888 261.183 164.856 257.318C164.647 257.32 164.434 257.306 164.219 257.274L156.357 256.115C152.314 255.519 152.518 249.621 156.592 249.305L164.516 248.692C164.737 248.675 164.955 248.676 165.169 248.693C165.766 241.295 167.203 234.025 169.419 227.021C169.205 226.956 168.993 226.872 168.785 226.769L161.652 223.23C157.991 221.414 160.008 215.868 163.98 216.827L171.721 218.696C171.951 218.751 172.171 218.825 172.38 218.914C175.208 212.113 178.797 205.633 183.085 199.611C182.895 199.48 182.713 199.33 182.541 199.162L176.85 193.591C173.93 190.733 177.562 186.081 181.043 188.221L187.828 192.39C188.032 192.516 188.222 192.657 188.395 192.809C193.142 187.253 198.544 182.192 204.541 177.758C204.395 177.568 204.263 177.363 204.147 177.142L200.463 170.099C198.569 166.478 203.461 163.177 206.111 166.287L211.265 172.338C211.429 172.531 211.572 172.734 211.694 172.945C216.742 169.864 222.141 167.199 227.864 165.012C229.139 164.524 230.419 164.065 231.701 163.634C231.618 163.404 231.553 163.162 231.511 162.911L230.18 155.054ZM184.032 286.618C200.662 330.137 249.421 351.935 292.939 335.305C336.052 318.83 357.847 270.821 342.08 227.614C336.852 232.006 330.579 235.985 323.285 238.658C306.921 244.656 294.427 247.269 283.883 248.302C271.892 264.792 251.505 271.672 241.642 273.088L242.899 248.396C236.475 248.663 229.573 249.509 221.501 251.582C206.346 255.475 192.23 261.825 179.417 269.198C180.311 275.039 181.837 280.874 184.032 286.618ZM205.526 288.741C201.485 289.46 197.626 286.767 196.906 282.726C196.187 278.684 198.88 274.825 202.921 274.106C206.963 273.387 210.822 276.08 211.541 280.121C212.26 284.163 209.567 288.022 205.526 288.741ZM239.788 289.636C237.15 290.106 234.632 288.348 234.162 285.711C233.693 283.073 235.451 280.554 238.088 280.085C240.726 279.616 243.244 281.373 243.714 284.011C244.183 286.648 242.425 289.167 239.788 289.636ZM283.297 287.937C280.659 288.406 278.14 286.649 277.671 284.011C277.202 281.374 278.959 278.855 281.597 278.386C284.234 277.916 286.753 279.674 287.222 282.312C287.692 284.949 285.934 287.468 283.297 287.937ZM292.358 311.174C292.827 313.812 295.346 315.57 297.983 315.1C300.621 314.631 302.379 312.112 301.909 309.475C301.44 306.837 298.921 305.079 296.284 305.549C293.646 306.018 291.888 308.537 292.358 311.174ZM241.511 323.013C238.873 323.483 236.354 321.725 235.885 319.087C235.416 316.45 237.173 313.931 239.811 313.462C242.448 312.992 244.967 314.75 245.436 317.388C245.906 320.025 244.148 322.544 241.511 323.013ZM215.334 302.512C215.803 305.149 218.322 306.907 220.959 306.438C223.597 305.968 225.355 303.45 224.885 300.812C224.416 298.175 221.897 296.417 219.26 296.886C216.622 297.356 214.864 299.874 215.334 302.512ZM262.696 304.074C260.059 304.543 257.54 302.786 257.071 300.148C256.601 297.511 258.359 294.992 260.997 294.523C263.634 294.053 266.153 295.811 266.622 298.448C267.092 301.086 265.334 303.605 262.696 304.074ZM304.102 284.233C304.822 288.275 308.681 290.968 312.722 290.249C316.763 289.529 319.456 285.67 318.737 281.629C318.018 277.588 314.159 274.895 310.118 275.614C306.076 276.333 303.383 280.192 304.102 284.233ZM262.5 321.903C263.219 325.944 267.078 328.637 271.119 327.918C275.16 327.199 277.853 323.34 277.134 319.299C276.415 315.258 272.556 312.565 268.515 313.284C264.473 314.003 261.78 317.862 262.5 321.903ZM319.329 207.864C320.816 214.399 316.959 220.849 310.713 222.271C304.467 223.692 298.198 219.547 296.711 213.011C295.224 206.476 299.081 200.026 305.327 198.604C311.572 197.183 317.841 201.328 319.329 207.864Z" fill="url(#paint0_linear_932_1291)"/>
<path d="M311.186 216.592C313.999 215.951 315.68 212.801 314.941 209.555C314.203 206.309 311.323 204.197 308.51 204.837C305.697 205.477 304.016 208.627 304.755 211.873C305.494 215.119 308.373 217.232 311.186 216.592Z" fill="#4A98EA"/>
<defs>
<linearGradient id="paint0_linear_932_1291" x1="275.605" y1="147" x2="371.388" y2="302.827" gradientUnits="userSpaceOnUse">
<stop offset="0.0677083" stop-color="#874FFF"/>
<stop offset="0.463542" stop-color="#36AFE2"/>
<stop offset="0.859375" stop-color="#41FF54"/>
</linearGradient>
</defs>
</svg>
