<svg width="483" height="425" viewBox="0 0 483 425" fill="none" xmlns="http://www.w3.org/2000/svg">
<path d="M361.116 180.472L318.344 122.36C313.697 116.045 306.817 112.262 299.49 111.428C297.822 111.235 296.332 110.267 295.498 108.807C294.649 107.348 294.56 105.575 295.23 104.027C298.164 97.2652 298.343 89.4166 295.185 82.2383L266.249 16.1438C261.96 6.32946 252.264 0 241.556 0C230.848 0 221.153 6.34435 216.864 16.1438L187.927 82.2383C184.785 89.4166 184.949 97.2652 187.883 104.027C188.553 105.575 188.449 107.348 187.615 108.807C186.766 110.267 185.291 111.235 183.623 111.428C176.296 112.262 169.415 116.045 164.769 122.36L121.997 180.472C115.652 189.094 115.012 200.651 120.358 209.93C125.72 219.193 136.055 224.42 146.689 223.244L218.398 215.261C226.187 214.397 232.904 210.332 237.282 204.404C238.28 203.049 239.874 202.245 241.556 202.245C243.239 202.245 244.818 203.049 245.831 204.404C250.209 210.332 256.926 214.397 264.715 215.261L336.424 223.244C347.057 224.435 357.393 219.208 362.754 209.93C368.101 200.651 367.461 189.094 361.116 180.472ZM206.633 90.5336L235.614 24.3647C236.657 21.9967 238.995 20.4628 241.571 20.4628C244.148 20.4628 246.486 21.9967 247.528 24.3647L276.51 90.5336C277.418 92.6186 277.225 95.0312 275.974 96.9375C274.723 98.8438 272.608 99.9906 270.315 99.9906H212.813C210.535 99.9906 208.405 98.8438 207.154 96.9375C205.903 95.0312 205.709 92.6186 206.618 90.5336H206.633ZM221.511 191.269C220.483 193.309 218.487 194.679 216.224 194.932L144.44 202.915C141.879 203.198 139.377 201.947 138.081 199.713C136.785 197.479 136.949 194.694 138.483 192.609L181.3 134.438C182.655 132.606 184.83 131.563 187.108 131.697C189.387 131.817 191.442 133.082 192.589 135.063L192.633 135.138L221.302 184.79L221.347 184.865C222.494 186.846 222.553 189.258 221.525 191.284L221.511 191.269ZM247.454 168.81C246.233 170.91 243.999 172.221 241.556 172.221C239.129 172.221 236.88 170.925 235.659 168.825L213.632 130.685C212.411 128.585 212.411 125.979 213.632 123.879C214.854 121.779 217.087 120.468 219.53 120.468H263.568C265.996 120.468 268.244 121.749 269.466 123.864C270.687 125.979 270.687 128.57 269.466 130.67L247.454 168.81ZM345.047 199.713C343.751 201.947 341.264 203.213 338.688 202.93L266.904 194.947C264.64 194.694 262.645 193.324 261.617 191.284C260.589 189.243 260.649 186.831 261.796 184.865L261.84 184.79L290.509 135.138L290.554 135.063C291.701 133.082 293.756 131.817 296.034 131.697C298.313 131.578 300.487 132.606 301.843 134.438L344.66 192.609C346.193 194.694 346.342 197.479 345.062 199.713H345.047Z" fill="#FAFAFA"/>
<path d="M164.171 408.901C160.534 414.077 155.707 417.924 149.691 420.443C143.675 422.821 136.96 424.01 129.545 424.01C123.669 424.01 118.283 423.311 113.386 421.912C108.63 420.513 104.432 418.414 100.795 415.616C97.1575 412.678 94.2895 409.11 92.1909 404.913C90.0924 400.576 89.0431 395.68 89.0431 390.224C89.0431 384.208 90.2323 379.101 92.6106 374.904C94.989 370.567 98.2068 367.07 102.264 364.411C106.461 361.753 111.358 359.795 116.954 358.535C122.55 357.136 128.426 356.437 134.582 356.437H162.912C162.912 348.323 161.093 342.027 157.456 337.55C153.818 333.073 147.453 330.765 138.359 330.625C133.043 330.625 128.426 331.534 124.509 333.353C120.731 335.172 118.213 338.18 116.954 342.377H92.4008C93.2402 336.501 95.1289 331.534 98.0669 327.477C101.145 323.42 104.782 320.062 108.979 317.404C113.316 314.746 118.073 312.857 123.249 311.738C128.566 310.619 133.882 310.059 139.198 310.059C146.054 310.059 152.419 310.968 158.295 312.787C164.171 314.606 169.278 317.684 173.615 322.021C178.511 327.057 181.799 333.073 183.478 340.068C185.157 347.063 185.996 354.688 185.996 362.942V422.541H165.22L164.171 408.901ZM162.912 373.435H139.828C135.771 373.435 131.714 373.785 127.656 374.484C123.599 375.044 120.102 376.513 117.164 378.891C114.366 381.13 112.967 384.418 112.967 388.755C112.967 394.071 114.855 398.128 118.633 400.926C122.55 403.584 127.307 404.913 132.903 404.913C137.24 404.913 141.227 404.354 144.864 403.235C148.642 402.115 151.86 400.297 154.518 397.778C157.176 395.12 159.204 391.832 160.604 387.915C162.142 383.858 162.912 379.031 162.912 373.435Z" fill="#FAFAFA"/>
<path d="M225.324 265.99C229.661 265.99 233.229 267.319 236.027 269.977C238.965 272.635 240.434 276.272 240.434 280.889C240.434 285.366 238.965 288.934 236.027 291.592C233.229 294.25 229.661 295.579 225.324 295.579C220.707 295.579 217 294.25 214.202 291.592C211.404 288.934 210.005 285.366 210.005 280.889C210.005 276.272 211.404 272.635 214.202 269.977C217 267.319 220.707 265.99 225.324 265.99ZM213.152 422.541V311.948H237.076V422.541H213.152Z" fill="#FAFAFA"/>
<path d="M427.212 310.059C436.026 310.059 443.791 311.458 450.506 314.256C457.221 317.054 462.888 320.971 467.504 326.008C472.261 330.905 475.829 336.851 478.207 343.846C480.585 350.841 481.774 358.605 481.774 367.14C481.774 375.814 480.585 383.648 478.207 390.643C475.968 397.499 472.541 403.444 467.924 408.481C463.307 413.517 457.571 417.365 450.716 420.023C444.001 422.681 436.166 424.01 427.212 424.01C418.398 424.01 410.634 422.681 403.918 420.023C397.203 417.225 391.537 413.377 386.92 408.481C382.443 403.444 379.016 397.429 376.637 390.433C374.399 383.438 373.28 375.674 373.28 367.14C373.28 358.605 374.399 350.841 376.637 343.846C379.016 336.851 382.513 330.905 387.13 326.008C391.747 320.971 397.413 317.054 404.128 314.256C410.844 311.458 418.538 310.059 427.212 310.059ZM427.212 403.235C432.668 403.235 437.285 402.325 441.063 400.506C444.98 398.548 448.128 395.96 450.506 392.742C453.024 389.524 454.843 385.747 455.962 381.41C457.221 377.073 457.851 372.386 457.851 367.349C457.851 362.313 457.221 357.626 455.962 353.289C454.843 348.812 453.024 344.965 450.506 341.747C448.128 338.529 444.98 336.011 441.063 334.192C437.285 332.374 432.668 331.464 427.212 331.464C421.896 331.464 417.349 332.374 413.572 334.192C409.794 336.011 406.647 338.529 404.128 341.747C401.61 344.965 399.721 348.812 398.462 353.289C397.343 357.626 396.783 362.313 396.783 367.349C396.783 372.386 397.343 377.073 398.462 381.41C399.721 385.747 401.54 389.524 403.918 392.742C406.437 395.96 409.585 398.548 413.362 400.506C417.279 402.325 421.896 403.235 427.212 403.235Z" fill="#FAFAFA"/>
<path d="M305.683 357.066H288.475V278.562H264.762V422.541H288.475V377.842H307.152L336.322 422.541H364.023L326.249 364.621L361.085 311.948H334.223L305.683 357.066Z" fill="#FAFAFA"/>
<path d="M72.8665 311.634H44.5393V278.562H37.2194L2.79395 325.334V331.383H20.4718V386.12C20.4718 399.041 23.3827 408.342 29.2043 414.021C35.1679 419.701 45.0363 422.541 58.8094 422.541H72.0146V401.668H60.9393C54.5497 401.668 50.2189 400.106 47.9471 396.982C45.6752 393.859 44.5393 389.102 44.5393 382.712V331.383H72.8665V311.634Z" fill="#FAFAFA"/>
</svg>
