<svg width="483" height="425" viewBox="0 0 483 425" fill="none" xmlns="http://www.w3.org/2000/svg">
<path d="M361.116 180.472L318.343 122.36C313.697 116.045 306.816 112.262 299.489 111.428C297.821 111.235 296.332 110.267 295.498 108.807C294.649 107.348 294.56 105.575 295.23 104.027C298.164 97.2652 298.342 89.4166 295.185 82.2383L266.248 16.1438C261.959 6.32946 252.264 0 241.556 0C230.848 0 221.153 6.34435 216.864 16.1438L187.927 82.2383C184.784 89.4166 184.948 97.2652 187.882 104.027C188.552 105.575 188.448 107.348 187.614 108.807C186.765 110.267 185.291 111.235 183.623 111.428C176.295 112.262 169.415 116.045 164.768 122.36L121.996 180.472C115.652 189.094 115.011 200.651 120.358 209.93C125.719 219.193 136.055 224.42 146.688 223.244L218.398 215.261C226.186 214.397 232.903 210.332 237.282 204.404C238.279 203.049 239.873 202.245 241.556 202.245C243.239 202.245 244.817 203.049 245.83 204.404C250.209 210.332 256.925 214.397 264.714 215.261L336.423 223.244C347.057 224.435 357.393 219.208 362.754 209.93C368.1 200.651 367.46 189.094 361.116 180.472ZM206.632 90.5336L235.614 24.3647C236.656 21.9967 238.994 20.4628 241.571 20.4628C244.147 20.4628 246.485 21.9967 247.528 24.3647L276.509 90.5336C277.418 92.6186 277.224 95.0312 275.973 96.9375C274.722 98.8438 272.608 99.9906 270.314 99.9906H212.813C210.534 99.9906 208.404 98.8438 207.153 96.9375C205.902 95.0312 205.709 92.6186 206.617 90.5336H206.632ZM221.51 191.269C220.482 193.309 218.487 194.679 216.223 194.932L144.44 202.915C141.878 203.198 139.376 201.947 138.08 199.713C136.785 197.479 136.949 194.694 138.482 192.609L181.299 134.438C182.655 132.606 184.829 131.563 187.108 131.697C189.386 131.817 191.441 133.082 192.588 135.063L192.633 135.138L221.302 184.79L221.346 184.865C222.493 186.846 222.553 189.258 221.525 191.284L221.51 191.269ZM247.453 168.81C246.232 170.91 243.998 172.221 241.556 172.221C239.128 172.221 236.88 170.925 235.658 168.825L213.632 130.685C212.411 128.585 212.411 125.979 213.632 123.879C214.853 121.779 217.087 120.468 219.529 120.468H263.568C265.995 120.468 268.244 121.749 269.465 123.864C270.686 125.979 270.686 128.57 269.465 130.67L247.453 168.81ZM345.046 199.713C343.751 201.947 341.264 203.213 338.687 202.93L266.904 194.947C264.64 194.694 262.644 193.324 261.617 191.284C260.589 189.243 260.649 186.831 261.795 184.865L261.84 184.79L290.509 135.138L290.553 135.063C291.7 133.082 293.755 131.817 296.034 131.697C298.312 131.578 300.487 132.606 301.842 134.438L344.659 192.609C346.193 194.694 346.342 197.479 345.061 199.713H345.046Z" fill="#E81899"/>
<path d="M164.171 408.901C160.533 414.077 155.706 417.924 149.691 420.443C143.675 422.821 136.959 424.01 129.545 424.01C123.669 424.01 118.282 423.311 113.386 421.912C108.629 420.513 104.432 418.414 100.794 415.616C97.157 412.678 94.289 409.11 92.1905 404.913C90.0919 400.576 89.0426 395.68 89.0426 390.224C89.0426 384.208 90.2318 379.101 92.6101 374.904C94.9885 370.567 98.2063 367.07 102.263 364.411C106.461 361.753 111.357 359.795 116.953 358.535C122.549 357.136 128.425 356.437 134.581 356.437H162.911C162.911 348.323 161.093 342.027 157.455 337.55C153.818 333.073 147.452 330.765 138.358 330.625C133.042 330.625 128.425 331.534 124.508 333.353C120.731 335.172 118.212 338.18 116.953 342.377H92.4003C93.2397 336.501 95.1284 331.534 98.0664 327.477C101.144 323.42 104.782 320.062 108.979 317.404C113.316 314.746 118.073 312.857 123.249 311.738C128.565 310.619 133.882 310.059 139.198 310.059C146.053 310.059 152.419 310.968 158.295 312.787C164.171 314.606 169.277 317.684 173.614 322.021C178.511 327.057 181.798 333.073 183.477 340.068C185.156 347.063 185.995 354.688 185.995 362.942V422.541H165.22L164.171 408.901ZM162.911 373.435H139.827C135.77 373.435 131.713 373.785 127.656 374.484C123.599 375.044 120.101 376.513 117.163 378.891C114.365 381.13 112.966 384.418 112.966 388.755C112.966 394.071 114.855 398.128 118.632 400.926C122.549 403.584 127.306 404.913 132.902 404.913C137.239 404.913 141.227 404.354 144.864 403.235C148.641 402.115 151.859 400.297 154.517 397.778C157.175 395.12 159.204 391.832 160.603 387.915C162.142 383.858 162.911 379.031 162.911 373.435Z" fill="#FAFAFA"/>
<path d="M225.324 265.99C229.661 265.99 233.228 267.319 236.026 269.977C238.964 272.635 240.433 276.272 240.433 280.889C240.433 285.366 238.964 288.934 236.026 291.592C233.228 294.25 229.661 295.579 225.324 295.579C220.707 295.579 216.999 294.25 214.201 291.592C211.403 288.934 210.004 285.366 210.004 280.889C210.004 276.272 211.403 272.635 214.201 269.977C216.999 267.319 220.707 265.99 225.324 265.99ZM213.152 422.541V311.948H237.075V422.541H213.152Z" fill="#FAFAFA"/>
<path d="M427.212 310.059C436.026 310.059 443.79 311.458 450.506 314.256C457.221 317.054 462.887 320.971 467.504 326.008C472.261 330.905 475.828 336.851 478.206 343.846C480.585 350.841 481.774 358.605 481.774 367.14C481.774 375.814 480.585 383.648 478.206 390.643C475.968 397.499 472.54 403.444 467.924 408.481C463.307 413.517 457.571 417.365 450.715 420.023C444 422.681 436.166 424.01 427.212 424.01C418.398 424.01 410.633 422.681 403.918 420.023C397.203 417.225 391.536 413.377 386.92 408.481C382.443 403.444 379.015 397.429 376.637 390.433C374.398 383.438 373.279 375.674 373.279 367.14C373.279 358.605 374.398 350.841 376.637 343.846C379.015 336.851 382.513 330.905 387.129 326.008C391.746 320.971 397.412 317.054 404.128 314.256C410.843 311.458 418.538 310.059 427.212 310.059ZM427.212 403.235C432.668 403.235 437.285 402.325 441.062 400.506C444.979 398.548 448.127 395.96 450.506 392.742C453.024 389.524 454.843 385.747 455.962 381.41C457.221 377.073 457.851 372.386 457.851 367.349C457.851 362.313 457.221 357.626 455.962 353.289C454.843 348.812 453.024 344.965 450.506 341.747C448.127 338.529 444.979 336.011 441.062 334.192C437.285 332.374 432.668 331.464 427.212 331.464C421.895 331.464 417.349 332.374 413.571 334.192C409.794 336.011 406.646 338.529 404.128 341.747C401.61 344.965 399.721 348.812 398.462 353.289C397.342 357.626 396.783 362.313 396.783 367.349C396.783 372.386 397.342 377.073 398.462 381.41C399.721 385.747 401.54 389.524 403.918 392.742C406.436 395.96 409.584 398.548 413.361 400.506C417.279 402.325 421.895 403.235 427.212 403.235Z" fill="#FAFAFA"/>
<path d="M305.683 357.066H288.475V278.562H264.761V422.541H288.475V377.842H307.152L336.321 422.541H364.022L326.248 364.621L361.084 311.948H334.223L305.683 357.066Z" fill="#FAFAFA"/>
<path d="M72.866 311.634H44.5388V278.562H37.2189L2.79346 325.334V331.383H20.4713V386.12C20.4713 399.041 23.3822 408.342 29.2038 414.021C35.1674 419.701 45.0358 422.541 58.8089 422.541H72.0141V401.668H60.9388C54.5492 401.668 50.2185 400.106 47.9466 396.982C45.6748 393.859 44.5388 389.102 44.5388 382.712V331.383H72.866V311.634Z" fill="#FAFAFA"/>
</svg>
