<svg width="91" height="26" viewBox="0 0 91 26" fill="none" xmlns="http://www.w3.org/2000/svg">
<path d="M50.7496 20.4383C50.3 21.0781 49.7034 21.5537 48.9598 21.865C48.2163 22.1589 47.3862 22.3059 46.4697 22.3059C45.7434 22.3059 45.0777 22.2195 44.4724 22.0465C43.8845 21.8736 43.3657 21.6142 42.9161 21.2684C42.4665 20.9052 42.112 20.4643 41.8526 19.9455C41.5932 19.4094 41.4636 18.8042 41.4636 18.1298C41.4636 17.3862 41.6105 16.755 41.9045 16.2363C42.1985 15.7002 42.5962 15.2679 43.0977 14.9393C43.6165 14.6108 44.2217 14.3687 44.9134 14.213C45.6051 14.0401 46.3314 13.9536 47.0923 13.9536H50.594C50.594 12.9507 50.3692 12.1725 49.9196 11.6192C49.47 11.0658 48.6832 10.7805 47.5592 10.7632C46.902 10.7632 46.3314 10.8756 45.8472 11.1004C45.3803 11.3252 45.069 11.697 44.9134 12.2157H41.8786C41.9823 11.4895 42.2158 10.8756 42.5789 10.3741C42.9594 9.87262 43.409 9.4576 43.9277 9.12904C44.4638 8.80048 45.0517 8.56703 45.6916 8.4287C46.3487 8.29036 47.0058 8.22118 47.6629 8.22118C48.5102 8.22118 49.297 8.33359 50.0233 8.55839C50.7496 8.78319 51.3808 9.16362 51.9169 9.69969C52.5221 10.3222 52.9285 11.0658 53.136 11.9304C53.3435 12.795 53.4472 13.7375 53.4472 14.7577V22.1243H50.8793L50.7496 20.4383ZM50.594 16.0547H47.7407C47.2392 16.0547 46.7378 16.0979 46.2363 16.1844C45.7348 16.2535 45.3025 16.4351 44.9393 16.7291C44.5935 17.0058 44.4206 17.4121 44.4206 17.9482C44.4206 18.6053 44.654 19.1068 45.1209 19.4527C45.6051 19.7812 46.193 19.9455 46.8847 19.9455C47.4208 19.9455 47.9137 19.8763 48.3633 19.738C48.8302 19.5996 49.2279 19.3748 49.5564 19.0636C49.885 18.735 50.1357 18.3286 50.3087 17.8445C50.4989 17.343 50.594 16.7464 50.594 16.0547Z" fill="#0B101B"/>
<path d="M58.3083 2.77405C58.8444 2.77405 59.2853 2.93833 59.6312 3.26689C59.9943 3.59544 60.1759 4.04505 60.1759 4.6157C60.1759 5.16906 59.9943 5.61002 59.6312 5.93858C59.2853 6.26713 58.8444 6.43141 58.3083 6.43141C57.7377 6.43141 57.2794 6.26713 56.9336 5.93858C56.5877 5.61002 56.4148 5.16906 56.4148 4.6157C56.4148 4.04505 56.5877 3.59544 56.9336 3.26689C57.2794 2.93833 57.7377 2.77405 58.3083 2.77405ZM56.8039 22.1243V8.45463H59.7609V22.1243H56.8039Z" fill="#0B101B"/>
<path d="M83.2624 8.22118C84.3518 8.22118 85.3115 8.39411 86.1416 8.73996C86.9716 9.08581 87.672 9.57 88.2426 10.1925C88.8306 10.7978 89.2715 11.5327 89.5655 12.3973C89.8595 13.2619 90.0064 14.2217 90.0064 15.2765C90.0064 16.3487 89.8595 17.317 89.5655 18.1817C89.2888 19.029 88.8651 19.7639 88.2945 20.3864C87.7238 21.009 87.0149 21.4845 86.1675 21.8131C85.3375 22.1416 84.3691 22.3059 83.2624 22.3059C82.173 22.3059 81.2132 22.1416 80.3832 21.8131C79.5531 21.4672 78.8528 20.9917 78.2821 20.3864C77.7288 19.7639 77.3051 19.0203 77.0112 18.1557C76.7345 17.2911 76.5961 16.3314 76.5961 15.2765C76.5961 14.2217 76.7345 13.2619 77.0112 12.3973C77.3051 11.5327 77.7374 10.7978 78.3081 10.1925C78.8787 9.57 79.5791 9.08581 80.4091 8.73996C81.2392 8.39411 82.1903 8.22118 83.2624 8.22118ZM83.2624 19.738C83.9368 19.738 84.5074 19.6256 84.9743 19.4008C85.4585 19.1587 85.8476 18.8388 86.1416 18.441C86.4529 18.0433 86.6776 17.5764 86.816 17.0404C86.9716 16.5043 87.0494 15.925 87.0494 15.3025C87.0494 14.6799 86.9716 14.1006 86.816 13.5646C86.6776 13.0112 86.4529 12.5357 86.1416 12.1379C85.8476 11.7402 85.4585 11.4289 84.9743 11.2041C84.5074 10.9793 83.9368 10.8669 83.2624 10.8669C82.6053 10.8669 82.0433 10.9793 81.5764 11.2041C81.1095 11.4289 80.7204 11.7402 80.4091 12.1379C80.0979 12.5357 79.8644 13.0112 79.7088 13.5646C79.5704 14.1006 79.5013 14.6799 79.5013 15.3025C79.5013 15.925 79.5704 16.5043 79.7088 17.0404C79.8644 17.5764 80.0892 18.0433 80.3832 18.441C80.6944 18.8388 81.0835 19.1587 81.5504 19.4008C82.0346 19.6256 82.6053 19.738 83.2624 19.738Z" fill="#0B101B"/>
<path d="M68.241 14.0315H66.114V4.32803H63.1829V22.1243H66.114V16.5994H68.4226L72.028 22.1243H75.4519L70.783 14.9652L75.0888 8.45463H71.7687L68.241 14.0315Z" fill="#0B101B"/>
<path d="M39.4641 8.41579H35.9627V4.32803H35.058L30.8029 10.1093V10.8568H32.9879V17.6226C32.9879 19.2197 33.3477 20.3693 34.0673 21.0713C34.8044 21.7733 36.0242 22.1243 37.7266 22.1243H39.3588V19.5444H37.9898C37.2 19.5444 36.6648 19.3513 36.3839 18.9652C36.1031 18.5791 35.9627 17.9912 35.9627 17.2014V10.8568H39.4641V8.41579Z" fill="#0B101B"/>
<path d="M26.9261 20.8332L22.2131 14.43C21.7011 13.7342 20.9429 13.3174 20.1356 13.2255C19.9518 13.2041 19.7877 13.0975 19.6958 12.9367C19.6022 12.7758 19.5924 12.5806 19.6662 12.4099C19.9895 11.6649 20.0092 10.8001 19.6613 10.0091L16.4728 2.72625C16.0002 1.64482 14.9319 0.947388 13.752 0.947388C12.5721 0.947388 11.5038 1.64646 11.0312 2.72625L7.8427 10.0091C7.49644 10.8001 7.5145 11.6649 7.83778 12.4099C7.91162 12.5806 7.90014 12.7758 7.80824 12.9367C7.7147 13.0975 7.55224 13.2041 7.36844 13.2255C6.56106 13.3174 5.80292 13.7342 5.29092 14.43L0.577915 20.8332C-0.121158 21.7834 -0.191723 23.0568 0.397402 24.0792C0.988169 25.0999 2.12703 25.6759 3.29872 25.5462L11.2002 24.6667C12.0585 24.5715 12.7986 24.1235 13.281 23.4704C13.391 23.321 13.5666 23.2324 13.752 23.2324C13.9374 23.2324 14.1114 23.321 14.223 23.4704C14.7054 24.1235 15.4455 24.5715 16.3038 24.6667L24.2053 25.5462C25.377 25.6775 26.5158 25.1015 27.1066 24.0792C27.6957 23.0568 27.6252 21.7834 26.9261 20.8332ZM9.90382 10.9231L13.0972 3.63209C13.2121 3.37117 13.4697 3.20214 13.7536 3.20214C14.0375 3.20214 14.2952 3.37117 14.4101 3.63209L17.6035 10.9231C17.7036 11.1529 17.6822 11.4187 17.5444 11.6288C17.4066 11.8388 17.1735 11.9652 16.9208 11.9652H10.5848C10.3338 11.9652 10.0991 11.8388 9.96125 11.6288C9.82341 11.4187 9.80207 11.1529 9.90217 10.9231H9.90382ZM11.5432 22.023C11.43 22.2478 11.2101 22.3988 10.9606 22.4267L3.05092 23.3063C2.76867 23.3374 2.49298 23.1996 2.35021 22.9534C2.20744 22.7073 2.22549 22.4004 2.39452 22.1707L7.11244 15.7609C7.26178 15.559 7.50137 15.4441 7.75244 15.4589C8.00352 15.472 8.22998 15.6115 8.35634 15.8298L8.36126 15.838L11.5202 21.3091L11.5251 21.3173C11.6515 21.5356 11.6581 21.8014 11.5448 22.0246L11.5432 22.023ZM14.4018 19.5483C14.2673 19.7797 14.0211 19.9241 13.752 19.9241C13.4845 19.9241 13.2367 19.7814 13.1022 19.55L10.6751 15.3473C10.5405 15.1159 10.5405 14.8288 10.6751 14.5974C10.8097 14.366 11.0558 14.2216 11.3249 14.2216H16.1774C16.4449 14.2216 16.6927 14.3627 16.8273 14.5957C16.9618 14.8288 16.9618 15.1143 16.8273 15.3457L14.4018 19.5483ZM25.1554 22.9534C25.0127 23.1996 24.7386 23.3391 24.4547 23.3079L16.545 22.4283C16.2956 22.4004 16.0757 22.2494 15.9625 22.0246C15.8492 21.7998 15.8558 21.534 15.9821 21.3173L15.9871 21.3091L19.146 15.838L19.151 15.8298C19.2773 15.6115 19.5038 15.472 19.7548 15.4589C20.0059 15.4458 20.2455 15.559 20.3948 15.7609L25.1128 22.1707C25.2818 22.4004 25.2982 22.7073 25.1571 22.9534H25.1554Z" fill="#E81899"/>
</svg>
