<svg width="16" height="14" viewBox="0 0 16 14" fill="none" xmlns="http://www.w3.org/2000/svg">
<path d="M14.2437 0.100708L8.43591 4.41423L9.50992 1.86931L14.2437 0.100708Z" fill="#E2761B"/>
<path fill-rule="evenodd" clip-rule="evenodd" d="M14.3322 0.0526074C14.3562 0.0966806 14.3441 0.151678 14.3038 0.181592L8.49599 4.49512C8.45952 4.5222 8.40945 4.52152 8.37373 4.49348C8.33801 4.46543 8.32548 4.41694 8.34314 4.3751L9.41714 1.83018C9.42791 1.80465 9.44873 1.78469 9.47468 1.77499L14.2085 0.00638492C14.2555 -0.0111743 14.3082 0.00853418 14.3322 0.0526074ZM9.58585 1.94849L8.67228 4.11326L13.6125 0.444083L9.58585 1.94849Z" fill="#E2761B"/>
<path d="M0.836149 0.100708L6.59724 4.45509L5.57577 1.86931L0.836149 0.100708ZM12.154 10.0994L10.6072 12.4693L13.9168 13.3798L14.8682 10.152L12.154 10.0994ZM0.223267 10.152L1.16886 13.3798L4.47842 12.4693L2.93162 10.0994L0.223267 10.152Z" fill="#E4761B"/>
<path fill-rule="evenodd" clip-rule="evenodd" d="M0.747877 0.0522538C0.771946 0.00842432 0.824526 -0.011111 0.871374 0.00637041L5.611 1.77497C5.63773 1.78495 5.65898 1.80579 5.66946 1.83233L6.69093 4.41811C6.70752 4.4601 6.69414 4.50799 6.6582 4.5353C6.62226 4.56262 6.57254 4.56269 6.53652 4.53547L0.77543 0.181085C0.73554 0.150935 0.723809 0.0960833 0.747877 0.0522538ZM1.44701 0.436179L6.37176 4.15843L5.49858 1.94803L1.44701 0.436179ZM2.92968 9.99877C2.96439 9.9981 2.997 10.0153 3.01598 10.0444L4.56278 12.4142C4.58036 12.4412 4.58402 12.4749 4.57262 12.505C4.56123 12.535 4.53616 12.5579 4.50515 12.5664L1.19559 13.477C1.14258 13.4915 1.08767 13.4609 1.07221 13.4082L0.126622 10.1803C0.1178 10.1502 0.123517 10.1177 0.142086 10.0924C0.160655 10.0671 0.189952 10.0519 0.221326 10.0513L2.92968 9.99877ZM12.0697 10.0444C12.0887 10.0153 12.1213 9.9981 12.156 9.99877L14.8702 10.0513C14.9016 10.0519 14.9309 10.0671 14.9495 10.0925C14.9681 10.1178 14.9737 10.1504 14.9649 10.1805L14.0134 13.4083C13.9979 13.461 13.943 13.4915 13.8901 13.477L10.5805 12.5664C10.5495 12.5579 10.5245 12.535 10.5131 12.505C10.5017 12.4749 10.5053 12.4412 10.5229 12.4142L12.0697 10.0444ZM0.356983 10.2501L1.23767 13.2565L4.31867 12.4088L2.87779 10.2013L0.356983 10.2501ZM12.2079 10.2013L10.767 12.4088L13.8482 13.2565L14.7343 10.2501L12.2079 10.2013Z" fill="#E4761B"/>
<path d="M4.29163 6.09529L3.36938 7.49033L6.6556 7.63625L6.53886 4.10488L4.29163 6.09529ZM10.7882 6.09529L8.51176 4.06403L8.43588 7.63625L11.7163 7.49033L10.7882 6.09529ZM4.47841 12.4693L6.45131 11.5062L4.74691 10.1753L4.47841 12.4693ZM8.6285 11.5062L10.6072 12.4693L10.3329 10.1753L8.6285 11.5062Z" fill="#E4761B"/>
<path fill-rule="evenodd" clip-rule="evenodd" d="M8.47158 3.97169C8.50762 3.956 8.5495 3.96272 8.57883 3.98889L10.8552 6.02015C10.8616 6.02587 10.8673 6.03237 10.872 6.03952L11.8001 7.43456C11.8202 7.4648 11.8225 7.50353 11.8061 7.53593C11.7896 7.56832 11.757 7.58935 11.7207 7.59096L8.44037 7.73689C8.41253 7.73813 8.38543 7.72778 8.3655 7.70831C8.34557 7.68884 8.3346 7.66198 8.33519 7.63413L8.41107 4.0619C8.41191 4.0226 8.43553 3.98738 8.47158 3.97169ZM8.60782 4.28474L8.53887 7.53087L11.5336 7.39765L10.7115 6.16185L8.60782 4.28474ZM6.57869 4.01238C6.61454 4.02781 6.63825 4.06256 6.63954 4.10157L6.75628 7.63294C6.75721 7.66099 6.74639 7.68816 6.72643 7.70789C6.70647 7.72762 6.67918 7.73813 6.65115 7.73689L3.36493 7.59096C3.32869 7.58936 3.29612 7.56838 3.27965 7.53606C3.26319 7.50374 3.26537 7.46506 3.28538 7.4348L4.20762 6.03976C4.21247 6.03242 4.21827 6.02574 4.22486 6.01991L6.47209 4.0295C6.50131 4.00362 6.54284 3.99695 6.57869 4.01238ZM4.36835 6.16191L3.55144 7.39761L6.55135 7.53082L6.44529 4.32234L4.36835 6.16191ZM4.7081 10.0824C4.74169 10.0684 4.78022 10.0736 4.80891 10.096L6.51331 11.4268C6.54068 11.4482 6.55511 11.4821 6.55149 11.5167C6.54787 11.5512 6.52671 11.5815 6.4955 11.5967L4.52261 12.5598C4.48951 12.576 4.45023 12.5728 4.42018 12.5515C4.39013 12.5302 4.3741 12.4942 4.37838 12.4576L4.64689 10.1636C4.65112 10.1275 4.67452 10.0964 4.7081 10.0824ZM10.3716 10.0824C10.4052 10.0963 10.4286 10.1273 10.4329 10.1634L10.7073 12.4573C10.7116 12.4939 10.6957 12.53 10.6656 12.5513C10.6356 12.5727 10.5963 12.576 10.5632 12.5598L8.58443 11.5967C8.55318 11.5815 8.53199 11.5513 8.52834 11.5167C8.5247 11.4822 8.53913 11.4482 8.56652 11.4268L10.2709 10.096C10.2996 10.0736 10.3381 10.0684 10.3716 10.0824ZM4.82613 10.365L4.59989 12.2979L6.2623 11.4864L4.82613 10.365ZM8.8177 11.4862L10.4853 12.2979L10.2541 10.3647L8.8177 11.4862Z" fill="#E4761B"/>
<path d="M10.6073 12.4693L8.6286 11.5062L8.7862 12.7961L8.76869 13.339L10.6073 12.4693ZM4.47852 12.4693L6.31716 13.339L6.30549 12.7961L6.45141 11.5062L4.47852 12.4693Z" fill="#D7C1B3"/>
<path fill-rule="evenodd" clip-rule="evenodd" d="M8.57012 11.4242C8.60016 11.4028 8.63951 11.3995 8.67269 11.4156L10.6514 12.3787C10.6863 12.3957 10.7083 12.4311 10.7081 12.4698C10.7079 12.5086 10.6854 12.5438 10.6504 12.5603L8.81177 13.43C8.78005 13.445 8.7428 13.4425 8.71345 13.4232C8.68411 13.404 8.6669 13.3708 8.66804 13.3357L8.6853 12.8007L8.52864 11.5184C8.52416 11.4818 8.54008 11.4456 8.57012 11.4242ZM6.50951 11.4239C6.53954 11.4451 6.55564 11.481 6.55151 11.5175L6.40634 12.8007L6.41787 13.3368C6.41862 13.3717 6.40125 13.4045 6.37197 13.4235C6.34268 13.4425 6.30566 13.445 6.27411 13.43L4.43546 12.5603C4.40046 12.5438 4.37805 12.5086 4.37781 12.4699C4.37757 12.4312 4.39955 12.3958 4.43434 12.3788L6.40724 11.4157C6.44028 11.3995 6.47947 11.4027 6.50951 11.4239ZM8.75105 11.6778L8.88619 12.7839C8.88682 12.7891 8.88705 12.7942 8.88688 12.7994L8.87469 13.1774L10.3745 12.468L8.75105 11.6778ZM4.71105 12.4678L6.21298 13.1783L6.2048 12.7983C6.20471 12.7938 6.20491 12.7893 6.20542 12.7848L6.33072 11.6772L4.71105 12.4678Z" fill="#D7C1B3"/>
<path d="M6.34634 9.32313L4.70032 8.83866L5.86188 8.3075L6.34634 9.32313ZM8.73367 9.32313L9.21814 8.3075L10.3855 8.83866L8.73367 9.32313Z" fill="#233447"/>
<path fill-rule="evenodd" clip-rule="evenodd" d="M5.82 8.21593C5.87001 8.19306 5.92912 8.21453 5.9528 8.26417L6.43726 9.2798C6.45438 9.31567 6.44879 9.35826 6.423 9.38851C6.39722 9.41875 6.35605 9.43101 6.31792 9.41978L4.67189 8.93532C4.63157 8.92345 4.60286 8.88779 4.59987 8.84587C4.59687 8.80395 4.62022 8.76458 4.65844 8.7471L5.82 8.21593ZM9.12724 8.26417C9.15089 8.2146 9.20988 8.19311 9.25986 8.21585L10.4273 8.74702C10.4656 8.76445 10.489 8.80385 10.486 8.84582C10.483 8.8878 10.4543 8.9235 10.4139 8.93534L8.76203 9.41981C8.7239 9.43099 8.68276 9.41872 8.657 9.38847C8.63124 9.35822 8.62567 9.31566 8.64277 9.2798L9.12724 8.26417ZM9.26647 8.44017L8.92163 9.16308L10.0974 8.81824L9.26647 8.44017ZM4.98737 8.81819L6.15828 9.16281L5.81365 8.44034L4.98737 8.81819Z" fill="#233447"/>
<path d="M4.47844 12.4693L4.75861 10.0995L2.93164 10.152L4.47844 12.4693ZM10.3271 10.0995L10.6073 12.4693L12.1541 10.152L10.3271 10.0995ZM11.7163 7.49036L8.43591 7.63628L8.73943 9.32317L9.2239 8.30753L10.3913 8.8387L11.7163 7.49036ZM4.70024 8.8387L5.86764 8.30753L6.34627 9.32317L6.65563 7.63628L3.36941 7.49036L4.70024 8.8387Z" fill="#CD6116"/>
<path fill-rule="evenodd" clip-rule="evenodd" d="M3.27738 7.44947C3.29421 7.41161 3.3325 7.38791 3.37389 7.38975L6.66011 7.53567C6.68919 7.53696 6.71629 7.55078 6.73443 7.57355C6.75257 7.59632 6.75996 7.62583 6.75471 7.65446L6.44535 9.34135C6.43746 9.38438 6.40268 9.4174 6.35929 9.42305C6.3159 9.42871 6.27383 9.4057 6.25517 9.36611L5.81891 8.44038L4.74197 8.93039C4.70352 8.94788 4.65824 8.93952 4.62857 8.90946L3.29774 7.56112C3.26864 7.53163 3.26056 7.48733 3.27738 7.44947ZM11.8083 7.44936C11.8251 7.48717 11.8171 7.53144 11.7881 7.56096L10.4631 8.9093C10.4335 8.93949 10.3881 8.94791 10.3496 8.93039L9.27223 8.44019L8.83035 9.36654C8.81152 9.40601 8.76937 9.42882 8.72603 9.423C8.68269 9.41718 8.64806 9.38405 8.64031 9.34101L8.33679 7.65413C8.33165 7.62554 8.3391 7.59612 8.35723 7.57342C8.37537 7.55072 8.40242 7.53696 8.43144 7.53567L11.7118 7.38975C11.7532 7.38791 11.7914 7.41156 11.8083 7.44936ZM3.6215 7.60238L4.72254 8.71791L5.82594 8.21587C5.87609 8.19305 5.93527 8.21477 5.95876 8.26461L6.30376 8.99668L6.53573 7.73179L3.6215 7.60238ZM8.55544 7.7318L8.78319 8.99753L9.133 8.26418C9.15665 8.21462 9.21564 8.19313 9.26562 8.21587L10.3689 8.71784L11.465 7.60237L8.55544 7.7318ZM4.83294 10.0315C4.8527 10.0531 4.86209 10.0822 4.85865 10.1113L4.57847 12.4811C4.57352 12.523 4.54297 12.5574 4.50195 12.5672C4.46092 12.5771 4.4181 12.5603 4.39468 12.5252L2.84788 10.2079C2.82754 10.1775 2.82535 10.1384 2.84216 10.1058C2.85897 10.0733 2.89214 10.0524 2.92876 10.0514L4.75573 9.99882C4.785 9.99798 4.81318 10.0099 4.83294 10.0315ZM10.2528 10.0315C10.2725 10.0099 10.3007 9.99798 10.33 9.99882L12.157 10.0514C12.1936 10.0524 12.2267 10.0733 12.2436 10.1058C12.2604 10.1384 12.2582 10.1775 12.2378 10.2079L10.691 12.5252C10.6676 12.5603 10.6248 12.5771 10.5838 12.5672C10.5427 12.5574 10.5122 12.523 10.5072 12.4811L10.2271 10.1113C10.2236 10.0822 10.233 10.0531 10.2528 10.0315ZM3.11646 10.2475L4.41051 12.1861L4.6449 10.2035L3.11646 10.2475ZM10.4408 10.2035L10.6752 12.1861L11.9693 10.2475L10.4408 10.2035Z" fill="#CD6116"/>
<path d="M3.36938 7.49036L4.74691 10.1754L4.70021 8.8387L3.36938 7.49036ZM10.3913 8.8387L10.3329 10.1754L11.7163 7.49036L10.3913 8.8387ZM6.6556 7.63628L6.34624 9.32317L6.73148 11.3136L6.81904 8.69277L6.6556 7.63628ZM8.43588 7.63628L8.27828 8.68694L8.34832 11.3136L8.7394 9.32317L8.43588 7.63628Z" fill="#E4751F"/>
<path fill-rule="evenodd" clip-rule="evenodd" d="M11.7753 7.40876C11.8157 7.43794 11.8286 7.49223 11.8058 7.5365L10.4225 10.2215C10.4008 10.2636 10.3528 10.2849 10.3071 10.2727C10.2613 10.2606 10.2302 10.2182 10.2323 10.171L10.2907 8.83432C10.2917 8.80945 10.302 8.78587 10.3194 8.76812L11.6444 7.41977C11.6793 7.38426 11.735 7.37958 11.7753 7.40876ZM3.31036 7.40877C3.35064 7.37962 3.40616 7.38423 3.44109 7.41962L4.77192 8.76796C4.78967 8.78594 4.80001 8.80994 4.80089 8.83519L4.84759 10.1719C4.84924 10.219 4.81794 10.261 4.77229 10.2729C4.72663 10.2847 4.67885 10.2633 4.65732 10.2214L3.27979 7.53635C3.25709 7.49211 3.27008 7.43792 3.31036 7.40877ZM3.75833 8.02779L4.63051 9.72782L4.60095 8.8815L3.75833 8.02779ZM10.4902 8.88173L10.4536 9.72131L11.3225 8.03482L10.4902 8.88173ZM8.43443 7.53558C8.48373 7.53487 8.5263 7.56994 8.53503 7.61846L8.83855 9.30534C8.84077 9.31767 8.84067 9.33031 8.83825 9.3426L8.44717 11.333C8.43728 11.3834 8.39108 11.4182 8.33993 11.414C8.28877 11.4097 8.24903 11.3676 8.24766 11.3163L8.17762 8.68963C8.17746 8.68374 8.17782 8.67784 8.17869 8.67201L8.33629 7.62135C8.34361 7.5726 8.38514 7.5363 8.43443 7.53558ZM6.65703 7.53558C6.70617 7.53627 6.74764 7.57232 6.75516 7.6209L6.91859 8.67739C6.91955 8.68359 6.91993 8.68987 6.91972 8.69615L6.83217 11.317C6.83045 11.3682 6.79054 11.41 6.73944 11.414C6.68834 11.418 6.64236 11.3831 6.63262 11.3327L6.24738 9.34232C6.24499 9.33 6.24493 9.31735 6.24719 9.30501L6.55655 7.61813C6.56542 7.56978 6.60788 7.5349 6.65703 7.53558ZM6.44875 9.32268L6.66066 10.4175L6.71808 8.69885L6.64719 8.24063L6.44875 9.32268ZM8.44491 8.25516L8.37922 8.69313L8.42479 10.4021L8.63694 9.32236L8.44491 8.25516Z" fill="#E4751F"/>
<path d="M8.7395 9.32315L8.34843 11.3136L8.6286 11.5062L10.333 10.1754L10.3914 8.83868L8.7395 9.32315ZM4.70032 8.83868L4.74701 10.1754L6.45141 11.5062L6.73158 11.3136L6.34634 9.32315L4.70032 8.83868Z" fill="#F6851B"/>
<path fill-rule="evenodd" clip-rule="evenodd" d="M10.4535 8.75941C10.4791 8.77946 10.4934 8.81062 10.492 8.84309L10.4336 10.1798C10.4323 10.2092 10.4182 10.2366 10.395 10.2548L8.6906 11.5856C8.65596 11.6126 8.60777 11.6141 8.57155 11.5892L8.29138 11.3966C8.25828 11.3738 8.24186 11.3336 8.24961 11.2942L8.64069 9.30375C8.64793 9.26687 8.67511 9.23709 8.71117 9.22652L10.363 8.74205C10.3942 8.7329 10.4279 8.73937 10.4535 8.75941ZM4.6386 8.75911C4.66417 8.73928 4.69772 8.73294 4.72877 8.74208L6.37479 9.22654C6.41091 9.23717 6.43809 9.26706 6.44524 9.30403L6.83048 11.2944C6.83809 11.3338 6.82167 11.3739 6.78866 11.3966L6.50848 11.5892C6.47226 11.6141 6.42408 11.6126 6.38944 11.5856L4.68504 10.2548C4.66157 10.2364 4.64741 10.2086 4.64637 10.1789L4.59967 8.84221C4.59854 8.80987 4.61302 8.77895 4.6386 8.75911ZM8.82655 9.4026L8.46003 11.2681L8.62483 11.3814L10.2344 10.1246L10.2846 8.97497L8.82655 9.4026ZM4.80586 8.97475L6.25912 9.40248L6.62018 11.2679L6.45521 11.3814L4.84604 10.1249L4.80586 8.97475Z" fill="#F6851B"/>
<path d="M8.76869 13.339L8.7862 12.7962L8.64028 12.6678H6.43974L6.30549 12.7962L6.31716 13.339L4.47852 12.4693L5.12058 12.9946L6.42223 13.8994H8.65779L9.96527 12.9946L10.6073 12.4693L8.76869 13.339Z" fill="#C0AD9E"/>
<path fill-rule="evenodd" clip-rule="evenodd" d="M4.3934 12.4154C4.42059 12.3724 4.4756 12.3565 4.5216 12.3782L6.21298 13.1783L6.20481 12.7983C6.2042 12.7701 6.21548 12.7429 6.23589 12.7233L6.37014 12.5949C6.38888 12.577 6.41382 12.567 6.43976 12.567H8.6403C8.66479 12.567 8.68845 12.5759 8.70683 12.5921L8.85276 12.7205C8.87534 12.7404 8.88786 12.7693 8.88689 12.7994L8.87469 13.1774L10.5643 12.3782C10.6103 12.3565 10.6653 12.3724 10.6925 12.4154C10.7197 12.4585 10.7105 12.515 10.6711 12.5472L10.0291 13.0725C10.027 13.0743 10.0248 13.0759 10.0226 13.0774L8.71512 13.9821C8.69828 13.9938 8.67828 14 8.65781 14H6.42225C6.40169 14 6.38164 13.9938 6.36476 13.982L5.06311 13.0773C5.06096 13.0758 5.05886 13.0742 5.05682 13.0725L4.41475 12.5472C4.37537 12.515 4.36621 12.4585 4.3934 12.4154ZM5.17836 12.9117L5.18132 12.9141L6.45381 13.7986H8.62636L9.90465 12.9141L9.90753 12.9117L8.81178 13.43C8.78005 13.445 8.7428 13.4424 8.71346 13.4232C8.68412 13.4039 8.66691 13.3708 8.66804 13.3357L8.68402 12.8404L8.60229 12.7684H6.48017L6.40716 12.8383L6.41788 13.3368C6.41863 13.3717 6.40126 13.4045 6.37197 13.4235C6.34269 13.4425 6.30566 13.4449 6.27411 13.43L5.17836 12.9117Z" fill="#C0AD9E"/>
<path d="M8.62853 11.5062L8.34836 11.3135H6.73152L6.45134 11.5062L6.30542 12.7961L6.43967 12.6677H8.64021L8.78613 12.7961L8.62853 11.5062Z" fill="#161616"/>
<path fill-rule="evenodd" clip-rule="evenodd" d="M6.67447 11.2306C6.69126 11.219 6.71116 11.2128 6.73153 11.2128H8.34838C8.36875 11.2128 8.38865 11.219 8.40544 11.2306L8.68561 11.4232C8.7094 11.4395 8.72503 11.4653 8.72853 11.494L8.88613 12.7839C8.89119 12.8254 8.87011 12.8657 8.83314 12.8852C8.79616 12.9047 8.75099 12.8994 8.71961 12.8718L8.60222 12.7684H6.4801L6.37505 12.8689C6.34441 12.8982 6.2987 12.9052 6.26071 12.8864C6.22272 12.8676 6.20059 12.827 6.20535 12.7848L6.35128 11.4948C6.35456 11.4659 6.37025 11.4397 6.3943 11.4232L6.67447 11.2306ZM6.76282 11.4143L6.54628 11.5631L6.43269 12.5673C6.43501 12.5671 6.43734 12.567 6.43968 12.567H8.64022C8.64583 12.567 8.65139 12.5675 8.65686 12.5684L8.53408 11.5634L8.31709 11.4143H6.76282Z" fill="#161616"/>
<path d="M14.4888 4.69441L14.985 2.31292L14.2437 0.100708L8.62853 4.26831L10.7882 6.09528L13.8409 6.98834L14.518 6.20035L14.2262 5.99021L14.6931 5.56412L14.3312 5.28394L14.7982 4.92789L14.4888 4.69441ZM0.100708 2.31292L0.596851 4.69441L0.281654 4.92789L0.748612 5.28394L0.392557 5.56412L0.859515 5.99021L0.567666 6.20035L1.23892 6.98834L4.29166 6.09528L6.45134 4.26831L0.836167 0.100708L0.100708 2.31292Z" fill="#763D16"/>
<path fill-rule="evenodd" clip-rule="evenodd" d="M0.805869 0.00466972C0.836672 -0.0050507 0.870269 0.00059231 0.896206 0.0198431L6.51137 4.18744C6.53607 4.20577 6.55104 4.23438 6.55202 4.26512C6.55299 4.29585 6.53988 4.32535 6.5164 4.34522L4.35672 6.17219C4.34598 6.18128 4.33345 6.18801 4.31995 6.19196L1.26721 7.08502C1.2291 7.09617 1.188 7.08389 1.16226 7.05366L0.491005 6.26567C0.472759 6.24425 0.464304 6.21618 0.467689 6.18824C0.471075 6.16031 0.485991 6.13506 0.508827 6.11862L0.699979 5.98099L0.324678 5.63853C0.302818 5.61858 0.290836 5.59003 0.291916 5.56045C0.292995 5.53088 0.307027 5.50328 0.330284 5.48498L0.584157 5.28521L0.220595 5.00799C0.195414 4.98879 0.180729 4.95886 0.180949 4.9272C0.181169 4.89553 0.196269 4.86581 0.221715 4.84696L0.485113 4.65185L0.0021171 2.33348C-0.00150801 2.31608 -0.000463893 2.29803 0.00514343 2.28116L0.740602 0.0689459C0.750792 0.0382946 0.775065 0.0143902 0.805869 0.00466972ZM14.2739 0.00463382C14.3047 0.014305 14.329 0.038132 14.3392 0.0687191L15.0805 2.28093C15.0862 2.29786 15.0872 2.316 15.0836 2.33348L14.6005 4.65248L14.8589 4.8475C14.884 4.86649 14.8989 4.89614 14.8989 4.92765C14.899 4.95916 14.8843 4.98889 14.8593 5.00799L14.4966 5.28456L14.7548 5.48449C14.7783 5.50269 14.7926 5.53035 14.7938 5.56006C14.795 5.58977 14.783 5.61849 14.761 5.63853L14.3857 5.98099L14.5769 6.11862C14.5998 6.13511 14.6147 6.16044 14.6181 6.18845C14.6214 6.21647 14.6128 6.2446 14.5944 6.266L13.9173 7.05399C13.8916 7.08399 13.8506 7.09612 13.8127 7.08502L10.7599 6.19196C10.7464 6.18801 10.7339 6.18128 10.7232 6.17219L8.56349 4.34522C8.54001 4.32535 8.52689 4.29585 8.52787 4.26512C8.52885 4.23438 8.54382 4.20577 8.56851 4.18744L14.1837 0.0198431C14.2096 0.000617428 14.2431 -0.00503741 14.2739 0.00463382ZM8.79058 4.27348L10.837 6.00462L13.8069 6.87344L14.3701 6.21796L14.1673 6.07196C14.1427 6.05423 14.1274 6.02634 14.1256 5.99605C14.1239 5.96575 14.1359 5.93628 14.1583 5.91583L14.5368 5.57045L14.2696 5.3636C14.2449 5.34444 14.2304 5.31487 14.2305 5.28358C14.2307 5.25229 14.2453 5.22283 14.2702 5.20386L14.6316 4.92831L14.4282 4.77481C14.3971 4.75134 14.3823 4.71203 14.3903 4.67388L14.8808 2.31908L14.1923 0.264306L8.79058 4.27348ZM0.887865 0.264513L0.204857 2.31896L0.695465 4.67388C0.70348 4.71235 0.68839 4.75196 0.656814 4.77535L0.449305 4.92906L0.809695 5.20386C0.834466 5.22275 0.849103 5.25204 0.849341 5.28319C0.849578 5.31434 0.835389 5.34384 0.810908 5.36311L0.548221 5.56981L0.927416 5.91583C0.949833 5.93628 0.961832 5.96575 0.960078 5.99605C0.958324 6.02634 0.943004 6.05423 0.918377 6.07196L0.715219 6.21824L1.27328 6.87336L4.24291 6.00462L6.2893 4.27348L0.887865 0.264513Z" fill="#763D16"/>
<path d="M13.8409 6.98835L10.7882 6.09529L11.7163 7.49033L10.3329 10.1753L12.154 10.152H14.8682L13.8409 6.98835ZM4.29164 6.09529L1.2389 6.98835L0.223267 10.152H2.93162L4.74692 10.1753L3.3694 7.49033L4.29164 6.09529ZM8.43589 7.63625L8.62851 4.26832L9.51573 1.86932H5.57577L6.45132 4.26832L6.65561 7.63625L6.72565 8.69858L6.73149 11.3135H8.34833L8.36001 8.69858L8.43589 7.63625Z" fill="#F6851B"/>
<path fill-rule="evenodd" clip-rule="evenodd" d="M5.49325 1.8116C5.5121 1.78466 5.54291 1.76862 5.57578 1.76862H9.51574C9.5487 1.76862 9.57956 1.78474 9.5984 1.81178C9.61723 1.83882 9.62164 1.87336 9.61021 1.90427L8.72822 4.28913L8.53638 7.64344L8.46072 8.70241L8.44907 11.314C8.44882 11.3695 8.4038 11.4143 8.34835 11.4143H6.7315C6.67597 11.4143 6.63091 11.3693 6.63078 11.3138L6.62496 8.70203L6.55512 7.64289L6.55509 7.64236L6.35168 4.28908L5.48117 1.90387C5.4699 1.87298 5.47441 1.83854 5.49325 1.8116ZM5.71976 1.97006L6.54595 4.2338C6.54928 4.24294 6.55128 4.25252 6.55187 4.26223L6.75613 7.62964L6.75616 7.63017L6.82617 8.69197C6.82631 8.6941 6.82638 8.69623 6.82639 8.69837L6.832 11.2128H8.24808L8.2593 8.69815C8.25931 8.6959 8.2594 8.69366 8.25956 8.69142L8.33535 7.63051L8.33544 7.62909L8.52797 4.26258C8.52854 4.2526 8.53059 4.24277 8.53405 4.2334L9.37111 1.97006H5.71976ZM10.7071 6.03563C10.7321 6.00153 10.7759 5.98675 10.8165 5.99864L13.8692 6.89169C13.9012 6.90104 13.9265 6.92558 13.9367 6.95725L14.964 10.1209C14.974 10.1516 14.9687 10.1851 14.9497 10.2112C14.9308 10.2373 14.9005 10.2527 14.8682 10.2527H12.1541L10.3342 10.2761C10.2989 10.2765 10.2659 10.2584 10.2473 10.2283C10.2287 10.1983 10.2272 10.1606 10.2434 10.1292L11.5996 7.49684L10.7043 6.15109C10.6809 6.11585 10.682 6.06972 10.7071 6.03563ZM4.3727 6.03551C4.39779 6.06952 4.39898 6.11559 4.37567 6.15085L3.4859 7.49676L4.83655 10.1294C4.85267 10.1608 4.85115 10.1984 4.83255 10.2284C4.81394 10.2584 4.78096 10.2765 4.74564 10.2761L2.93163 10.2527H0.223279C0.191101 10.2527 0.160859 10.2373 0.141899 10.2113C0.12294 10.1853 0.117544 10.1519 0.12738 10.1212L1.14301 6.95757C1.15323 6.92576 1.17856 6.90108 1.21063 6.89169L4.26337 5.99864C4.30394 5.98677 4.3476 6.00149 4.3727 6.03551ZM1.31848 7.07003L0.361396 10.0513H2.93293L4.58096 10.0725L3.27979 7.53632C3.26319 7.50395 3.26533 7.46514 3.28539 7.4348L4.05595 6.2692L1.31848 7.07003ZM11.0251 6.26955L11.8001 7.43455C11.8204 7.46498 11.8226 7.50398 11.8058 7.53647L10.4992 10.0725L12.1541 10.0513L14.7296 10.0513L13.7616 7.07009L11.0251 6.26955Z" fill="#F6851B"/>
</svg>
