<svg width="473" height="473" viewBox="0 0 473 473" fill="none" xmlns="http://www.w3.org/2000/svg">
<rect width="473" height="473" rx="20" fill="#0B101B"/>
<g clip-path="url(#clip0_65_758)">
<ellipse opacity="0.1" cx="177.975" cy="177.975" rx="177.975" ry="177.975" transform="matrix(1 -8.74228e-08 -8.74228e-08 -1 56.4839 413.4)" fill="#FF6FC8"/>
<ellipse opacity="0.2" cx="144.717" cy="144.56" rx="144.717" ry="144.56" transform="matrix(1 -8.74228e-08 -8.74228e-08 -1 89.7402 379.987)" fill="#FF6FC8"/>
<path fill-rule="evenodd" clip-rule="evenodd" d="M234.459 126.971C174.562 126.971 126.005 175.528 126.005 235.425C126.005 295.322 174.562 343.878 234.459 343.878C294.356 343.878 342.912 295.322 342.912 235.425C342.912 175.528 294.356 126.971 234.459 126.971ZM205.26 193.712C199.246 193.712 196.047 198.371 194.848 200.767C193.401 203.663 192.746 207.079 192.746 210.397C192.746 213.715 193.401 217.132 194.848 220.027C196.047 222.424 199.246 227.082 205.26 227.082C211.274 227.082 214.473 222.424 215.671 220.027C217.119 217.132 217.774 213.715 217.774 210.397C217.774 207.079 217.119 203.663 215.671 200.767C214.473 198.371 211.274 193.712 205.26 193.712ZM253.247 200.767C254.445 198.371 257.644 193.712 263.658 193.712C269.672 193.712 272.871 198.371 274.069 200.767C275.517 203.663 276.172 207.079 276.172 210.397C276.172 213.715 275.517 217.132 274.069 220.027C272.871 222.424 269.672 227.082 263.658 227.082C257.644 227.082 254.445 222.424 253.247 220.027C251.799 217.132 251.144 213.715 251.144 210.397C251.144 207.079 251.799 203.663 253.247 200.767ZM204.967 289.354C201.709 292.612 196.427 292.612 193.169 289.354C189.911 286.096 189.911 280.814 193.169 277.556C204.621 266.103 219.664 260.401 234.663 260.452C249.529 260.502 264.406 266.206 275.756 277.556C279.014 280.814 279.014 286.096 275.756 289.354C272.498 292.612 267.216 292.612 263.958 289.354C255.848 281.244 245.246 277.173 234.606 277.137C223.87 277.1 213.15 281.171 204.967 289.354Z" fill="#FF6FC8"/>
</g>
<path d="M68.0138 29.9402V21.931H96.046V29.9402H68.0138ZM60.0046 45.9586V29.9402H68.0138V45.9586H60.0046ZM68.0138 53.9678V45.9586H92.0414V53.9678H68.0138ZM92.0414 73.9908V53.9678H100.051V73.9908H92.0414ZM64.0092 82V73.9908H92.0414V82H64.0092ZM114.436 29.9402V21.931H138.464V29.9402H114.436ZM106.427 73.9908V29.9402H114.436V73.9908H106.427ZM138.464 73.9908V29.9402H146.473V73.9908H138.464ZM114.436 82V73.9908H138.464V82H114.436ZM152.849 82V21.931H184.886V29.9402H160.858V45.9586H184.886V53.9678H160.858V82H152.849ZM184.886 45.9586V29.9402H192.895V45.9586H184.886ZM184.886 82V53.9678H192.895V82H184.886ZM199.271 82V21.931H231.308V29.9402H207.28V45.9586H231.308V53.9678H207.28V82H199.271ZM231.308 45.9586V29.9402H239.317V45.9586H231.308ZM231.308 82V53.9678H239.317V82H231.308ZM245.693 82V21.931H277.73V29.9402H253.702V45.9586H277.73V53.9678H253.702V82H245.693ZM277.73 45.9586V29.9402H285.739V45.9586H277.73ZM277.73 82V53.9678H285.739V82H277.73ZM292.115 82V21.931H324.152V29.9402H300.124V45.9586H324.152V53.9678H300.124V82H292.115ZM324.152 45.9586V29.9402H332.161V45.9586H324.152ZM324.152 82V53.9678H332.161V82H324.152ZM338.537 82V21.931H370.574V29.9402H346.546V45.9586H370.574V53.9678H346.546V82H338.537ZM370.574 45.9586V29.9402H378.583V45.9586H370.574ZM370.574 82V53.9678H378.583V82H370.574ZM384.959 45.9586V21.931H392.968V45.9586H384.959ZM416.996 45.9586V21.931H425.005V45.9586H416.996ZM400.978 82V53.9678H392.968V45.9586H416.996V53.9678H408.987V82H400.978Z" fill="white"/>
<path d="M81.0207 444V391.94H65.0023V383.931H105.048V391.94H89.0299V444H81.0207ZM117.447 391.94V383.931H141.475V391.94H117.447ZM109.438 435.991V391.94H117.447V435.991H109.438ZM141.475 435.991V391.94H149.484V435.991H141.475ZM117.447 444V435.991H141.475V444H117.447ZM163.869 391.94V383.931H187.897V391.94H163.869ZM155.86 435.991V391.94H163.869V435.991H155.86ZM187.897 435.991V391.94H195.906V435.991H187.897ZM163.869 444V435.991H187.897V444H163.869ZM228.681 444V383.931H260.718V391.94H236.69V407.959H260.718V415.968H236.69V435.991H260.718V444H228.681ZM260.718 407.959V391.94H268.727V407.959H260.718ZM260.718 435.991V415.968H268.727V435.991H260.718ZM283.112 391.94V383.931H307.14V391.94H283.112ZM275.103 444V391.94H283.112V415.968H307.14V391.94H315.149V444H307.14V423.977H283.112V444H275.103ZM321.525 444V383.931H353.562V391.94H329.534V435.991H353.562V444H321.525ZM353.562 435.991V391.94H361.571V435.991H353.562ZM367.947 427.982V383.931H375.956V427.982H367.947ZM367.947 444V435.991H375.956V444H367.947ZM382.379 427.982V383.931H390.389V427.982H382.379ZM382.379 444V435.991H390.389V444H382.379ZM396.812 427.982V383.931H404.821V427.982H396.812ZM396.812 444V435.991H404.821V444H396.812Z" fill="white"/>
<defs>
<clipPath id="clip0_65_758">
<rect width="378" height="378" fill="white" transform="translate(47 48)"/>
</clipPath>
</defs>
</svg>
