<svg width="32" height="32" viewBox="0 0 32 32" fill="none" xmlns="http://www.w3.org/2000/svg">
<circle cx="16" cy="16" r="16" fill="url(#paint0_linear_98_574)"/>
<path d="M25.154 20.8178L21.8792 16.3684C21.5234 15.885 20.9966 15.5953 20.4356 15.5315C20.3079 15.5167 20.1939 15.4425 20.13 15.3308C20.065 15.2191 20.0582 15.0834 20.1095 14.9648C20.3341 14.4471 20.3478 13.8462 20.1061 13.2966L17.8905 8.23605C17.5621 7.48461 16.8198 7 16 7C15.1801 7 14.4378 7.48575 14.1094 8.23605L11.8939 13.2966C11.6533 13.8462 11.6658 14.4471 11.8904 14.9648C11.9418 15.0834 11.9338 15.2191 11.8699 15.3308C11.8049 15.4425 11.692 15.5167 11.5643 15.5315C11.0033 15.5953 10.4765 15.885 10.1208 16.3684L6.8459 20.8178C6.36015 21.478 6.31112 22.3628 6.72047 23.0732C7.13097 23.7825 7.92231 24.1827 8.73647 24.0926L14.2269 23.4814C14.8232 23.4153 15.3375 23.104 15.6727 22.6502C15.7491 22.5464 15.8711 22.4848 16 22.4848C16.1288 22.4848 16.2497 22.5464 16.3272 22.6502C16.6625 23.104 17.1767 23.4153 17.7731 23.4814L23.2635 24.0926C24.0776 24.1838 24.869 23.7836 25.2795 23.0732C25.6888 22.3628 25.6398 21.478 25.154 20.8178ZM13.326 13.9317L15.545 8.86548C15.6248 8.68418 15.8038 8.56673 16.0011 8.56673C16.1984 8.56673 16.3774 8.68418 16.4572 8.86548L18.6762 13.9317C18.7457 14.0913 18.7309 14.276 18.6351 14.422C18.5394 14.568 18.3774 14.6558 18.2018 14.6558H13.7993C13.6248 14.6558 13.4617 14.568 13.366 14.422C13.2702 14.276 13.2553 14.0913 13.3249 13.9317H13.326ZM14.4652 21.6445C14.3865 21.8007 14.2337 21.9056 14.0604 21.925L8.56428 22.5362C8.36816 22.5578 8.17659 22.462 8.07739 22.291C7.97819 22.12 7.99073 21.9067 8.10818 21.7471L11.3864 17.2932C11.4902 17.1529 11.6567 17.0731 11.8312 17.0834C12.0056 17.0925 12.163 17.1894 12.2508 17.3411L12.2542 17.3468L14.4492 21.1484L14.4526 21.1541C14.5404 21.3058 14.545 21.4905 14.4663 21.6456L14.4652 21.6445ZM16.4515 19.9249C16.358 20.0857 16.187 20.1861 16 20.1861C15.8141 20.1861 15.6419 20.0869 15.5484 19.9261L13.862 17.0059C13.7685 16.8451 13.7685 16.6455 13.862 16.4848C13.9555 16.324 14.1265 16.2236 14.3135 16.2236H17.6853C17.8712 16.2236 18.0433 16.3217 18.1368 16.4836C18.2303 16.6455 18.2303 16.8439 18.1368 17.0047L16.4515 19.9249ZM23.9237 22.291C23.8245 22.462 23.6341 22.559 23.4368 22.5373L17.9407 21.9261C17.7674 21.9067 17.6146 21.8018 17.5359 21.6456C17.4572 21.4894 17.4618 21.3047 17.5496 21.1541L17.553 21.1484L19.748 17.3468L19.7515 17.3411C19.8393 17.1894 19.9966 17.0925 20.1711 17.0834C20.3455 17.0743 20.512 17.1529 20.6158 17.2932L23.894 21.7471C24.0115 21.9067 24.0229 22.12 23.9248 22.291H23.9237Z" fill="#FAFAFA"/>
<defs>
<linearGradient id="paint0_linear_98_574" x1="52.2" y1="-9.22223" x2="-18.8715" y2="31.5767" gradientUnits="userSpaceOnUse">
<stop stop-color="#E81899"/>
<stop offset="0.925484" stop-color="#C8047D"/>
</linearGradient>
</defs>
</svg>
