<svg id="Layer_1" data-name="Layer 1" xmlns="http://www.w3.org/2000/svg" xmlns:xlink="http://www.w3.org/1999/xlink" viewBox="0 0 444 444"><defs><style>.cls-1{fill:#fc0fc0;}</style><symbol id="New_Symbol" data-name="New Symbol" viewBox="0 0 329.84 80.04"><path d="M73.11,77.26,97.82,0h22l24.59,77.26L142.71,80h-12l-5.45-17.63H92.25L86.68,80H75ZM96.19,49.53h25.29l-11.6-36.65h-2.2Z"/><path d="M157.61,80V0h14.15V80Z"/><path d="M191,80V0h14.16V35L236.59,0h13.23l1.39,2.9-26.91,30L254,77.14,252.6,80h-13L215.13,43.27l-10,10.67V80Z"/><path d="M265.46,61.13V18.91Q265.46,0,284.36,0h26.57q18.9,0,18.91,18.91V61.13Q329.84,80,310.93,80H284.36Q265.46,80,265.46,61.13Zm14.15,1q0,5,5.1,5h25.87q5.1,0,5.1-5V17.86q0-5-5.1-5H284.71q-5.1,0-5.1,5Z"/><polygon points="76.26 0 1.66 0 0 2.48 3.23 12.88 31.9 12.88 31.9 80.04 46.17 80.04 46.17 12.88 74.84 12.88 78.02 2.64 76.26 0"/></symbol><symbol id="New_Symbol_4" data-name="New Symbol 4" viewBox="0 0 351.24 368"><path class="cls-1" d="M312.79,226.84l-74-103.71L185.41,5.94A10.16,10.16,0,0,0,176.18,0h0a10.18,10.18,0,0,0-9.24,5.94L113.82,122.52,39.43,226.8a10.14,10.14,0,0,0,8.27,16,8,8,0,0,0,1-.05l127.26-12.26,127.62,12.3c.33,0,.65,0,1,0a10.14,10.14,0,0,0,8.27-16Zm-128-212.78h0v0Zm-8.58,18.85,37.68,82.69H138.5Zm40.28,102.28-40.34,69.86-40.34-69.86ZM67.4,221.31l52.78-74,37.68,65.27Zm127-8.68L232,147.37l52.78,74Z"/><use width="329.84" height="80.04" transform="translate(0 282.76) scale(1.06)" xlink:href="#New_Symbol"/></symbol></defs><use width="351.24" height="368" transform="translate(45.81 39.49)" xlink:href="#New_Symbol_4"/></svg>