<svg xmlns="http://www.w3.org/2000/svg" xmlns:xlink="http://www.w3.org/1999/xlink" viewBox="0 0 405 405"><defs><style>.cls-1{fill:#fc0fc0;}</style><symbol id="New_Symbol" data-name="New Symbol" viewBox="0 0 329.84 80.04"><path d="M73.11,77.26,97.82,0h22l24.59,77.26L142.71,80h-12l-5.45-17.63H92.25L86.68,80H75ZM96.19,49.53h25.29l-11.6-36.65h-2.2Z"/><path d="M157.61,80V0h14.15V80Z"/><path d="M191,80V0h14.16V35L236.59,0h13.23l1.39,2.9-26.91,30L254,77.14,252.6,80h-13L215.13,43.27l-10,10.67V80Z"/><path d="M265.46,61.13V18.91Q265.46,0,284.36,0h26.57q18.9,0,18.91,18.91V61.13Q329.84,80,310.93,80H284.36Q265.46,80,265.46,61.13Zm14.15,1q0,5,5.1,5h25.87q5.1,0,5.1-5V17.86q0-5-5.1-5H284.71q-5.1,0-5.1,5Z"/><polygon points="76.26 0 1.66 0 0 2.48 3.23 12.88 31.9 12.88 31.9 80.04 46.17 80.04 46.17 12.88 74.84 12.88 78.02 2.64 76.26 0"/></symbol><symbol id="New_Symbol_2" data-name="New Symbol 2" viewBox="0 0 330.6 241.86"><path class="cls-1" d="M234.6,113.92,197.45,61.83,170.63,3A5.1,5.1,0,0,0,166,0h0a5.09,5.09,0,0,0-4.63,3L134.68,61.53,97.32,113.9a5.09,5.09,0,0,0,4.15,8,4,4,0,0,0,.49,0l63.91-6.16L230,122l.49,0a5.09,5.09,0,0,0,4.15-8ZM170.3,7.06ZM166,16.53l18.93,41.53H147.07Zm20.23,51.36L166,103,145.71,67.89Zm-74.85,43.25L137.87,74l18.92,32.77Zm63.76-4.36L194.05,74l26.5,37.15Z"/><use width="329.84" height="80.04" transform="translate(0.62 161.82)" xlink:href="#New_Symbol"/></symbol></defs><g id="Layer_1" data-name="Layer 1"><use width="330.6" height="241.86" transform="translate(37.26 81.57)" xlink:href="#New_Symbol_2"/></g></svg>