<svg xmlns="http://www.w3.org/2000/svg" xmlns:xlink="http://www.w3.org/1999/xlink" viewBox="0 0 544 196"><defs><style>.cls-1{fill:#fff;}.cls-2{fill:#fc0fc0;}</style><symbol id="New_Symbol_5" data-name="New Symbol 5" viewBox="0 0 329.84 80.04"><path class="cls-1" d="M73.11,77.26,97.82,0h22l24.59,77.26L142.71,80h-12l-5.45-17.63H92.25L86.68,80H75ZM96.19,49.53h25.29l-11.6-36.65h-2.2Z"/><path class="cls-1" d="M157.61,80V0h14.15V80Z"/><path class="cls-1" d="M190.4,80V0h14.16V35L236,0h13.23l1.39,2.9-26.91,30,29.69,44.2L252,80H239L214.53,43.27l-10,10.67V80Z"/><path class="cls-1" d="M265.46,61.13V18.91Q265.46,0,284.36,0h26.57q18.9,0,18.91,18.91V61.13Q329.84,80,310.93,80H284.36Q265.46,80,265.46,61.13Zm14.15,1q0,5,5.1,5h25.87q5.1,0,5.1-5V17.86q0-5-5.1-5H284.71q-5.1,0-5.1,5Z"/><polygon class="cls-1" points="76.26 0 1.66 0 0 2.48 3.23 12.88 31.9 12.88 31.9 80.04 46.17 80.04 46.17 12.88 74.84 12.88 78.02 2.64 76.26 0"/></symbol><symbol id="New_Symbol_6" data-name="New Symbol 6" viewBox="0 0 469.43 121.97"><path class="cls-2" d="M138.23,113.92,101.07,61.83,74.26,3a5.12,5.12,0,0,0-4.64-3h0A5.12,5.12,0,0,0,65,3L38.3,61.53,1,113.9a5.09,5.09,0,0,0,4.15,8,3.85,3.85,0,0,0,.48,0l63.91-6.16,64.1,6.18.48,0a5.09,5.09,0,0,0,4.16-8ZM73.93,7.06Zm-4.31,9.47L88.54,58.06H50.7ZM89.85,67.89,69.59,103,49.33,67.89ZM15,111.14,41.5,74l18.92,32.77Zm63.76-4.36L97.67,74l26.51,37.15Z"/><use width="329.84" height="80.04" transform="translate(139.59 21.2)" xlink:href="#New_Symbol_5"/></symbol></defs><g id="Layer_4" data-name="Layer 4"><rect x="-84.84" y="-210.35" width="3663.43" height="601.3"/></g><g id="Layer_1" data-name="Layer 1"><use width="469.43" height="121.97" transform="translate(37.01 37.01)" xlink:href="#New_Symbol_6"/></g></svg>