<svg xmlns="http://www.w3.org/2000/svg" xmlns:xlink="http://www.w3.org/1999/xlink" viewBox="0 0 498 180"><defs><style>.cls-1{fill:#fff;}.cls-2{fill:#fc0fc0;}</style><symbol id="New_Symbol_10" data-name="New Symbol 10" viewBox="0 0 421.87 112.87"><rect class="cls-1" x="213.45" y="4.26" width="14.02" height="104.99"/><polygon class="cls-1" points="312.45 109.25 277.55 56.81 260.65 74.89 260.65 109.25 246.63 109.25 246.63 4.26 260.65 4.26 260.65 57.08 308.05 4.26 323.33 4.26 323.7 5.04 286.34 46.74 327.66 108.24 327.18 109.25 312.45 109.25"/><path class="cls-1" d="M361.85,109.25c-15.93,0-23.35-7.42-23.35-23.34V27.61c0-15.93,7.42-23.35,23.35-23.35h36.68c15.92,0,23.34,7.42,23.34,23.35v58.3c0,15.92-7.42,23.34-23.34,23.34Zm.48-92.73c-6.23,0-9.81,3.52-9.81,9.65V87.35c0,6.13,3.58,9.65,9.81,9.65h35.72c6.23,0,9.8-3.52,9.8-9.65V26.17c0-6.13-3.57-9.65-9.8-9.65Z"/><polygon class="cls-1" points="39.64 109.25 39.64 16.52 3.46 16.52 0 5.37 0.74 4.26 92.5 4.26 93.38 5.59 89.99 16.52 53.81 16.52 53.81 109.25 39.64 109.25"/><path class="cls-2" d="M199.27,105.41,164.89,57.22,140.07,2.76A4.72,4.72,0,0,0,135.78,0h0a4.72,4.72,0,0,0-4.29,2.76L106.8,56.94,72.23,105.4a4.72,4.72,0,0,0,3.84,7.45l.46,0,59.13-5.7L195,112.85l.45,0a4.72,4.72,0,0,0,3.85-7.46ZM139.77,6.53h0Zm-4,8.76,17.51,38.43h-35ZM154.5,62.82,135.75,95.29,117,62.82Zm-69.27,40,24.53-34.38L127.27,98.8Zm59-4,17.51-30.33,24.53,34.38Z"/></symbol></defs><g id="Layer_4" data-name="Layer 4"><rect x="-1509.01" y="-218.35" width="3663.43" height="601.3"/></g><g id="Layer_1" data-name="Layer 1"><use width="421.87" height="112.87" transform="translate(37.21 32.36)" xlink:href="#New_Symbol_10"/></g></svg>