<svg width="106" height="30" viewBox="0 0 106 30" fill="none" xmlns="http://www.w3.org/2000/svg">
    <path
        d="M59.8805 23.537C59.3586 24.2797 58.6661 24.8317 57.803 25.193C56.9399 25.5343 55.9764 25.7049 54.9125 25.7049C54.0695 25.7049 53.2967 25.6045 52.5941 25.4038C51.9117 25.2031 51.3095 24.902 50.7876 24.5005C50.2657 24.079 49.8542 23.5672 49.5531 22.965C49.252 22.3427 49.1015 21.6402 49.1015 20.8573C49.1015 19.9942 49.2721 19.2616 49.6133 18.6594C49.9546 18.0371 50.4163 17.5353 50.9984 17.1539C51.6005 16.7726 52.3031 16.4915 53.106 16.3109C53.9089 16.1102 54.7519 16.0098 55.6351 16.0098H59.6999C59.6999 14.8456 59.4389 13.9423 58.917 13.3C58.3951 12.6577 57.4818 12.3265 56.1771 12.3064C55.4143 12.3064 54.7519 12.4369 54.1899 12.6978C53.6479 12.9588 53.2866 13.3903 53.106 13.9925H49.5832C49.7037 13.1494 49.9746 12.4369 50.3962 11.8548C50.8378 11.2726 51.3597 10.7909 51.9618 10.4095C52.5841 10.0281 53.2666 9.75716 54.0093 9.59658C54.772 9.436 55.5348 9.35571 56.2975 9.35571C57.2811 9.35571 58.1944 9.48618 59.0375 9.74713C59.8805 10.0081 60.6132 10.4497 61.2354 11.0719C61.938 11.7945 62.4097 12.6577 62.6505 13.6613C62.8914 14.6649 63.0118 15.7589 63.0118 16.9432V25.4941H60.0311L59.8805 23.537ZM59.6999 18.4486H56.3879C55.8058 18.4486 55.2236 18.4988 54.6415 18.5992C54.0594 18.6795 53.5576 18.8902 53.1361 19.2315C52.7346 19.5526 52.5339 20.0243 52.5339 20.6466C52.5339 21.4093 52.8049 21.9915 53.3469 22.3929C53.9089 22.7743 54.5914 22.965 55.3943 22.965C56.0165 22.965 56.5886 22.8847 57.1105 22.7241C57.6525 22.5635 58.1141 22.3026 58.4955 21.9413C58.8769 21.5599 59.1679 21.0882 59.3687 20.5261C59.5895 19.944 59.6999 19.2515 59.6999 18.4486Z"
        fill="#0B101B" />
    <path
        d="M68.6545 3.03282C69.2767 3.03282 69.7886 3.22351 70.19 3.60489C70.6115 3.98627 70.8223 4.50816 70.8223 5.17056C70.8223 5.81288 70.6115 6.32474 70.19 6.70612C69.7886 7.0875 69.2767 7.27819 68.6545 7.27819C67.9921 7.27819 67.4601 7.0875 67.0587 6.70612C66.6572 6.32474 66.4565 5.81288 66.4565 5.17056C66.4565 4.50816 66.6572 3.98627 67.0587 3.60489C67.4601 3.22351 67.9921 3.03282 68.6545 3.03282ZM66.9081 25.4941V9.62669H70.3406V25.4941H66.9081Z"
        fill="#0B101B" />
    <path
        d="M97.6205 9.35571C98.8851 9.35571 99.9991 9.55644 100.963 9.95789C101.926 10.3593 102.739 10.9214 103.401 11.644C104.084 12.3465 104.596 13.1996 104.937 14.2033C105.278 15.2069 105.449 16.3209 105.449 17.5454C105.449 18.7899 105.278 19.9139 104.937 20.9176C104.616 21.9011 104.124 22.7542 103.462 23.4768C102.799 24.1994 101.976 24.7514 100.993 25.1328C100.029 25.5142 98.9051 25.7049 97.6205 25.7049C96.3559 25.7049 95.2419 25.5142 94.2784 25.1328C93.3149 24.7314 92.5019 24.1794 91.8396 23.4768C91.1972 22.7542 90.7055 21.8911 90.3642 20.8875C90.0431 19.8838 89.8825 18.7698 89.8825 17.5454C89.8825 16.3209 90.0431 15.2069 90.3642 14.2033C90.7055 13.1996 91.2073 12.3465 91.8697 11.644C92.5321 10.9214 93.345 10.3593 94.3085 9.95789C95.272 9.55644 96.376 9.35571 97.6205 9.35571ZM97.6205 22.7241C98.4033 22.7241 99.0657 22.5936 99.6077 22.3327C100.17 22.0517 100.621 21.6803 100.963 21.2187C101.324 20.757 101.585 20.215 101.745 19.5928C101.926 18.9705 102.016 18.2981 102.016 17.5755C102.016 16.8529 101.926 16.1804 101.745 15.5582C101.585 14.9158 101.324 14.3638 100.963 13.9022C100.621 13.4405 100.17 13.0792 99.6077 12.8182C99.0657 12.5573 98.4033 12.4268 97.6205 12.4268C96.8577 12.4268 96.2053 12.5573 95.6634 12.8182C95.1214 13.0792 94.6698 13.4405 94.3085 13.9022C93.9472 14.3638 93.6762 14.9158 93.4956 15.5582C93.335 16.1804 93.2547 16.8529 93.2547 17.5755C93.2547 18.2981 93.335 18.9705 93.4956 19.5928C93.6762 20.215 93.9371 20.757 94.2784 21.2187C94.6397 21.6803 95.0913 22.0517 95.6333 22.3327C96.1953 22.5936 96.8577 22.7241 97.6205 22.7241Z"
        fill="#0B101B" />
    <path
        d="M80.184 16.1001H77.7151V4.83664H74.3128V25.4941H77.7151V19.0809H80.3948L84.5799 25.4941H88.5543L83.1347 17.184L88.1328 9.62669H84.2789L80.184 16.1001Z"
        fill="#0B101B" />
    <path
        d="M46.7805 9.5816H42.7163V4.83664H41.6661L36.7268 11.5473V12.4151H39.2632V20.2686C39.2632 22.1225 39.6808 23.4569 40.5161 24.2718C41.3717 25.0867 42.7876 25.4941 44.7637 25.4941H46.6583V22.4994H45.0693C44.1525 22.4994 43.5312 22.2753 43.2052 21.8271C42.8793 21.3789 42.7163 20.6964 42.7163 19.7797V12.4151H46.7805V9.5816Z"
        fill="#0B101B" />
    <path
        d="M32.2268 23.9955L26.7561 16.5627C26.1617 15.7551 25.2817 15.2712 24.3445 15.1646C24.1312 15.1398 23.9407 15.016 23.834 14.8293C23.7254 14.6426 23.714 14.416 23.7997 14.2179C24.175 13.3531 24.1978 12.3492 23.794 11.4311L20.0929 2.97733C19.5443 1.72204 18.3042 0.912476 16.9346 0.912476C15.5651 0.912476 14.325 1.72394 13.7764 2.97733L10.0753 11.4311C9.67336 12.3492 9.69431 13.3531 10.0696 14.2179C10.1553 14.416 10.142 14.6426 10.0353 14.8293C9.9267 15.016 9.73812 15.1398 9.52477 15.1646C8.58759 15.2712 7.70755 15.7551 7.11324 16.5627L1.64251 23.9955C0.831042 25.0984 0.749133 26.5765 1.43297 27.7633C2.11872 28.9481 3.44068 29.6167 4.80075 29.4662L13.9726 28.4452C14.9688 28.3347 15.8279 27.8147 16.388 27.0565C16.5156 26.8832 16.7194 26.7803 16.9346 26.7803C17.1499 26.7803 17.3518 26.8832 17.4813 27.0565C18.0414 27.8147 18.9005 28.3347 19.8967 28.4452L29.0685 29.4662C30.4286 29.6186 31.7506 28.95 32.4363 27.7633C33.1202 26.5765 33.0383 25.0984 32.2268 23.9955ZM12.4678 12.4921L16.1746 4.02881C16.308 3.72594 16.607 3.52974 16.9365 3.52974C17.2661 3.52974 17.5652 3.72594 17.6985 4.02881L21.4053 12.4921C21.5215 12.7587 21.4968 13.0673 21.3368 13.3111C21.1768 13.555 20.9063 13.7016 20.6129 13.7016H13.2583C12.9668 13.7016 12.6944 13.555 12.5344 13.3111C12.3744 13.0673 12.3497 12.7587 12.4659 12.4921H12.4678ZM14.3707 25.3765C14.2393 25.6374 13.984 25.8127 13.6945 25.8451L4.51311 26.8661C4.18548 26.9023 3.86546 26.7422 3.69974 26.4565C3.53402 26.1708 3.55497 25.8146 3.75117 25.5479L9.22762 18.1076C9.40096 17.8733 9.67907 17.7399 9.97052 17.7571C10.262 17.7723 10.5248 17.9342 10.6715 18.1876L10.6772 18.1971L14.3441 24.5479L14.3498 24.5574C14.4964 24.8107 14.5041 25.1193 14.3726 25.3784L14.3707 25.3765ZM17.689 22.504C17.5328 22.7725 17.247 22.9402 16.9346 22.9402C16.6242 22.9402 16.3365 22.7745 16.1803 22.5059L13.3631 17.6275C13.2069 17.359 13.2069 17.0256 13.3631 16.757C13.5192 16.4884 13.805 16.3208 14.1174 16.3208H19.75C20.0605 16.3208 20.3481 16.4846 20.5043 16.7551C20.6605 17.0256 20.6605 17.3571 20.5043 17.6256L17.689 22.504ZM30.1714 26.4565C30.0057 26.7422 29.6876 26.9042 29.3581 26.868L20.1767 25.847C19.8872 25.8146 19.6319 25.6393 19.5005 25.3784C19.369 25.1174 19.3767 24.8088 19.5233 24.5574L19.5291 24.5479L23.1959 18.1971L23.2016 18.1876C23.3483 17.9342 23.6111 17.7723 23.9026 17.7571C24.194 17.7418 24.4721 17.8733 24.6455 18.1076L30.1219 25.5479C30.3181 25.8146 30.3372 26.1708 30.1734 26.4565H30.1714Z"
        fill="#E81899" />
</svg>