<svg id="Layer_1" data-name="Layer 1" xmlns="http://www.w3.org/2000/svg" viewBox="0 0 500 500"><defs><style>.cls-1{fill:#1c1c1e;}</style></defs><path class="cls-1" d="M76.85,375.6l152.89,85.51c13.84,7.65,26.48,7.65,40.34,0L423,375.6c19.18-10.35,28.67-21.6,28.67-49.51V165.64c0-20.93-7.92-34.43-25.72-44.33l-139-77.86c-24.32-13.73-49.44-13.73-74,0l-139,77.86c-17.6,9.9-25.52,23.4-25.52,44.33V326.09C48.36,354,57.85,365.25,76.85,375.6Zm173.05-147L104.32,147.41,229,77.2c14.22-8.1,27.68-8.32,42.12,0l124.61,70.21ZM98.61,345C87.72,339.14,84,332.84,84,322.26V178.69l147.35,83v158Zm302.81,0L268.49,419.71v-158l147.35-83V322.26C415.84,332.84,412.08,339.14,401.42,345Z"/></svg>