<svg id="Layer_1" data-name="Layer 1" xmlns="http://www.w3.org/2000/svg" viewBox="0 0 500 500"><defs><style>.cls-1{fill:#1c1c1e;}</style></defs><path class="cls-1" d="M115.21,125.21A40.16,40.16,0,1,0,75.25,85,40.06,40.06,0,0,0,115.21,125.21ZM23,154.87c0,49.64,43.7,100.27,120.46,124.4-6.73,20.38-10.28,40.14-10.28,58.15a133.87,133.87,0,0,0,5.13,37.19c9.9-14,28.87-22.75,44.31-23.36a108.48,108.48,0,0,1-5.34-33.8,164.45,164.45,0,0,1,2.77-29.27,369,369,0,0,0,64.68,5.53,355.39,355.39,0,0,0,64.47-5.53,165.77,165.77,0,0,1,2.57,29.27c0,46.68-26.9,78.9-62.9,79.1A85.22,85.22,0,0,1,251.29,415a63.27,63.27,0,0,1-13,38.75,59.74,59.74,0,0,0,6.33.21c64.87,0,111.55-48.86,111.55-116.5,0-18-3.76-37.77-10.29-58.15,24.91-7.9,47.08-18.59,65.67-32.23A63.61,63.61,0,0,1,382,220.73c-12.85,12.27-28.67,22.15-47.26,29.46-16-36.39-40-73-68.43-104,26.1-21.16,55.38-34.61,84.63-34.61,23.34,0,41.34,8.5,50.84,23.94A63.33,63.33,0,0,1,437,125a66.81,66.81,0,0,1,27.09,5.92c-9.7-40.35-44.89-65.06-94.56-65.06-42.51,0-86.41,23.75-124.78,58.74-20.57-19-43.12-34.61-66.07-45.1a51.29,51.29,0,0,1,.2,5.54,64.76,64.76,0,0,1-8.3,31.66c18.18,5.74,36,15.82,52.61,29.46C194.72,177,170.78,213.6,154.78,250c-53-21.15-74.58-59.32-74.58-85.24,0-8.89,1.39-16.81,4.34-23.72a64.35,64.35,0,0,1-33-54.4C32.74,104.44,23,127.37,23,154.87Zm414,74a40.15,40.15,0,1,0-40.17-40.15A40,40,0,0,0,437,228.84ZM244.77,265.22a273.49,273.49,0,0,1-57-5.53c11.48-33.83,31.84-67,57-93.55,25.11,26.31,45.48,59.52,57,93.55C284.31,263.45,265.13,265.22,244.77,265.22ZM187.61,455.11A40.06,40.06,0,1,0,147.44,415,40.06,40.06,0,0,0,187.61,455.11Z"/></svg>