<svg id="Layer_1" data-name="Layer 1" xmlns="http://www.w3.org/2000/svg" viewBox="0 0 500 500"><defs><style>.cls-1{fill:#1c1c1e;}</style></defs><path class="cls-1" d="M39.61,401.66c-6.33,14.42-.39,24.33,15,26.1l81.89,9.09c21,2.57,33.24-11.27,22.14-30.06l-12.85-22.14,104.24-52.41,104,52.41-12.85,22.14c-10.89,18.79,1.38,32.63,22.15,30.06l82.09-9.09c15.21-1.77,21.15-11.68,15-26.1l-33.44-75.57c-8.1-19-26.3-22.55-36.79-4.14l-17.19,29.86-104-52.23V173h29.46c22,0,27.9-17.19,15.23-34.21L264.89,72.34c-9.5-12.67-20.77-12.67-30.27,0L186,138.59C173.52,155.4,179.65,173,201,173h29.86V299.58L127,351.81,109.64,322c-10.49-18.41-28.49-14.85-36.8,4.14Z"/></svg>