<?xml version="1.0" encoding="utf-8"?>
<!-- Generator: Adobe Illustrator 27.7.0, SVG Export Plug-In . SVG Version: 6.00 Build 0)  -->
<svg version="1.1" id="Layer_1" xmlns="http://www.w3.org/2000/svg" xmlns:xlink="http://www.w3.org/1999/xlink" x="0px" y="0px"
	 viewBox="0 0 800 800" style="enable-background:new 0 0 800 800;" xml:space="preserve">
<style type="text/css">
	.st1{
			fill:none;
			stroke:#a4a4a4;
			stroke-width:0.5;
			stroke-miterlimit:10;
			opacity: .5;
		}
	.st2{
			fill:#a4a4a4;
			stroke:#a4a4a4;
			stroke-width:0.5;
			stroke-miterlimit:10;
			opacity: .5;
		}
	
</style>
<g id="Layer_1_00000024712208364594900840000005980293173202562695_">
	<g id="Lines">
		<line class="st1" x1="0" y1="0" x2="0" y2="800"/>
		<line class="st1" x1="66.7" y1="0" x2="66.7" y2="800"/>
		<line class="st1" x1="133.3" y1="0" x2="133.3" y2="800"/>
		<line class="st1" x1="200" y1="0" x2="200" y2="800"/>
		<line class="st1" x1="266.7" y1="0" x2="266.7" y2="800"/>
		<line class="st1" x1="333.3" y1="0" x2="333.3" y2="800"/>
		<line class="st1" x1="400" y1="0" x2="400" y2="800"/>
		<line class="st1" x1="466.7" y1="0" x2="466.7" y2="800"/>
		<line class="st1" x1="533.3" y1="0" x2="533.3" y2="800"/>
		<line class="st1" x1="600" y1="0" x2="600" y2="800"/>
		<line class="st1" x1="666.7" y1="0" x2="666.7" y2="800"/>
		<line class="st1" x1="733.3" y1="0" x2="733.3" y2="800"/>
		<line class="st1" x1="800" y1="0.5" x2="800" y2="800.5"/>
		<line class="st1" x1="800" y1="0" x2="0" y2="0"/>
		<line class="st1" x1="800" y1="66.7" x2="0" y2="66.7"/>
		<line class="st1" x1="800" y1="133.3" x2="0" y2="133.3"/>
		<line class="st1" x1="800" y1="200" x2="0" y2="200"/>
		<line class="st1" x1="800" y1="266.7" x2="0" y2="266.7"/>
		<line class="st1" x1="800" y1="333.3" x2="0" y2="333.3"/>
		<line class="st1" x1="800" y1="400" x2="0.5" y2="400"/>
		<line class="st1" x1="800" y1="466.7" x2="0.5" y2="466.7"/>
		<line class="st1" x1="800" y1="533.3" x2="0.5" y2="533.3"/>
		<line class="st1" x1="800" y1="600" x2="0.5" y2="600"/>
		<line class="st1" x1="800" y1="666.7" x2="0.5" y2="666.7"/>
		<line class="st1" x1="800" y1="733.3" x2="0.5" y2="733.3"/>
		<line class="st1" x1="799.5" y1="800" x2="0" y2="800"/>
	</g>
	<g id="Dots">
		<circle class="st2" cx="0" cy="0" r="1.5"/>
		<circle class="st2" cx="66.7" cy="0" r="1.5"/>
		<circle class="st2" cx="133.3" cy="0" r="1.5"/>
		<circle class="st2" cx="200" cy="0" r="1.5"/>
		<circle class="st2" cx="266.7" cy="0" r="1.5"/>
		<circle class="st2" cx="333.3" cy="0" r="1.5"/>
		<circle class="st2" cx="400" cy="0" r="1.5"/>
		<circle class="st2" cx="466.7" cy="0" r="1.5"/>
		<circle class="st2" cx="533.3" cy="0" r="1.5"/>
		<circle class="st2" cx="600" cy="0" r="1.5"/>
		<circle class="st2" cx="666.7" cy="0" r="1.5"/>
		<circle class="st2" cx="733.3" cy="0" r="1.5"/>
		<circle class="st2" cx="800" cy="0" r="1.5"/>
		<circle class="st2" cx="0" cy="66.7" r="1.5"/>
		<circle class="st2" cx="66.7" cy="66.7" r="1.5"/>
		<circle class="st2" cx="133.3" cy="66.7" r="1.5"/>
		<circle class="st2" cx="200" cy="66.7" r="1.5"/>
		<circle class="st2" cx="266.7" cy="66.7" r="1.5"/>
		<circle class="st2" cx="333.3" cy="66.7" r="1.5"/>
		<circle class="st2" cx="400" cy="66.7" r="1.5"/>
		<circle class="st2" cx="466.7" cy="66.7" r="1.5"/>
		<circle class="st2" cx="533.3" cy="66.7" r="1.5"/>
		<circle class="st2" cx="600" cy="66.7" r="1.5"/>
		<circle class="st2" cx="666.7" cy="66.7" r="1.5"/>
		<circle class="st2" cx="733.3" cy="66.7" r="1.5"/>
		<circle class="st2" cx="800" cy="66.7" r="1.5"/>
		<circle class="st2" cx="0" cy="133.3" r="1.5"/>
		<circle class="st2" cx="66.7" cy="133.3" r="1.5"/>
		<circle class="st2" cx="133.3" cy="133.3" r="1.5"/>
		<circle class="st2" cx="200" cy="133.3" r="1.5"/>
		<circle class="st2" cx="266.7" cy="133.3" r="1.5"/>
		<circle class="st2" cx="333.3" cy="133.3" r="1.5"/>
		<circle class="st2" cx="400" cy="133.3" r="1.5"/>
		<circle class="st2" cx="466.7" cy="133.3" r="1.5"/>
		<circle class="st2" cx="533.3" cy="133.3" r="1.5"/>
		<circle class="st2" cx="600" cy="133.3" r="1.5"/>
		<circle class="st2" cx="666.7" cy="133.3" r="1.5"/>
		<circle class="st2" cx="733.3" cy="133.3" r="1.5"/>
		<circle class="st2" cx="800" cy="133.3" r="1.5"/>
		<circle class="st2" cx="0" cy="200" r="1.5"/>
		<circle class="st2" cx="66.7" cy="200" r="1.5"/>
		<circle class="st2" cx="133.3" cy="200" r="1.5"/>
		<circle class="st2" cx="200" cy="200" r="1.5"/>
		<circle class="st2" cx="266.7" cy="200" r="1.5"/>
		<circle class="st2" cx="333.3" cy="200" r="1.5"/>
		<circle class="st2" cx="400" cy="200" r="1.5"/>
		<circle class="st2" cx="466.7" cy="200" r="1.5"/>
		<circle class="st2" cx="533.3" cy="200" r="1.5"/>
		<circle class="st2" cx="600" cy="200" r="1.5"/>
		<circle class="st2" cx="666.7" cy="200" r="1.5"/>
		<circle class="st2" cx="733.3" cy="200" r="1.5"/>
		<circle class="st2" cx="800" cy="200" r="1.5"/>
		<circle class="st2" cx="0" cy="266.7" r="1.5"/>
		<circle class="st2" cx="66.7" cy="266.7" r="1.5"/>
		<circle class="st2" cx="133.3" cy="266.7" r="1.5"/>
		<circle class="st2" cx="200" cy="266.7" r="1.5"/>
		<circle class="st2" cx="266.7" cy="266.7" r="1.5"/>
		<circle class="st2" cx="333.3" cy="266.7" r="1.5"/>
		<circle class="st2" cx="400" cy="266.7" r="1.5"/>
		<circle class="st2" cx="466.7" cy="266.7" r="1.5"/>
		<circle class="st2" cx="533.3" cy="266.7" r="1.5"/>
		<circle class="st2" cx="600" cy="266.7" r="1.5"/>
		<circle class="st2" cx="666.7" cy="266.7" r="1.5"/>
		<circle class="st2" cx="733.3" cy="266.7" r="1.5"/>
		<circle class="st2" cx="800" cy="266.7" r="1.5"/>
		<circle class="st2" cx="0" cy="333.3" r="1.5"/>
		<circle class="st2" cx="66.7" cy="333.3" r="1.5"/>
		<circle class="st2" cx="133.3" cy="333.3" r="1.5"/>
		<circle class="st2" cx="200" cy="333.3" r="1.5"/>
		<circle class="st2" cx="266.7" cy="333.3" r="1.5"/>
		<circle class="st2" cx="333.3" cy="333.3" r="1.5"/>
		<circle class="st2" cx="400" cy="333.3" r="1.5"/>
		<circle class="st2" cx="466.7" cy="333.3" r="1.5"/>
		<circle class="st2" cx="533.3" cy="333.3" r="1.5"/>
		<circle class="st2" cx="600" cy="333.3" r="1.5"/>
		<circle class="st2" cx="666.7" cy="333.3" r="1.5"/>
		<circle class="st2" cx="733.3" cy="333.3" r="1.5"/>
		<circle class="st2" cx="800" cy="333.3" r="1.5"/>
		<circle class="st2" cx="0" cy="400" r="1.5"/>
		<circle class="st2" cx="66.7" cy="400" r="1.5"/>
		<circle class="st2" cx="133.3" cy="400" r="1.5"/>
		<circle class="st2" cx="200" cy="400" r="1.5"/>
		<circle class="st2" cx="266.7" cy="400" r="1.5"/>
		<circle class="st2" cx="333.3" cy="400" r="1.5"/>
		<circle class="st2" cx="400" cy="400" r="1.5"/>
		<circle class="st2" cx="466.7" cy="400" r="1.5"/>
		<circle class="st2" cx="533.3" cy="400" r="1.5"/>
		<circle class="st2" cx="600" cy="400" r="1.5"/>
		<circle class="st2" cx="666.7" cy="400" r="1.5"/>
		<circle class="st2" cx="733.3" cy="400" r="1.5"/>
		<circle class="st2" cx="800" cy="400" r="1.5"/>
		<circle class="st2" cx="0" cy="466.7" r="1.5"/>
		<circle class="st2" cx="66.7" cy="466.7" r="1.5"/>
		<circle class="st2" cx="133.3" cy="466.7" r="1.5"/>
		<circle class="st2" cx="200" cy="466.7" r="1.5"/>
		<circle class="st2" cx="266.7" cy="466.7" r="1.5"/>
		<circle class="st2" cx="333.3" cy="466.7" r="1.5"/>
		<circle class="st2" cx="400" cy="466.7" r="1.5"/>
		<circle class="st2" cx="466.7" cy="466.7" r="1.5"/>
		<circle class="st2" cx="533.3" cy="466.7" r="1.5"/>
		<circle class="st2" cx="600" cy="466.7" r="1.5"/>
		<circle class="st2" cx="666.7" cy="466.7" r="1.5"/>
		<circle class="st2" cx="733.3" cy="466.7" r="1.5"/>
		<circle class="st2" cx="800" cy="466.7" r="1.5"/>
		<circle class="st2" cx="0" cy="533.3" r="1.5"/>
		<ellipse class="st2" cx="66.7" cy="533.3" rx="1.5" ry="1.5"/>
		<circle class="st2" cx="133.3" cy="533.3" r="1.5"/>
		<circle class="st2" cx="200" cy="533.3" r="1.5"/>
		<circle class="st2" cx="266.7" cy="533.3" r="1.5"/>
		<circle class="st2" cx="333.3" cy="533.3" r="1.5"/>
		<circle class="st2" cx="400" cy="533.3" r="1.5"/>
		<circle class="st2" cx="466.7" cy="533.3" r="1.5"/>
		<circle class="st2" cx="533.3" cy="533.3" r="1.5"/>
		<circle class="st2" cx="600" cy="533.3" r="1.5"/>
		<circle class="st2" cx="666.7" cy="533.3" r="1.5"/>
		<circle class="st2" cx="733.3" cy="533.3" r="1.5"/>
		<circle class="st2" cx="800" cy="533.3" r="1.5"/>
		<circle class="st2" cx="0" cy="600" r="1.5"/>
		<ellipse class="st2" cx="66.7" cy="599.9" rx="1.5" ry="1.5"/>
		<circle class="st2" cx="133.3" cy="600" r="1.5"/>
		<circle class="st2" cx="200" cy="600" r="1.5"/>
		<circle class="st2" cx="266.7" cy="600" r="1.5"/>
		<circle class="st2" cx="333.3" cy="600" r="1.5"/>
		<circle class="st2" cx="400" cy="600" r="1.5"/>
		<circle class="st2" cx="466.7" cy="600" r="1.5"/>
		<circle class="st2" cx="533.3" cy="600" r="1.5"/>
		<circle class="st2" cx="600" cy="600" r="1.5"/>
		<circle class="st2" cx="666.7" cy="600" r="1.5"/>
		<circle class="st2" cx="733.3" cy="600" r="1.5"/>
		<circle class="st2" cx="800" cy="600" r="1.5"/>
		<circle class="st2" cx="0" cy="666.7" r="1.5"/>
		<ellipse class="st2" cx="66.7" cy="666.6" rx="1.5" ry="1.5"/>
		<circle class="st2" cx="133.3" cy="666.7" r="1.5"/>
		<circle class="st2" cx="200" cy="666.7" r="1.5"/>
		<circle class="st2" cx="266.7" cy="666.7" r="1.5"/>
		<circle class="st2" cx="333.3" cy="666.7" r="1.5"/>
		<circle class="st2" cx="400" cy="666.7" r="1.5"/>
		<circle class="st2" cx="466.7" cy="666.7" r="1.5"/>
		<circle class="st2" cx="533.3" cy="666.7" r="1.5"/>
		<circle class="st2" cx="600" cy="666.7" r="1.5"/>
		<circle class="st2" cx="666.7" cy="666.7" r="1.5"/>
		<circle class="st2" cx="733.3" cy="666.7" r="1.5"/>
		<circle class="st2" cx="800" cy="666.7" r="1.5"/>
		<circle class="st2" cx="0" cy="733.3" r="1.5"/>
		<ellipse class="st2" cx="66.7" cy="733.2" rx="1.5" ry="1.5"/>
		<circle class="st2" cx="133.3" cy="733.3" r="1.5"/>
		<circle class="st2" cx="200" cy="733.3" r="1.5"/>
		<circle class="st2" cx="266.7" cy="733.3" r="1.5"/>
		<circle class="st2" cx="333.3" cy="733.3" r="1.5"/>
		<circle class="st2" cx="400" cy="733.3" r="1.5"/>
		<circle class="st2" cx="466.7" cy="733.3" r="1.5"/>
		<circle class="st2" cx="533.3" cy="733.3" r="1.5"/>
		<circle class="st2" cx="600" cy="733.3" r="1.5"/>
		<circle class="st2" cx="666.7" cy="733.3" r="1.5"/>
		<circle class="st2" cx="733.3" cy="733.3" r="1.5"/>
		<circle class="st2" cx="800" cy="733.3" r="1.5"/>
		<circle class="st2" cx="0" cy="800" r="1.5"/>
		<ellipse class="st2" cx="66.6" cy="799.9" rx="1.5" ry="1.5"/>
		<circle class="st2" cx="133.3" cy="800" r="1.5"/>
		<circle class="st2" cx="200" cy="800" r="1.5"/>
		<circle class="st2" cx="266.7" cy="800" r="1.5"/>
		<circle class="st2" cx="333.3" cy="800" r="1.5"/>
		<circle class="st2" cx="400" cy="800" r="1.5"/>
		<circle class="st2" cx="466.7" cy="800" r="1.5"/>
		<circle class="st2" cx="533.3" cy="800" r="1.5"/>
		<circle class="st2" cx="600" cy="800" r="1.5"/>
		<circle class="st2" cx="666.7" cy="800" r="1.5"/>
		<circle class="st2" cx="733.3" cy="800" r="1.5"/>
		<circle class="st2" cx="800" cy="800" r="1.5"/>
	</g>
</g>
</svg>
