<svg width="120" height="121" viewBox="0 0 120 121" fill="none" xmlns="http://www.w3.org/2000/svg">
<g clip-path="url(#clip0_55_10375)">
<ellipse cx="52.7026" cy="67.3138" rx="11.321" ry="30.1331" transform="rotate(-49.4761 52.7026 67.3138)" fill="#B71178"/>
<path d="M28.7786 50.1309C27.7947 55.9362 34.4749 66.6115 45.3909 75.9425C56.7623 85.6628 68.8594 90.6155 74.1399 88.0654L16.1893 116.123C12.2845 118.014 8.01901 114.3 9.35441 110.172L28.7786 50.1309Z" fill="#E81899"/>
<path opacity="0.2" d="M9.35441 110.172L28.7786 50.1309C27.9795 54.8457 32.2356 62.7726 39.7102 70.5828L26.7683 111.001L16.1893 116.123C12.2845 118.014 8.01901 114.3 9.35441 110.172Z" fill="#0B101B"/>
<path opacity="0.3" d="M29.797 47.7337C26.3897 51.7197 30.737 61.2389 39.6911 70.5855L46.3919 49.4282C38.8038 45.5984 32.3812 44.7104 29.797 47.7337Z" fill="#0B101B"/>
<circle cx="40.0077" cy="27.4481" r="2.17861" fill="#FFC6E9"/>
<circle cx="113.655" cy="67.3161" r="1.83562" fill="#FFC6E9"/>
<circle cx="115.491" cy="29.6266" r="1.83562" fill="#FFC6E9"/>
<circle cx="82.9626" cy="9.17158" r="3.67158" fill="#9A0060"/>
<circle cx="109.357" cy="74.8957" r="2.46215" fill="#FF6FC8"/>
<path d="M66.714 54.6861L85.5828 34.5476" stroke="#FFC6E9" stroke-width="3.51933" stroke-linecap="round"/>
<path d="M71.8609 60.5954C78.8152 57.3196 89.5578 52.2778 102.5 58.7822" stroke="#FFC6E9" stroke-width="3.51933" stroke-linecap="round"/>
<path d="M61.2476 50.0387C64.7742 44.3012 69.3129 30.4196 59.2549 20.793" stroke="#FFC6E9" stroke-width="3.51933" stroke-linecap="round"/>
</g>
<defs>
<clipPath id="clip0_55_10375">
<rect width="120" height="120" fill="white" transform="translate(0 0.5)"/>
</clipPath>
</defs>
</svg>
