<svg width="120" height="120" viewBox="0 0 120 120" fill="none" xmlns="http://www.w3.org/2000/svg">
<g clip-path="url(#clip0_36_1667)">
<ellipse cx="52.7026" cy="66.8138" rx="11.321" ry="30.1331" transform="rotate(-49.4761 52.7026 66.8138)" fill="#B71178"/>
<path d="M28.7786 49.6309C27.7947 55.4362 34.4749 66.1115 45.3909 75.4425C56.7623 85.1628 68.8594 90.1155 74.1399 87.5654L16.1893 115.623C12.2845 117.514 8.01901 113.8 9.35441 109.672L28.7786 49.6309Z" fill="#E81899"/>
<path opacity="0.2" d="M9.35441 109.672L28.7786 49.6309C27.9795 54.3457 32.2356 62.2726 39.7102 70.0828L26.7683 110.501L16.1893 115.623C12.2845 117.514 8.01901 113.8 9.35441 109.672Z" fill="#0B101B"/>
<path opacity="0.3" d="M29.797 47.2337C26.3897 51.2197 30.737 60.7389 39.6911 70.0855L46.3919 48.9282C38.8038 45.0984 32.3812 44.2104 29.797 47.2337Z" fill="#0B101B"/>
<circle cx="40.0077" cy="26.9481" r="2.17861" fill="#FFC6E9"/>
<circle cx="113.655" cy="66.8161" r="1.83562" fill="#FFC6E9"/>
<circle cx="115.491" cy="29.1266" r="1.83562" fill="#FFC6E9"/>
<circle cx="82.9626" cy="8.67158" r="3.67158" fill="#9A0060"/>
<circle cx="109.357" cy="74.3957" r="2.46215" fill="#FF6FC8"/>
<path d="M66.714 54.1861L85.5828 34.0476" stroke="#E81899" stroke-width="3.51933" stroke-linecap="round"/>
<path d="M71.8609 60.0954C78.8152 56.8196 89.5578 51.7778 102.5 58.2822" stroke="#E81899" stroke-width="3.51933" stroke-linecap="round"/>
<path d="M61.2476 49.5387C64.7742 43.8012 69.3129 29.9196 59.2549 20.293" stroke="#E81899" stroke-width="3.51933" stroke-linecap="round"/>
</g>
<defs>
<clipPath id="clip0_36_1667">
<rect width="120" height="120" fill="white"/>
</clipPath>
</defs>
</svg>
