<svg width="120" height="121" viewBox="0 0 120 121" fill="none" xmlns="http://www.w3.org/2000/svg">
<g clip-path="url(#clip0_36_1470)">
<ellipse opacity="0.1" cx="56.5" cy="56.5" rx="56.5" ry="56.5" transform="matrix(1 -8.74228e-08 -8.74228e-08 -1 3.01074 116.5)" fill="#E81899"/>
<ellipse opacity="0.2" cx="45.9419" cy="45.8921" rx="45.9419" ry="45.8921" transform="matrix(1 -8.74228e-08 -8.74228e-08 -1 13.5684 105.893)" fill="#E81899"/>
<path fill-rule="evenodd" clip-rule="evenodd" d="M59.5107 25.5703C40.4958 25.5703 25.0811 40.985 25.0811 60C25.0811 79.015 40.4958 94.4297 59.5107 94.4297C78.5257 94.4297 93.9404 79.015 93.9404 60C93.9404 40.985 78.5257 25.5703 59.5107 25.5703ZM50.2412 46.7578C48.332 46.7578 47.3164 48.2367 46.936 48.9975C46.4764 49.9168 46.2686 51.0013 46.2686 52.0547C46.2686 53.108 46.4764 54.1926 46.936 55.1118C47.3164 55.8726 48.332 57.3516 50.2412 57.3516C52.1505 57.3516 53.166 55.8726 53.5464 55.1118C54.006 54.1926 54.2139 53.108 54.2139 52.0547C54.2139 51.0013 54.006 49.9168 53.5464 48.9975C53.166 48.2367 52.1505 46.7578 50.2412 46.7578ZM65.4751 48.9975C65.8555 48.2367 66.871 46.7578 68.7803 46.7578C70.6895 46.7578 71.7051 48.2367 72.0855 48.9975C72.5451 49.9168 72.7529 51.0013 72.7529 52.0547C72.7529 53.108 72.5451 54.1926 72.0855 55.1118C71.7051 55.8726 70.6895 57.3516 68.7803 57.3516C66.871 57.3516 65.8555 55.8726 65.4751 55.1118C65.0155 54.1926 64.8076 53.108 64.8076 52.0547C64.8076 51.0013 65.0155 49.9168 65.4751 48.9975ZM50.1483 77.1203C49.114 78.1546 47.4371 78.1546 46.4028 77.1203C45.3686 76.086 45.3686 74.4091 46.4028 73.3749C50.0385 69.7392 54.814 67.9288 59.5756 67.945C64.2949 67.9611 69.0178 69.7716 72.621 73.3749C73.6553 74.4091 73.6553 76.086 72.621 77.1203C71.5868 78.1546 69.9099 78.1546 68.8756 77.1203C66.3009 74.5456 62.9353 73.2534 59.5575 73.2418C56.1492 73.2302 52.746 74.5226 50.1483 77.1203Z" fill="#E81899"/>
</g>
<defs>
<clipPath id="clip0_36_1470">
<rect width="120" height="120" fill="white" transform="translate(0 0.5)"/>
</clipPath>
</defs>
</svg>
