<svg width="120" height="120" viewBox="0 0 120 120" fill="none" xmlns="http://www.w3.org/2000/svg">
<g clip-path="url(#clip0_55_10574)">
<ellipse opacity="0.1" cx="56.5" cy="56.5" rx="56.5" ry="56.5" transform="matrix(1 -8.74228e-08 -8.74228e-08 -1 3.01074 116)" fill="#FF6FC8"/>
<ellipse opacity="0.2" cx="45.9419" cy="45.8921" rx="45.9419" ry="45.8921" transform="matrix(1 -8.74228e-08 -8.74228e-08 -1 13.5684 105.393)" fill="#FF6FC8"/>
<path fill-rule="evenodd" clip-rule="evenodd" d="M59.5107 25.0703C40.4958 25.0703 25.0811 40.485 25.0811 59.5C25.0811 78.515 40.4958 93.9297 59.5107 93.9297C78.5257 93.9297 93.9404 78.515 93.9404 59.5C93.9404 40.485 78.5257 25.0703 59.5107 25.0703ZM50.2412 46.2578C48.332 46.2578 47.3164 47.7367 46.936 48.4975C46.4764 49.4168 46.2686 50.5013 46.2686 51.5547C46.2686 52.608 46.4764 53.6926 46.936 54.6118C47.3164 55.3726 48.332 56.8516 50.2412 56.8516C52.1505 56.8516 53.166 55.3726 53.5464 54.6118C54.006 53.6926 54.2139 52.608 54.2139 51.5547C54.2139 50.5013 54.006 49.4168 53.5464 48.4975C53.166 47.7367 52.1505 46.2578 50.2412 46.2578ZM65.4751 48.4975C65.8555 47.7367 66.871 46.2578 68.7803 46.2578C70.6895 46.2578 71.7051 47.7367 72.0855 48.4975C72.5451 49.4168 72.7529 50.5013 72.7529 51.5547C72.7529 52.608 72.5451 53.6926 72.0855 54.6118C71.7051 55.3726 70.6895 56.8516 68.7803 56.8516C66.871 56.8516 65.8555 55.3726 65.4751 54.6118C65.0155 53.6926 64.8076 52.608 64.8076 51.5547C64.8076 50.5013 65.0155 49.4168 65.4751 48.4975ZM50.1483 76.6203C49.114 77.6546 47.4371 77.6546 46.4028 76.6203C45.3686 75.586 45.3686 73.9091 46.4028 72.8749C50.0385 69.2392 54.814 67.4288 59.5756 67.445C64.2949 67.4611 69.0178 69.2716 72.621 72.8749C73.6553 73.9091 73.6553 75.586 72.621 76.6203C71.5868 77.6546 69.9099 77.6546 68.8756 76.6203C66.3009 74.0456 62.9353 72.7534 59.5575 72.7418C56.1492 72.7302 52.746 74.0226 50.1483 76.6203Z" fill="#FF6FC8"/>
</g>
<defs>
<clipPath id="clip0_55_10574">
<rect width="120" height="120" fill="white"/>
</clipPath>
</defs>
</svg>
