<svg width="120" height="121" viewBox="0 0 120 121" fill="none" xmlns="http://www.w3.org/2000/svg">
<g clip-path="url(#clip0_36_7118)">
<ellipse opacity="0.05" cx="60" cy="60" rx="60" ry="60" transform="matrix(1 -8.74228e-08 -8.74228e-08 -1 0 120.5)" fill="#005E36"/>
<ellipse opacity="0.2" cx="48.7878" cy="48.735" rx="48.7878" ry="48.735" transform="matrix(1 -8.74228e-08 -8.74228e-08 -1 11.2129 109.234)" fill="#005E36"/>
<path fill-rule="evenodd" clip-rule="evenodd" d="M60 96.5C79.8822 96.5 96 80.3822 96 60.5C96 40.6177 79.8822 24.5 60 24.5C40.1177 24.5 24 40.6177 24 60.5C24 80.3822 40.1177 96.5 60 96.5ZM77.3545 52.3601C78.4508 50.8526 78.1175 48.7418 76.6101 47.6455C75.1026 46.5492 72.9918 46.8825 71.8955 48.3899L56.2186 69.9456L47.7615 61.4885C46.4435 60.1705 44.3065 60.1705 42.9885 61.4885C41.6705 62.8065 41.6705 64.9435 42.9885 66.2615L54.2385 77.5115C54.9365 78.2094 55.905 78.5669 56.889 78.4896C57.873 78.4124 58.7739 77.9083 59.3545 77.1101L77.3545 52.3601Z" fill="#005E36"/>
</g>
<defs>
<clipPath id="clip0_36_7118">
<rect width="120" height="120" fill="white" transform="translate(0 0.5)"/>
</clipPath>
</defs>
</svg>
