<svg xmlns="http://www.w3.org/2000/svg" xmlns:xlink="http://www.w3.org/1999/xlink" viewBox="0 0 250 250"><defs><style>.cls-1{fill:#fc0fc0;}</style><symbol id="New_Symbol_14" data-name="New Symbol 14" viewBox="0 0 163.08 142.92"><path class="cls-1" d="M162,133.48l-43.54-61L87,3.49a6,6,0,0,0-10.87,0L44.88,72.1,1.11,133.46A6,6,0,0,0,6,142.9l.57,0,74.89-7.21,75.1,7.24.57,0a6,6,0,0,0,4.87-9.44ZM81.58,19.36,103.75,68H59.4Zm23.7,60.19L81.54,120.67,57.81,79.55ZM17.57,130.23,48.63,86.7,70.8,125.1Zm74.71-5.11,22.17-38.4,31.06,43.53Z"/></symbol></defs><g id="Layer_4" data-name="Layer 4"><rect x="-2912.71" y="-183.35" width="3663.43" height="601.3"/></g><g id="Layer_1" data-name="Layer 1"><use width="163.08" height="142.92" transform="translate(43.46 38.52)" xlink:href="#New_Symbol_14"/></g></svg>