<svg xmlns="http://www.w3.org/2000/svg" xmlns:xlink="http://www.w3.org/1999/xlink" viewBox="0 0 250 250"><defs><style>.cls-1{fill:#fff;}.cls-2{fill:#fc0fc0;}</style><symbol id="New_Symbol_13" data-name="New Symbol 13" viewBox="0 0 216.74 216.74"><path class="cls-1" d="M108.37,9A99.4,99.4,0,1,1,9,108.37,99.5,99.5,0,0,1,108.37,9m0-9A108.37,108.37,0,1,0,216.74,108.37,108.37,108.37,0,0,0,108.37,0Z"/><path class="cls-1" d="M176.85,148.78l-37.06-52L113,38.1a5.09,5.09,0,0,0-9.25,0L77.16,96.52,39.89,148.76a5.08,5.08,0,0,0,4.14,8,4.1,4.1,0,0,0,.49,0l63.76-6.14,63.95,6.16.48,0a5.08,5.08,0,0,0,4.14-8ZM108.4,51.62l18.88,41.43H89.53Zm20.19,51.24-20.21,35-20.21-35ZM53.9,146,80.35,109l18.88,32.7Zm63.62-4.35L136.4,109,162.84,146Z"/></symbol></defs><g id="Layer_4" data-name="Layer 4"><rect class="cls-2" x="-324.79" y="-36.35" width="1368.43" height="416.75"/></g><g id="Layer_1" data-name="Layer 1"><use width="216.74" height="216.74" transform="translate(16.63 16.63)" xlink:href="#New_Symbol_13"/></g></svg>