<svg xmlns="http://www.w3.org/2000/svg" viewBox="0 0 2000 740"><defs><style>.cls-1{fill:#fff;}.cls-2{opacity:0.5;}</style></defs><g id="Layer_4" data-name="Layer 4"><path class="cls-1" d="M684.61,586.89,532.36,373.48,422.49,132.34a20.92,20.92,0,0,0-19-12.23h0a20.91,20.91,0,0,0-19,12.22L275.17,372.23,122.09,586.8a20.89,20.89,0,0,0,17,33,19.27,19.27,0,0,0,2-.1L403,594.49,665.59,619.8c.67.06,1.33.09,2,.09a20.88,20.88,0,0,0,17-33ZM421.15,149h0l0,0Zm-17.67,38.78L481,358H325.94ZM486.37,398.3l-83,143.76-83-143.76ZM179.65,575.52l108.6-152.23,77.54,134.29ZM440.9,557.65l77.54-134.29L627,575.59Z"/><rect class="cls-1" x="1241.56" y="219.26" width="44.75" height="301.48"/><path class="cls-1" d="M1605.88,520.74h-35a28.32,28.32,0,0,1-23.57-12.63L1456.55,371.7l-46.32,50.24v98.8h-44.76V219.26h27a17.8,17.8,0,0,1,17.8,17.8V366.21L1532.59,229.3a30.11,30.11,0,0,1,22.45-10h38L1484.3,340.31Z"/><path class="cls-1" d="M883.87,520.74H919a28.33,28.33,0,0,0,23.42-12.4l38.65-56.9h135.21v69.3h44.75V219.26h-51a38.7,38.7,0,0,0-32,16.89Zm123.4-107.8,109-160.51V412.94Z"/><path class="cls-1" d="M928.47,257.87l-111.11,0v262.9H772.6V257.84H646.08l14.39-21.39a38.71,38.71,0,0,1,32.12-17.11H975l-14.34,21.38A38.72,38.72,0,0,1,928.47,257.87Z"/><path class="cls-1" d="M1707.06,520.74c-46.06,0-67.51-21.45-67.51-67.51V286.77c0-46.06,21.45-67.51,67.51-67.51h107.21c46.06,0,67.51,21.45,67.51,67.51V453.23c0,46.06-21.45,67.51-67.51,67.51Zm2.83-263.31c-15.79,0-25.59,9.8-25.59,25.58V457c0,15.78,9.8,25.58,25.59,25.58h101.56c15.78,0,25.58-9.8,25.58-25.58V283c0-15.78-9.8-25.58-25.58-25.58Z"/></g></svg>