<svg xmlns="http://www.w3.org/2000/svg" viewBox="0 0 1000 1000"><defs><style>.cls-1{opacity:0.5;}</style></defs><g id="Layer_4" data-name="Layer 4"><path d="M761.11,560.58,619.34,361.86,517,137.32a19.48,19.48,0,0,0-17.69-11.39h0a19.5,19.5,0,0,0-17.69,11.38L379.86,360.7,237.31,560.51a19.45,19.45,0,0,0,15.84,30.74q.93,0,1.86-.09l243.84-23.5L743.4,591.23q.95.09,1.86.09a19.45,19.45,0,0,0,15.85-30.74ZM515.79,152.88h0v0ZM499.33,189l72.2,158.46H427.13Zm77.19,196L499.23,518.85,421.94,385ZM290.91,550,392,408.24l72.2,125.06Zm243.27-16.64,72.2-125L707.51,550.07Z"/><rect x="486.29" y="688.29" width="27.43" height="184.76"/><path d="M709.55,873.05H688.13a17.35,17.35,0,0,1-14.45-7.74L618,781.71,589.65,812.5v60.55H562.23V688.29h16.52a10.9,10.9,0,0,1,10.9,10.91v79.15l75-83.9a18.45,18.45,0,0,1,13.76-6.16h23.26l-66.61,74.18Z"/><path d="M267.08,873.05h21.56a17.37,17.37,0,0,0,14.35-7.6l23.69-34.87h82.86v42.47H437V688.29H405.72a23.75,23.75,0,0,0-19.6,10.35ZM342.71,807l66.83-98.37V807Z"/><path d="M294.41,712l-68.09,0V873.05H198.9V711.93H121.36l8.82-13.1a23.69,23.69,0,0,1,19.68-10.49H322.91l-8.79,13.1A23.72,23.72,0,0,1,294.41,712Z"/><path d="M771.57,873.05c-28.23,0-41.38-13.15-41.38-41.38v-102c0-28.23,13.15-41.38,41.38-41.38h65.69c28.23,0,41.38,13.15,41.38,41.38v102c0,28.23-13.15,41.38-41.38,41.38Zm1.73-161.37c-9.68,0-15.68,6-15.68,15.68V834c0,9.67,6,15.68,15.68,15.68h62.23c9.68,0,15.68-6,15.68-15.68V727.36c0-9.67-6-15.68-15.68-15.68Z"/></g></svg>