<svg id="Layer_1" data-name="Layer 1" xmlns="http://www.w3.org/2000/svg" viewBox="0 0 1000 1000"><defs><style>.cls-1{fill:#e28bfd;}</style></defs><g id="Layer_4" data-name="Layer 4"><path class="cls-1" d="M762.69,561.3,620.49,362,517.84,136.76a19.52,19.52,0,0,0-17.74-11.42h0a19.55,19.55,0,0,0-17.74,11.41L380.29,360.81l-143,200.42a19.51,19.51,0,0,0,15.89,30.83c.62,0,1.24,0,1.87-.09L499.64,568.4,744.92,592c.64.06,1.26.09,1.87.09a19.51,19.51,0,0,0,15.9-30.83ZM516.63,152.37ZM500.12,188.6l72.42,158.93H427.7Zm77.42,196.59L500,519.44,422.5,385.19ZM291.07,550.68,392.47,408.5l72.42,125.43Zm244-16.69,72.41-125.37L708.93,550.75Z"/></g><g id="Layer_4-2" data-name="Layer 4"><path d="M280.83,869.67,343.5,683.33h38.27l62.66,186.34-3.32,5H422l-15.8-48.25H319.1l-15.81,48.25H284.16ZM326,805.34h73.21L366,704.41h-6.65Z"/><path d="M480.69,874.66V683.33H504V874.66Z"/><path d="M553.89,874.66V683.33h23.29v98.16l87.9-98.16h21.35l2.5,5.27-66,73.48,72.38,107.31-2.22,5.27H671.46L607.68,779l-30.5,33.55v62.11Z"/><path d="M124.46,704.41V683.33H275.3v21.08H211.53V874.66H188.24V704.41Z"/><path d="M725.8,832.24V725.76q0-42.43,42.43-42.43h64.89q42.42,0,42.42,42.43V832.24q0,42.42-42.42,42.42H768.23Q725.81,874.66,725.8,832.24Zm23.3,2.49q0,18.85,18.85,18.86h65.44q18.86,0,18.86-18.86V723.26q0-18.85-18.86-18.85H768q-18.86,0-18.85,18.85Z"/></g></svg>