<svg id="Layer_1" data-name="Layer 1" xmlns="http://www.w3.org/2000/svg" viewBox="0 0 2000 740"><defs><style>.cls-1{fill:#e28bfd;}</style></defs><g id="Layer_4" data-name="Layer 4"><path class="cls-1" d="M673.42,581.51,525,373.39,417.8,138.23a20.4,20.4,0,0,0-18.53-11.92h0a20.38,20.38,0,0,0-18.53,11.91l-106.61,234L124.85,581.43a20.38,20.38,0,0,0,16.57,32.18,18.25,18.25,0,0,0,2-.1l255.41-24.59,256.08,24.69c.66.06,1.3.08,2,.08a20.36,20.36,0,0,0,16.58-32.18Zm-256.93-427ZM399.26,192.3l75.6,166H323.64ZM480.1,397.6l-81,140.19L318.21,397.6ZM181,570.42,286.89,422l75.61,131ZM435.75,553l75.62-131L617.24,570.49Z"/><path d="M956.41,509.08l97.21-289H1113l97.21,289-5.16,7.74h-29.68L1150.83,442H1015.77l-24.52,74.84H961.57Zm70.11-99.79h113.56l-51.62-156.57h-10.32Z"/><path d="M1266.42,516.82V220h36.13V516.82Z"/><path d="M1380,516.82V220h36.14V372.3L1552.46,220h33.12l3.87,8.17-102.37,114,112.26,166.46-3.44,8.17h-33.55l-98.93-148.39-47.31,52v96.35Z"/><path d="M713.84,252.72V220h234v32.69H848.9v264.1H812.77V252.72Z"/><path d="M1646.65,451V285.84q0-65.8,65.82-65.81h100.65q65.81,0,65.81,65.81V451q0,65.82-65.81,65.81H1712.47Q1646.65,516.82,1646.65,451Zm36.14,3.88q0,29.25,29.24,29.24h101.52q29.23,0,29.25-29.24V282q0-29.25-29.25-29.25H1712q-29.25,0-29.24,29.25Z"/></g></svg>