<?xml version="1.0" encoding="utf-8"?>
<!-- Generator: Adobe Illustrator 26.0.3, SVG Export Plug-In . SVG Version: 6.00 Build 0)  -->
<svg version="1.1" id="Layer_1" xmlns="http://www.w3.org/2000/svg" xmlns:xlink="http://www.w3.org/1999/xlink" x="0px" y="0px"
	 viewBox="0 0 1000 1000" style="enable-background:new 0 0 1000 1000;" xml:space="preserve">
<g>
	<path d="M812.8,684.58L643.49,447.25l-122.2-268.2c-3.76-8.26-12.06-13.59-21.14-13.59c-9.07,0-17.37,5.33-21.14,13.59
		L357.45,445.86L187.2,684.5c-5.27,7.39-5.75,17.24-1.21,25.1c4.17,7.22,11.9,11.61,20.13,11.61c0.74,0,1.48-0.03,2.22-0.11
		l291.25-28.07l292.09,28.15c0.74,0.07,1.48,0.11,2.22,0.11c8.23,0,15.96-4.4,20.13-11.61C818.55,701.83,818.08,691.97,812.8,684.58
		z M500.15,240.76l86.23,189.26H413.92L500.15,240.76z M592.34,474.85l-92.32,159.89l-92.32-159.89H592.34z M251.21,671.95
		L372,502.64L458.23,652L251.21,671.95z M541.77,652.08L628,502.72l120.79,169.31L541.77,652.08z"/>
</g>
<g>
</g>
<g>
</g>
<g>
</g>
<g>
</g>
<g>
</g>
<g>
</g>
<g>
</g>
<g>
</g>
<g>
</g>
<g>
</g>
<g>
</g>
<g>
</g>
<g>
</g>
<g>
</g>
<g>
</g>
</svg>
