<svg width="159" height="159" viewBox="0 0 159 159" fill="none" xmlns="http://www.w3.org/2000/svg">
<path d="M71.1746 5.69045C76.3262 2.71126 82.6733 2.71126 87.8249 5.69045L139.152 35.3733C144.305 38.3525 147.478 43.8583 147.478 49.8167V109.182C147.478 115.141 144.305 120.647 139.152 123.625L87.8249 153.309C82.6733 156.287 76.3262 156.287 71.1746 153.309L19.8466 123.625C14.695 120.647 11.5215 115.141 11.5215 109.182V49.8167C11.5215 43.8583 14.695 38.3525 19.8466 35.3733L71.1746 5.69045Z" fill="url(#paint0_linear_3016_24484)"/>
<path d="M98.8489 62.8349C98.8918 62.3744 99.0514 61.7145 99.567 61.1283C100.233 60.3701 101.101 60.1829 101.632 60.143H109.962C110.95 60.143 111.754 59.3419 111.754 58.3505V49.0318C111.754 48.0435 110.953 47.2393 109.962 47.2393H100.644C99.6561 47.2393 98.852 48.0404 98.852 49.0318V57.3437C98.8213 57.8072 98.6709 58.5838 98.0449 59.2497C97.4924 59.8361 96.8265 60.0632 96.3232 60.146H87.7393C86.751 60.146 85.9471 60.9471 85.9471 61.9386V70.2505C85.9163 70.714 85.7659 71.4906 85.1398 72.1566C84.5875 72.7429 83.9215 72.97 83.4182 73.0529H75.5372C75.0338 72.97 74.3678 72.7429 73.8155 72.1566C73.306 71.6164 73.1126 71.0056 73.042 70.5452V61.9417C73.042 60.9534 72.241 60.1491 71.2498 60.1491H62.6352C62.132 60.0663 61.466 59.8391 60.9135 59.2529C60.4041 58.7126 60.2107 58.1018 60.1402 57.6414V49.0318C60.1402 48.0435 59.3392 47.2393 58.3479 47.2393H49.0306C48.0393 47.2393 47.2383 48.0404 47.2383 49.0318V58.3505C47.2383 59.3388 48.0393 60.143 49.0306 60.143H57.3259C57.8568 60.1829 58.7253 60.3732 59.3913 61.1283C60.2231 62.0736 60.1279 63.2093 60.1094 63.3997L60.1432 63.3689V70.2444C60.1126 70.7079 59.9622 71.4845 59.3361 72.1504C58.7836 72.7367 58.1177 72.9638 57.6144 73.0467H49.0306C48.0424 73.0467 47.2383 73.8478 47.2383 74.8392V109.968C47.2383 110.957 48.0393 111.761 49.0306 111.761H58.3479C59.3361 111.761 60.1402 110.96 60.1402 109.968V75.7386C60.1832 75.2782 60.3428 74.6182 60.8584 74.032C61.5243 73.2739 62.3928 73.0867 62.9237 73.0467H70.2309C70.7619 73.0867 71.6304 73.2769 72.2963 74.032C73.128 74.9774 73.0328 76.1131 73.0145 76.3033L73.0482 76.2727V84.1579C73.0482 85.1462 73.8492 85.9505 74.8404 85.9505H84.1579C85.1461 85.9505 85.9501 85.1494 85.9501 84.1579V75.7355C85.993 75.2751 86.1526 74.6151 86.6682 74.0289C87.3342 73.2708 88.2027 73.0836 88.7336 73.0437H96.0408C96.5717 73.0836 97.4402 73.2739 98.1062 74.0289C98.9379 74.9743 98.8428 76.11 98.8243 76.3003L98.8581 76.2695V109.965C98.8581 110.954 99.6591 111.758 100.65 111.758H109.968C110.956 111.758 111.76 110.957 111.76 109.965V74.8392C111.76 73.8509 110.959 73.0467 109.968 73.0467H101.353C100.85 72.9638 100.184 72.7367 99.6315 72.1504C99.122 71.6103 98.9287 70.9994 98.8581 70.539V62.8317L98.8489 62.8349Z" fill="white"/>
<defs>
<linearGradient id="paint0_linear_3016_24484" x1="42.0541" y1="24.7713" x2="79.635" y2="148.012" gradientUnits="userSpaceOnUse">
<stop stop-color="#0F51FB"/>
<stop offset="0.444764" stop-color="#6324FB"/>
<stop offset="1" stop-color="#EF3678"/>
</linearGradient>
</defs>
</svg>
