<svg width="256" height="256" viewBox="0 0 256 256" fill="none" xmlns="http://www.w3.org/2000/svg">
    <rect width="256" height="256" fill="black" />
    <path fill-rule="evenodd" clip-rule="evenodd"
        d="M209.099 81.2938L128.049 34.5L47 81.2938V174.881L128.049 221.675L209.099 174.881V81.2938ZM60.0305 175.476L121.054 210.708L100.713 175.476H60.0305ZM203.099 163.582V92.7603L182.654 128.171L203.099 163.582ZM121.198 45.3836L59.7507 80.8604L100.716 80.8604L121.198 45.3836ZM53.0049 86.8604L100.076 86.8604V169.476H53.0049L53.0049 86.8604ZM177.74 131.66L106.193 172.968L129.728 213.733L201.276 172.424L177.74 131.66ZM106.232 83.3055L177.78 124.614L201.315 83.8489L129.768 42.5409L106.232 83.3055ZM106.076 166.107V90.1434L171.862 128.125L106.076 166.107Z"
        fill="url(#paint0_linear_332_326)" />
    <defs>
        <linearGradient id="paint0_linear_332_326" x1="46.9997" y1="176.75" x2="133.434" y2="37.1969"
            gradientUnits="userSpaceOnUse">
            <stop stop-color="#0CFFF0" />
            <stop offset="1" stop-color="#0CFFA7" />
        </linearGradient>
    </defs>
</svg>