<svg xmlns="http://www.w3.org/2000/svg" width="128" height="128" viewBox="0 0 128 128" fill="none"><path d="M128 64C128 99.3462 99.3462 128 64 128C28.6538 128 0 99.3462 0 64C0 28.6538 28.6538 0 64 0C99.3462 0 128 28.6538 128 64Z" fill="white"></path><path d="M128 64C128 99.3462 99.3462 128 64 128C28.6538 128 0 99.3462 0 64C0 28.6538 28.6538 0 64 0C99.3462 0 128 28.6538 128 64Z" fill="url(#paint0_radial_760_34135)"></path><path fill-rule="evenodd" clip-rule="evenodd" d="M64 125C97.6894 125 125 97.6894 125 64C125 30.3106 97.6894 3 64 3C30.3106 3 3 30.3106 3 64C3 97.6894 30.3106 125 64 125ZM64 128C99.3462 128 128 99.3462 128 64C128 28.6538 99.3462 0 64 0C28.6538 0 0 28.6538 0 64C0 99.3462 28.6538 128 64 128Z" fill="url(#paint1_radial_760_34135)"></path><path d="M97.4523 62.8773C99.668 62.8773 101.707 61.8747 103.572 59.9851C103.943 60.6488 104.124 61.4036 104.096 62.1655C104.064 63.0152 103.887 63.8529 103.572 64.6415L103.69 64.8183C107.184 64.6415 109.225 63.6405 111.266 62.0482C111.5 63.5248 111.5 64.1804 111.5 65.9478C111.5 73.4997 104.797 80.7463 95.9338 80.7463C87.198 80.7463 80.4316 73.5527 80.4316 65.2393H79.4993C78.9164 66.8316 78.6829 68.5412 78.9164 70.8405C69.183 74.7915 66.5607 81.0998 66.5607 87.1718H60.6775C60.3669 83.9025 60.6632 80.6034 61.5511 77.4443C62.3087 74.7915 63.708 71.3707 66.3304 68.7179L65.5727 67.892C62.0784 70.7232 61.4923 71.7837 58.4618 75.7926C55.957 76.3244 53.8556 77.7978 50.3025 77.7978C48.0296 77.7978 45.6407 77.4443 41.7937 75.6158C42.9056 73.67 43.6585 71.9026 43.8332 68.6601H42.6673C40.3372 78.2702 31.1281 79.8609 27.1652 80.5695C23.6708 81.1592 22.4446 83.812 22.4446 86.4053C22.4392 86.6621 22.4584 86.9187 22.5018 87.1718H19.1742C19.0576 86.3124 18.9992 85.4459 18.9995 84.5784C18.9995 82.6921 19.1155 80.8041 19.9906 79.2134C23.1451 73.8435 25.7658 71.8383 25.7658 67.7153C25.7658 63.4702 22.6765 60.6455 22.5018 60.4639C24.3093 60.1634 24.951 58.396 26.174 56.5096C28.8551 52.3224 33.3422 51.6748 35.6739 51.6748C37.9468 51.6748 39.2873 51.9689 41.5603 51.9689C51.9925 51.9689 57.2387 40 69.9439 40C77.9872 40 83.5241 45.8969 84.339 53.4969L84.5137 53.5564C85.5636 52.377 87.3727 50.7847 89.4677 50.0777C89.4677 50.3734 89.4105 50.7204 89.4105 51.0803C89.4105 56.7442 90.9258 62.8773 97.4523 62.8773ZM42.6673 87.1669H37.3639C35.5579 85.4573 34.3921 82.864 34.0998 81.3825C37.3639 79.9686 38.822 78.9065 40.6279 77.1374L41.6778 77.9633C41.0148 79.1281 40.6726 80.4514 40.6867 81.7955C40.6867 83.0986 40.6867 83.865 42.6673 87.1669ZM74.5484 87.1669H69.7691C69.7691 80.682 71.6338 78.3827 74.315 75.7877L75.1314 76.4305C74.0195 78.9065 73.9068 80.6161 73.9068 82.2679C73.9068 84.3969 74.1402 85.8108 74.5484 87.1669Z" fill="url(#paint2_radial_760_34135)"></path><defs><radialGradient id="paint0_radial_760_34135" cx="0" cy="0" r="1" gradientUnits="userSpaceOnUse" gradientTransform="translate(64 64) rotate(90) scale(64)"><stop offset="0.603142" stop-color="white" stop-opacity="0"></stop><stop offset="1" stop-color="#F99F64"></stop></radialGradient><radialGradient id="paint1_radial_760_34135" cx="0" cy="0" r="1" gradientUnits="userSpaceOnUse" gradientTransform="rotate(45) scale(181.019)"><stop stop-color="#FED681"></stop><stop offset="1" stop-color="#F25E40"></stop></radialGradient><radialGradient id="paint2_radial_760_34135" cx="0" cy="0" r="1" gradientUnits="userSpaceOnUse" gradientTransform="translate(18.9995 40) rotate(27.02) scale(103.834 84.0458)"><stop stop-color="#FED681"></stop><stop offset="1" stop-color="#F25E40"></stop></radialGradient></defs></svg>