<svg width="128" height="128" viewBox="0 0 128 128" fill="none" xmlns="http://www.w3.org/2000/svg">
<rect width="128" height="128" fill="url(#paint0_linear_523_3518)"/>
<path d="M61.2155 72.4659V90.0938H51.0241V74.8213L46.5278 69.7305H30.1915V90.0938H20V36.9062H52.8975L60.9158 45.1123V61.2205L55.8201 66.4633L61.2155 72.4659ZM30.1915 61.2205H48.2514L50.8742 58.5612V48.2276L48.2514 45.5682H30.1915V61.2205Z" fill="black"/>
<path d="M66.2854 81.3558V45.6442L74.9032 36.9062H100.532L109 45.4922V53.6223H98.8082V49.2913L95.2862 45.7202H80.2987L76.4769 49.5953V77.4047L80.2987 81.2798H95.2862L98.8082 77.7087V73.3777H109V81.5078L100.532 90.0938H74.9032L66.2854 81.3558Z" fill="black"/>
<defs>
<linearGradient id="paint0_linear_523_3518" x1="-3.86238e-05" y1="128" x2="128" y2="-3.86238e-05" gradientUnits="userSpaceOnUse">
<stop stop-color="#FFEB36"/>
<stop offset="1" stop-color="#6AFF36"/>
</linearGradient>
</defs>
</svg>
