<svg width="173" height="66" viewBox="0 0 173 66" fill="none" xmlns="http://www.w3.org/2000/svg">
<rect x="1.5" y="1.73598" width="170" height="62" rx="31" fill="#E81899" fill-opacity="0.6"/>
<rect x="1.5" y="1.73598" width="170" height="62" rx="31" stroke="url(#paint0_linear_1_11)" stroke-width="3"/>
<path d="M32.5955 46.236V18.6054C32.7357 18.6054 33.1242 18.6054 33.7611 18.6054C34.4108 18.6054 35.1688 18.6054 36.035 18.6054C36.914 18.6054 37.7866 18.6118 38.6529 18.6245C39.5318 18.6245 40.2643 18.6309 40.8503 18.6436C44.2006 18.7201 46.9331 19.3188 49.0478 20.4398C51.1624 21.5608 52.7102 23.1277 53.6911 25.1404C54.6847 27.1532 55.1815 29.5354 55.1815 32.2869C55.1815 35.1532 54.6592 37.6309 53.6146 39.7201C52.57 41.7965 50.9713 43.4016 48.8185 44.5353C46.6783 45.6691 43.9586 46.236 40.6592 46.236H32.5955ZM38.2134 41.7264H40.7739C42.3535 41.7264 43.7866 41.4207 45.0732 40.8092C46.3726 40.1978 47.4108 39.1978 48.1879 37.8092C48.965 36.4207 49.3535 34.5672 49.3535 32.2487C49.3535 30.0959 49.0095 28.3506 48.3216 27.0131C47.6337 25.6627 46.6529 24.6755 45.379 24.0513C44.1051 23.4271 42.5955 23.115 40.8503 23.115H38.2134V41.7264ZM72.7316 46.6181C70.1201 46.6181 67.859 46.0513 65.9481 44.9175C64.05 43.771 62.5787 42.1468 61.5341 40.0449C60.5023 37.9303 59.9863 35.408 59.9863 32.478C59.9863 29.5354 60.5086 27.0003 61.5532 24.8729C62.6105 22.7455 64.0946 21.1086 66.0054 19.9621C67.9163 18.8029 70.1583 18.2233 72.7316 18.2233C75.2921 18.2233 77.5214 18.7965 79.4195 19.943C81.3175 21.0895 82.7825 22.7264 83.8144 24.8538C84.8589 26.9812 85.3812 29.5226 85.3812 32.478C85.3812 35.3952 84.8653 37.9111 83.8335 40.0258C82.8144 42.1404 81.3558 43.771 79.4577 44.9175C77.5596 46.0513 75.3175 46.6181 72.7316 46.6181ZM72.7316 42.0322C74.0819 42.0322 75.2475 41.7137 76.2284 41.0767C77.222 40.4271 77.9863 39.408 78.5214 38.0194C79.0564 36.6181 79.3239 34.7965 79.3239 32.5545C79.3239 30.2487 79.05 28.3825 78.5023 26.9557C77.9672 25.529 77.2029 24.4844 76.2093 23.822C75.2284 23.1468 74.0691 22.8092 72.7316 22.8092C71.394 22.8092 70.2284 23.1468 69.2347 23.822C68.2411 24.4844 67.4704 25.5354 66.9226 26.9748C66.3749 28.4016 66.101 30.2615 66.101 32.5545C66.101 34.8092 66.3749 36.6309 66.9226 38.0194C67.4704 39.408 68.2411 40.4271 69.2347 41.0767C70.2284 41.7137 71.394 42.0322 72.7316 42.0322ZM102.46 46.6181C99.8872 46.6181 97.6643 46.0194 95.7917 44.822C93.919 43.6245 92.4732 41.943 91.4541 39.7774C90.4477 37.6118 89.9445 35.0831 89.9445 32.1914C89.9445 29.2869 90.4477 26.7965 91.4541 24.7201C92.4604 22.6309 93.8999 21.0258 95.7725 19.9048C97.6452 18.7838 99.8745 18.2233 102.46 18.2233C104.537 18.2233 106.384 18.6436 108.002 19.4844C109.632 20.3124 110.945 21.4462 111.938 22.8857C112.945 24.3252 113.537 25.9494 113.715 27.7583H107.868C107.69 26.8029 107.365 25.9557 106.894 25.2169C106.422 24.4653 105.804 23.8793 105.04 23.4589C104.276 23.0258 103.359 22.8092 102.288 22.8092C101.002 22.8092 99.8936 23.1213 98.9636 23.7455C98.0337 24.3697 97.3203 25.3761 96.8235 26.7647C96.3267 28.1532 96.0783 29.9876 96.0783 32.2678C96.0783 35.7073 96.626 38.1978 97.7216 39.7392C98.8299 41.2678 100.352 42.0322 102.288 42.0322C103.359 42.0322 104.276 41.7901 105.04 41.306C105.804 40.8092 106.422 40.1595 106.894 39.357C107.365 38.5417 107.69 37.65 107.868 36.6818H113.715C113.55 37.9939 113.231 39.2487 112.76 40.4462C112.288 41.6309 111.62 42.6882 110.753 43.6181C109.887 44.5481 108.773 45.2806 107.409 45.8156C106.046 46.3506 104.397 46.6181 102.46 46.6181ZM130.14 46.6181C128.764 46.6181 127.42 46.4462 126.108 46.1022C124.796 45.7583 123.598 45.2423 122.515 44.5544C121.433 43.8666 120.541 43.0067 119.84 41.9748C119.152 40.943 118.738 39.7328 118.598 38.3443H124.312C124.503 39.185 124.866 39.892 125.401 40.4653C125.949 41.0385 126.649 41.478 127.503 41.7838C128.369 42.0895 129.356 42.2423 130.464 42.2423C131.343 42.2423 132.178 42.115 132.968 41.8602C133.757 41.6054 134.401 41.2169 134.898 40.6946C135.394 40.1723 135.643 39.5162 135.643 38.7264C135.643 37.7838 135.299 37.0767 134.611 36.6054C133.923 36.1213 132.987 35.7392 131.802 35.4589L126.624 34.3315C125.159 34.0258 123.879 33.5545 122.783 32.9175C121.7 32.2678 120.866 31.4271 120.28 30.3952C119.694 29.3506 119.401 28.0831 119.401 26.5927C119.401 24.8729 119.872 23.3889 120.815 22.1405C121.77 20.892 123.063 19.9366 124.694 19.2742C126.337 18.5991 128.178 18.2615 130.216 18.2615C132.522 18.2615 134.464 18.6373 136.044 19.3889C137.636 20.1277 138.853 21.1341 139.694 22.408C140.535 23.6691 140.961 25.0768 140.974 26.6309H135.394C135.293 25.6755 135 24.9112 134.515 24.3379C134.031 23.7519 133.407 23.3315 132.643 23.0768C131.891 22.8092 131.031 22.6755 130.063 22.6755C128.394 22.6755 127.178 23.0131 126.414 23.6882C125.649 24.3634 125.267 25.1468 125.267 26.0385C125.267 26.8793 125.554 27.5608 126.127 28.0831C126.713 28.5927 127.649 28.9812 128.936 29.2487L133.732 30.2806C135.515 30.6245 136.961 31.1723 138.07 31.9239C139.178 32.6627 139.987 33.5608 140.496 34.6182C141.006 35.6755 141.261 36.8602 141.261 38.1723C141.261 39.8411 140.783 41.3124 139.828 42.5863C138.885 43.8474 137.579 44.8347 135.91 45.5481C134.242 46.2615 132.318 46.6181 130.14 46.6181Z" fill="white"/>
<defs>
<linearGradient id="paint0_linear_1_11" x1="179" y1="0.235946" x2="-11.3389" y2="-31.8744" gradientUnits="userSpaceOnUse">
<stop stop-color="#E81899"/>
<stop offset="0.382163" stop-color="#F99DC9"/>
<stop offset="0.590208" stop-color="#FD4474"/>
<stop offset="0.88401" stop-color="#FF715B"/>
</linearGradient>
</defs>
</svg>
