<svg width="421" height="186" viewBox="0 0 421 186" fill="none" xmlns="http://www.w3.org/2000/svg">
<rect x="5.94922" y="5.33105" width="409.985" height="175.496" rx="87.7481" fill="#E81899" fill-opacity="0.8"/>
<rect x="5.94922" y="5.33105" width="409.985" height="175.496" rx="87.7481" stroke="url(#paint0_linear_778_18)" stroke-width="10"/>
<path d="M142.731 131.579H130.373L129.68 123.148C127.448 126.382 124.637 128.692 121.25 130.078C117.862 131.464 114.051 132.234 109.816 132.388C105.12 132.311 101.078 131.464 97.69 129.847C94.3023 128.153 91.4921 125.92 89.2593 123.148C87.0265 120.3 85.3712 117.028 84.2933 113.332C83.2924 109.636 82.7919 105.71 82.7919 101.552C82.7919 97.0095 83.3694 92.8134 84.5243 88.9638C85.7561 85.1141 87.5655 81.765 89.9522 78.9162C92.339 76.0675 95.2647 73.8347 98.7294 72.2179C102.194 70.5241 106.236 69.6771 110.856 69.6771C114.166 69.6771 117.516 70.2161 120.903 71.294C124.291 72.3719 127.178 74.3737 129.565 77.2994V49.9286H142.731V131.579ZM112.357 81.5725C109.431 81.5725 106.929 82.0729 104.85 83.0738C102.771 84.0747 101.039 85.4606 99.6533 87.2314C98.3444 89.0023 97.382 91.1195 96.7661 93.5833C96.1501 95.9701 95.8422 98.5493 95.8422 101.321C95.8422 104.093 96.1501 106.672 96.7661 109.059C97.382 111.446 98.3444 113.524 99.6533 115.295C101.039 117.066 102.771 118.49 104.85 119.568C107.006 120.569 109.585 121.07 112.588 121.07C115.437 121.07 117.901 120.531 119.979 119.453C122.135 118.298 123.906 116.797 125.292 114.949C126.755 113.101 127.833 110.984 128.525 108.597C129.218 106.21 129.565 103.746 129.565 101.206C129.565 98.5108 129.218 95.9701 128.525 93.5833C127.91 91.1965 126.909 89.1562 125.523 87.4624C124.137 85.6916 122.366 84.3057 120.21 83.3048C118.054 82.2269 115.437 81.6495 112.357 81.5725ZM184.427 69.6771C189.278 69.6771 193.551 70.4471 197.247 71.9869C200.942 73.5268 204.061 75.6826 206.601 78.4543C209.219 81.149 211.182 84.4212 212.491 88.2708C213.8 92.1205 214.454 96.3935 214.454 101.09C214.454 105.864 213.8 110.175 212.491 114.025C211.259 117.797 209.373 121.07 206.832 123.841C204.291 126.613 201.135 128.73 197.362 130.193C193.667 131.656 189.355 132.388 184.427 132.388C179.577 132.388 175.304 131.656 171.608 130.193C167.913 128.653 164.794 126.536 162.254 123.841C159.79 121.07 157.904 117.759 156.595 113.909C155.363 110.06 154.747 105.787 154.747 101.09C154.747 96.3935 155.363 92.1205 156.595 88.2708C157.904 84.4212 159.828 81.149 162.369 78.4543C164.91 75.6826 168.028 73.5268 171.724 71.9869C175.419 70.4471 179.654 69.6771 184.427 69.6771ZM184.427 120.954C187.43 120.954 189.971 120.454 192.05 119.453C194.205 118.375 195.938 116.951 197.247 115.18C198.633 113.409 199.633 111.33 200.249 108.943C200.942 106.557 201.289 103.977 201.289 101.206C201.289 98.4338 200.942 95.8546 200.249 93.4678C199.633 91.0041 198.633 88.8868 197.247 87.1159C195.938 85.3451 194.205 83.9592 192.05 82.9583C189.971 81.9574 187.43 81.457 184.427 81.457C181.502 81.457 178.999 81.9574 176.921 82.9583C174.842 83.9592 173.11 85.3451 171.724 87.1159C170.338 88.8868 169.298 91.0041 168.605 93.4678C167.99 95.8546 167.682 98.4338 167.682 101.206C167.682 103.977 167.99 106.557 168.605 108.943C169.298 111.33 170.299 113.409 171.608 115.18C172.994 116.951 174.726 118.375 176.805 119.453C178.961 120.454 181.502 120.954 184.427 120.954ZM253.211 132.388C248.283 132.388 244.01 131.656 240.392 130.193C236.773 128.653 233.732 126.536 231.268 123.841C228.881 121.07 227.072 117.797 225.84 114.025C224.685 110.175 224.108 105.941 224.108 101.321C224.108 96.7015 224.724 92.4669 225.956 88.6173C227.264 84.7677 229.189 81.457 231.73 78.6853C234.271 75.9135 237.35 73.7192 240.969 72.1024C244.588 70.4856 248.784 69.6771 253.557 69.6771C260.564 69.6771 266.377 71.294 270.996 74.5277C275.616 77.6844 278.541 82.7274 279.773 89.6567H266.261C265.568 86.962 264.067 84.9217 261.757 83.5358C259.447 82.1499 256.637 81.457 253.326 81.457C250.401 81.457 247.898 81.9959 245.82 83.0738C243.741 84.1517 242.047 85.6146 240.738 87.4624C239.429 89.3102 238.467 91.466 237.851 93.9298C237.312 96.3165 237.042 98.8188 237.042 101.437C237.042 104.131 237.35 106.672 237.966 109.059C238.582 111.446 239.545 113.524 240.854 115.295C242.162 116.989 243.856 118.375 245.935 119.453C248.014 120.454 250.516 120.954 253.442 120.954C256.907 120.954 259.755 120.184 261.988 118.644C264.298 117.105 265.761 115.064 266.377 112.523H280.004C279.388 115.988 278.233 118.991 276.54 121.532C274.923 124.072 272.921 126.151 270.534 127.768C268.147 129.385 265.491 130.578 262.565 131.348C259.64 132.041 256.522 132.388 253.211 132.388ZM313.556 80.6486C312.402 80.6486 311.17 80.7256 309.861 80.8796C308.629 81.0335 307.436 81.38 306.281 81.9189C305.203 82.3809 304.279 83.0738 303.509 83.9977C302.816 84.9217 302.47 86.115 302.47 87.5779C302.47 89.1947 303.008 90.4651 304.086 91.389C305.241 92.3129 306.589 93.0829 308.128 93.6988C309.668 94.2377 311.285 94.6997 312.979 95.0847C314.75 95.3926 316.251 95.6621 317.483 95.8931C320.794 96.586 323.758 97.3174 326.376 98.0874C329.07 98.8573 331.342 99.8967 333.19 101.206C335.037 102.437 336.462 104.054 337.463 106.056C338.54 108.058 339.079 110.676 339.079 113.909C339.079 117.374 338.348 120.3 336.885 122.686C335.499 125.073 333.651 126.998 331.342 128.461C329.109 129.847 326.53 130.848 323.604 131.464C320.755 132.08 317.791 132.388 314.711 132.388C311.632 132.388 308.59 132.08 305.588 131.464C302.585 130.848 299.813 129.808 297.273 128.345C294.809 126.883 292.73 124.958 291.036 122.571C289.419 120.107 288.418 117.143 288.033 113.678H301.315C301.623 115.218 302.277 116.489 303.278 117.489C304.279 118.49 305.434 119.299 306.743 119.915C308.128 120.531 309.553 120.954 311.016 121.185C312.479 121.416 313.826 121.532 315.058 121.532C315.982 121.532 317.098 121.455 318.407 121.301C319.793 121.147 321.063 120.8 322.218 120.261C323.373 119.722 324.335 119.029 325.105 118.182C325.952 117.258 326.376 116.104 326.376 114.718C326.376 113.409 326.068 112.331 325.452 111.484C324.836 110.56 323.989 109.79 322.911 109.174C321.91 108.558 320.678 108.096 319.215 107.788C317.753 107.403 316.213 107.018 314.596 106.634C312.055 106.172 309.322 105.594 306.396 104.901C303.547 104.208 300.853 103.323 298.312 102.245C295.848 101.09 293.808 99.3962 292.191 97.1635C290.574 94.9307 289.766 92.082 289.766 88.6173C289.766 84.9217 290.497 81.8805 291.96 79.4937C293.423 77.1069 295.309 75.1821 297.619 73.7192C299.929 72.1794 302.508 71.14 305.357 70.6011C308.205 69.9851 311.016 69.6771 313.787 69.6771C320.486 69.6771 325.952 71.217 330.187 74.2967C334.498 77.3764 336.847 81.842 337.232 87.6934H324.874C324.489 85.2296 323.219 83.4973 321.063 82.4964C318.984 81.4185 316.482 80.8026 313.556 80.6486Z" fill="white"/>
<defs>
<linearGradient id="paint0_linear_778_18" x1="435.5" y1="0.330965" x2="-30.1385" y2="-66.4931" gradientUnits="userSpaceOnUse">
<stop stop-color="#E81899"/>
<stop offset="0.382163" stop-color="#F99DC9"/>
<stop offset="0.590208" stop-color="#FD4474"/>
<stop offset="0.88401" stop-color="#FF715B"/>
</linearGradient>
</defs>
</svg>
