<svg width="1822" height="255" viewBox="0 0 1822 255" fill="none" xmlns="http://www.w3.org/2000/svg">
<path d="M467.907 179.705C463.762 185.604 458.262 189.988 451.406 192.858C444.55 195.569 436.897 196.924 428.447 196.924C421.751 196.924 415.613 196.127 410.032 194.532C404.612 192.938 399.829 190.546 395.683 187.358C391.538 184.01 388.27 179.944 385.878 175.161C383.486 170.219 382.291 164.638 382.291 158.42C382.291 151.565 383.646 145.745 386.356 140.962C389.067 136.02 392.734 132.034 397.357 129.004C402.14 125.975 407.721 123.743 414.098 122.308C420.475 120.714 427.172 119.917 434.187 119.917H466.473C466.473 110.669 464.4 103.495 460.255 98.3929C456.109 93.291 448.855 90.6603 438.492 90.5008C432.433 90.5008 427.172 91.5372 422.708 93.6098C418.403 95.6825 415.533 99.1104 414.098 103.893H386.117C387.074 97.1971 389.226 91.5372 392.574 86.9135C396.082 82.2899 400.227 78.4635 405.01 75.4342C409.953 72.4049 415.374 70.2525 421.273 68.9771C427.331 67.7016 433.39 67.0638 439.448 67.0638C447.261 67.0638 454.515 68.1002 461.211 70.1728C467.907 72.2455 473.727 75.7531 478.669 80.6955C484.25 86.4352 487.996 93.2909 489.91 101.263C491.823 109.234 492.779 117.924 492.779 127.33V195.25H469.103L467.907 179.705ZM466.473 139.288H440.166C435.542 139.288 430.918 139.687 426.295 140.484C421.671 141.122 417.685 142.796 414.337 145.506C411.148 148.057 409.554 151.804 409.554 156.746C409.554 162.805 411.707 167.428 416.011 170.617C420.475 173.646 425.896 175.161 432.274 175.161C437.216 175.161 441.76 174.523 445.905 173.248C450.21 171.972 453.877 169.9 456.906 167.03C459.936 164.001 462.247 160.254 463.842 155.79C465.596 151.166 466.473 145.665 466.473 139.288Z" fill="#FAFAFA"/>
<path d="M537.598 16.8417C542.541 16.8417 546.606 18.3563 549.795 21.3856C553.143 24.4149 554.817 28.5602 554.817 33.8216C554.817 38.9235 553.143 42.9891 549.795 46.0184C546.606 49.0476 542.541 50.5623 537.598 50.5623C532.337 50.5623 528.112 49.0476 524.923 46.0184C521.734 42.9891 520.14 38.9235 520.14 33.8216C520.14 28.5602 521.734 24.4149 524.923 21.3856C528.112 18.3563 532.337 16.8417 537.598 16.8417ZM523.727 195.25V69.2162H550.991V195.25H523.727Z" fill="#FAFAFA"/>
<path d="M767.673 67.0638C777.717 67.0638 786.566 68.6582 794.219 71.8469C801.872 75.0356 808.329 79.4998 813.59 85.2395C819.011 90.8197 823.076 97.5957 825.787 105.567C828.497 113.539 829.852 122.388 829.852 132.113C829.852 141.998 828.497 150.927 825.787 158.899C823.236 166.711 819.33 173.487 814.068 179.227C808.807 184.966 802.27 189.351 794.458 192.38C786.805 195.409 777.876 196.924 767.673 196.924C757.628 196.924 748.779 195.409 741.127 192.38C733.474 189.191 727.017 184.807 721.755 179.227C716.653 173.487 712.747 166.631 710.037 158.659C707.486 150.688 706.21 141.839 706.21 132.113C706.21 122.388 707.486 113.539 710.037 105.567C712.747 97.5957 716.733 90.8197 721.994 85.2395C727.256 79.4998 733.713 75.0356 741.366 71.8469C749.019 68.6582 757.788 67.0638 767.673 67.0638ZM767.673 173.248C773.891 173.248 779.152 172.211 783.457 170.139C787.921 167.907 791.508 164.957 794.219 161.29C797.088 157.623 799.161 153.318 800.437 148.376C801.871 143.433 802.589 138.092 802.589 132.353C802.589 126.613 801.871 121.272 800.437 116.329C799.161 111.227 797.088 106.843 794.219 103.176C791.508 99.5089 787.921 96.6391 783.457 94.5664C779.152 92.4938 773.891 91.4574 767.673 91.4574C761.614 91.4574 756.432 92.4938 752.128 94.5664C747.823 96.6391 744.236 99.5089 741.366 103.176C738.496 106.843 736.344 111.227 734.909 116.329C733.633 121.272 732.995 126.613 732.995 132.353C732.995 138.092 733.633 143.433 734.909 148.376C736.344 153.318 738.416 157.623 741.127 161.29C743.996 164.957 747.584 167.907 751.889 170.139C756.353 172.211 761.614 173.248 767.673 173.248Z" fill="#FAFAFA"/>
<path d="M629.176 120.634H609.566V31.1693H582.542V195.25H609.566V144.31H630.851L664.093 195.25H695.661L652.613 129.244L692.313 69.2162H661.701L629.176 120.634Z" fill="#FAFAFA"/>
<path d="M363.856 68.8581H331.574V31.1693H323.232L284 84.4717V91.3644H304.146V153.744C304.146 168.469 307.463 179.068 314.098 185.541C320.894 192.013 332.14 195.25 347.836 195.25H362.885V171.463H350.263C342.982 171.463 338.046 169.683 335.457 166.123C332.868 162.563 331.574 157.142 331.574 149.861V91.3644H363.856V68.8581Z" fill="#FAFAFA"/>
<path d="M248.256 183.346L204.803 124.309C200.082 117.893 193.092 114.05 185.648 113.203C183.954 113.006 182.441 112.023 181.593 110.54C180.731 109.057 180.64 107.257 181.321 105.683C184.302 98.8144 184.483 90.8408 181.276 83.5481L151.878 16.401C147.521 6.43027 137.671 0 126.792 0C115.914 0 106.064 6.4454 101.707 16.401L72.3091 83.5481C69.1166 90.8408 69.2831 98.8144 72.2637 105.683C72.9445 107.257 72.8386 109.057 71.9913 110.54C71.1289 112.023 69.631 113.006 67.9364 113.203C60.4925 114.05 53.5024 117.893 48.7819 124.309L5.32833 183.346C-1.11707 192.106 -1.76767 203.847 3.66402 213.273C9.11084 222.684 19.6111 227.995 30.4139 226.8L103.265 218.69C111.178 217.812 118.002 213.682 122.45 207.66C123.464 206.283 125.083 205.466 126.792 205.466C128.502 205.466 130.106 206.283 131.135 207.66C135.583 213.682 142.407 217.812 150.32 218.69L223.171 226.8C233.974 228.01 244.474 222.699 249.921 213.273C255.352 203.847 254.702 192.106 248.256 183.346ZM91.3124 91.9756L120.755 24.7528C121.815 22.3471 124.19 20.7887 126.807 20.7887C129.425 20.7887 131.8 22.3471 132.86 24.7528L162.303 91.9756C163.226 94.0938 163.029 96.5448 161.758 98.4815C160.487 100.418 158.339 101.583 156.009 101.583H97.5914C95.2765 101.583 93.1129 100.418 91.842 98.4815C90.571 96.5448 90.3743 94.0938 91.2972 91.9756H91.3124ZM106.427 194.315C105.383 196.388 103.356 197.78 101.056 198.037L28.1293 206.147C25.5269 206.434 22.9851 205.164 21.6688 202.894C20.3524 200.624 20.5189 197.795 22.0773 195.677L65.5762 136.579C66.953 134.718 69.162 133.659 71.4769 133.795C73.7918 133.916 75.8797 135.202 77.0448 137.214L77.0902 137.29L106.216 187.734L106.261 187.809C107.426 189.822 107.486 192.273 106.442 194.33L106.427 194.315ZM132.784 171.499C131.543 173.632 129.274 174.964 126.792 174.964C124.326 174.964 122.042 173.648 120.801 171.514L98.4235 132.766C97.1829 130.633 97.1829 127.985 98.4235 125.852C99.6642 123.718 101.934 122.387 104.415 122.387H149.155C151.621 122.387 153.905 123.688 155.146 125.837C156.387 127.985 156.387 130.618 155.146 132.751L132.784 171.499ZM231.931 202.894C230.615 205.164 228.088 206.45 225.471 206.162L152.544 198.052C150.244 197.795 148.217 196.403 147.173 194.33C146.129 192.258 146.189 189.807 147.354 187.809L147.4 187.734L176.525 137.29L176.57 137.214C177.735 135.202 179.823 133.916 182.138 133.795C184.453 133.674 186.662 134.718 188.039 136.579L231.538 195.677C233.096 197.795 233.247 200.624 231.946 202.894H231.931Z" fill="#E81899"/>
<path d="M1712.41 195.247V26.2832H1728.18V90.3316C1730.41 86.5078 1733.04 83.2416 1736.07 80.5331C1739.26 77.8246 1742.84 75.4347 1746.82 73.3635C1750.81 71.4516 1755.11 70.0974 1759.73 69.3008C1764.51 68.3448 1769.29 67.8668 1774.07 67.8668C1780.76 67.8668 1786.73 68.8228 1791.99 70.7347C1797.25 72.6466 1801.71 75.1957 1805.38 78.3822C1811.43 83.4806 1815.65 90.0926 1818.04 98.2181C1820.43 106.344 1821.63 115.425 1821.63 125.463V195.247H1805.85V131.198C1805.85 123.71 1805.22 116.54 1803.94 109.689C1802.83 102.679 1800.28 96.7045 1796.29 91.7655C1793.59 88.579 1790.24 86.0298 1786.26 84.1179C1782.27 82.206 1777.26 81.2501 1771.2 81.2501C1764.67 81.2501 1758.61 82.6043 1753.04 85.3128C1747.62 87.862 1743.08 91.3672 1739.42 95.8282C1735.43 100.608 1732.56 106.105 1730.81 112.318C1729.06 118.532 1728.18 125.064 1728.18 131.915V195.247H1712.41Z" fill="#FAFAFA"/>
<path d="M1651.92 69.2998H1687.05V82.6831H1651.92V153.423C1651.92 157.725 1652.32 162.266 1653.11 167.045C1654.07 171.825 1656.54 175.489 1660.52 178.039C1662.59 179.313 1665.06 180.269 1667.93 180.906C1670.8 181.384 1673.59 181.623 1676.3 181.623H1685.85V195.246H1674.86C1669.44 195.246 1664.03 194.608 1658.61 193.334C1653.35 192.059 1648.73 189.43 1644.75 185.447C1641.72 182.261 1639.49 178.039 1638.06 172.781C1636.78 167.364 1636.15 161.23 1636.15 154.379V82.6831H1614.88V69.2998H1636.15V33.2129H1651.92V69.2998Z" fill="#FAFAFA"/>
<path d="M1496.78 137.411C1497.1 144.103 1498.22 150.237 1500.13 155.813C1502.2 161.39 1505.07 166.249 1508.73 170.391C1512.39 174.374 1516.86 177.561 1522.11 179.951C1527.53 182.181 1533.82 183.297 1540.99 183.297C1544.34 183.297 1547.69 182.978 1551.03 182.341C1554.54 181.703 1557.8 180.747 1560.83 179.473C1564.02 178.039 1566.88 176.207 1569.43 173.976C1571.98 171.746 1573.97 168.957 1575.41 165.612H1591.9C1590.15 171.188 1587.44 175.968 1583.77 179.951C1580.27 183.934 1576.2 187.2 1571.58 189.749C1566.96 192.139 1561.94 193.892 1556.53 195.007C1551.11 196.122 1545.69 196.68 1540.28 196.68C1530.4 196.68 1521.72 195.087 1514.23 191.9C1506.9 188.714 1500.76 184.332 1495.83 178.756C1490.89 173.02 1487.22 166.249 1484.83 158.442C1482.44 150.476 1481.25 141.793 1481.25 132.393C1481.25 122.833 1482.52 114.07 1485.07 106.104C1487.62 98.1378 1491.36 91.3666 1496.3 85.7902C1501.4 80.0545 1507.62 75.6731 1514.94 72.646C1522.43 69.4595 1530.96 67.8662 1540.52 67.8662C1550.55 67.8662 1559 69.8578 1565.85 73.8409C1572.86 77.824 1578.51 83.0817 1582.82 89.614C1587.12 95.9869 1590.15 103.396 1591.9 111.84C1593.81 120.125 1594.61 128.648 1594.29 137.411H1496.78ZM1578.28 124.267C1578.12 118.531 1577.16 113.035 1575.41 107.777C1573.81 102.519 1571.34 97.9785 1568 94.1547C1564.81 90.1716 1560.75 87.0648 1555.81 84.8343C1550.87 82.4444 1545.14 81.2495 1538.6 81.2495C1532.07 81.2495 1526.26 82.4444 1521.16 84.8343C1516.22 87.2241 1512 90.4106 1508.49 94.3937C1504.99 98.3768 1502.28 102.997 1500.37 108.255C1498.45 113.353 1497.34 118.691 1497.02 124.267H1578.28Z" fill="#FAFAFA"/>
<path d="M1343.19 195.246V69.3001H1358.49L1358.97 90.8089C1361.2 86.9851 1363.99 83.6393 1367.33 80.7715C1370.68 77.7443 1374.18 75.3545 1377.85 73.6019C1381.99 71.5307 1386.21 70.0968 1390.51 69.3001C1394.98 68.3442 1399.75 67.8662 1404.85 67.8662C1411.7 67.8662 1417.68 68.8222 1422.78 70.7341C1428.04 72.646 1432.5 75.1951 1436.16 78.3816C1442.21 83.48 1446.44 90.092 1448.83 98.2175C1451.22 106.343 1452.41 115.425 1452.41 125.462V195.246H1436.64V131.198C1436.64 123.709 1436 116.54 1434.73 109.689C1433.61 102.679 1431.06 96.7039 1427.08 91.7649C1424.37 88.5784 1421.02 86.0292 1417.04 84.1173C1413.06 82.2054 1408.04 81.2495 1401.99 81.2495C1395.45 81.2495 1389.48 82.6037 1384.06 85.3122C1378.64 88.0207 1374.1 91.5259 1370.44 95.8276C1366.3 100.607 1363.35 106.104 1361.6 112.318C1359.84 118.531 1358.97 125.064 1358.97 131.915V195.246H1343.19Z" fill="#FAFAFA"/>
<path d="M1308.9 69.2998V195.246C1308.9 205.124 1307.86 213.488 1305.79 220.339C1303.72 227.349 1300.21 233.563 1295.27 238.98C1289.86 244.875 1283.33 248.858 1275.68 250.929C1268.03 253.001 1260.38 254.036 1252.73 254.036C1244.13 254.036 1235.37 252.762 1226.45 250.212C1217.52 247.663 1209.72 243.601 1203.03 238.024L1209.96 225.119C1216.33 229.899 1223.1 233.563 1230.27 236.112C1237.6 238.821 1245.09 240.175 1252.73 240.175C1260.06 240.175 1266.28 239.139 1271.38 237.068C1276.47 234.997 1280.7 232.05 1284.04 228.226C1287.39 224.402 1289.7 219.622 1290.97 213.887C1292.41 208.151 1293.12 201.858 1293.12 195.007V176.127C1290.73 179.95 1287.79 183.217 1284.28 185.925C1280.94 188.634 1277.27 190.864 1273.29 192.617C1269.3 194.21 1265.08 195.325 1260.62 195.963C1256.32 196.759 1252.02 197.158 1247.72 197.158C1239.11 197.158 1231.7 195.803 1225.49 193.095C1219.44 190.386 1214.58 186.881 1210.91 182.579C1206.29 177.481 1203.11 170.949 1201.35 162.982C1199.76 155.016 1198.96 146.492 1198.96 137.411V69.2998H1214.74V131.436C1214.74 138.606 1215.05 145.616 1215.69 152.467C1216.49 159.318 1218.48 165.133 1221.67 169.913C1224.38 174.056 1228.12 177.401 1232.9 179.951C1237.84 182.34 1243.97 183.456 1251.3 183.296C1260.38 183.137 1267.79 181.145 1273.53 177.322C1279.42 173.339 1283.96 168.081 1287.15 161.549C1289.38 156.928 1290.89 151.909 1291.69 146.492C1292.65 141.075 1293.12 135.499 1293.12 129.763V69.2998H1308.9Z" fill="#FAFAFA"/>
<path d="M1128.38 182.101L1159.69 69.2998H1177.61L1139.37 195.246H1117.15L1084.17 81.9661L1051.19 195.246H1028.72L990.008 69.2998H1007.93L1039.96 182.101L1071.98 69.2998H1096.36L1128.38 182.101Z" fill="#FAFAFA"/>
<path d="M953.854 69.3001H968.672V191.183C968.672 201.699 967.636 210.621 965.565 217.95C963.494 225.438 960.148 231.811 955.527 237.069C951.066 242.486 945.171 246.628 937.842 249.496C930.673 252.364 921.99 253.798 911.793 253.798C905.579 253.798 899.684 253.16 894.108 251.886C888.532 250.77 883.433 248.859 878.813 246.15C874.352 243.442 870.448 239.936 867.102 235.635C863.916 231.492 861.526 226.394 859.933 220.34H876.184C877.459 224.163 879.37 227.35 881.92 229.899C884.628 232.448 887.655 234.44 891.001 235.874C894.347 237.467 897.852 238.582 901.516 239.219C905.34 240.016 909.084 240.414 912.749 240.414C920.874 240.414 927.486 239.14 932.585 236.591C937.842 234.201 941.905 230.775 944.773 226.314C947.8 221.853 949.871 216.595 950.987 210.541C952.261 204.646 952.899 198.114 952.899 190.944V175.171C947.641 182.819 941.109 188.315 933.302 191.661C925.654 195.007 917.051 196.68 907.491 196.68C897.454 196.68 888.771 194.848 881.442 191.183C874.272 187.519 868.457 182.58 863.996 176.366C859.694 170.152 856.507 162.983 854.436 154.857C852.524 146.572 851.728 137.969 852.046 129.047C852.206 120.284 853.56 112.238 856.109 104.909C858.818 97.4209 862.562 90.9682 867.341 85.5512C872.121 79.9749 878.096 75.6731 885.265 72.646C892.435 69.4595 900.64 67.8662 909.881 67.8662C918.644 67.8662 926.769 69.3798 934.258 72.407C941.746 75.4341 947.96 80.3732 952.899 87.2241L953.854 69.3001ZM909.642 81.2495C902.154 81.2495 895.781 82.6834 890.523 85.5512C885.265 88.2597 880.964 92.0039 877.618 96.7836C874.272 101.404 871.803 106.741 870.209 112.796C868.616 118.85 867.819 125.223 867.819 131.915C867.819 138.925 868.536 145.537 869.97 151.75C871.564 157.964 874.033 163.381 877.379 168.002C880.725 172.622 885.026 176.366 890.284 179.234C895.701 181.942 902.313 183.297 910.12 183.297C917.13 183.297 923.424 181.783 929 178.756C934.736 175.569 939.436 171.586 943.1 166.807C946.765 162.027 949.393 156.689 950.987 150.794C952.58 144.74 953.377 138.447 953.377 131.915C953.377 124.108 952.102 116.38 949.553 108.733C947.163 100.926 942.702 94.553 936.169 89.614C928.681 84.0376 919.839 81.2495 909.642 81.2495Z" fill="#FAFAFA"/>
</svg>
