<svg width="1566" height="227" viewBox="0 0 1566 227" fill="none" xmlns="http://www.w3.org/2000/svg">
<path d="M467.907 179.705C463.762 185.604 458.262 189.988 451.406 192.858C444.55 195.569 436.897 196.924 428.447 196.924C421.751 196.924 415.613 196.127 410.032 194.532C404.612 192.938 399.829 190.546 395.683 187.358C391.538 184.01 388.27 179.944 385.878 175.161C383.486 170.219 382.291 164.638 382.291 158.42C382.291 151.565 383.646 145.745 386.356 140.962C389.067 136.02 392.734 132.034 397.357 129.004C402.14 125.975 407.721 123.743 414.098 122.308C420.475 120.714 427.172 119.917 434.187 119.917H466.473C466.473 110.669 464.4 103.495 460.255 98.3929C456.109 93.291 448.855 90.6603 438.492 90.5008C432.433 90.5008 427.172 91.5372 422.708 93.6098C418.403 95.6825 415.533 99.1104 414.098 103.893H386.117C387.074 97.1971 389.226 91.5372 392.574 86.9135C396.082 82.2899 400.227 78.4635 405.01 75.4342C409.953 72.4049 415.374 70.2525 421.273 68.9771C427.331 67.7016 433.39 67.0638 439.448 67.0638C447.261 67.0638 454.515 68.1002 461.211 70.1728C467.907 72.2455 473.727 75.7531 478.669 80.6955C484.25 86.4352 487.996 93.2909 489.91 101.263C491.823 109.234 492.779 117.924 492.779 127.33V195.25H469.103L467.907 179.705ZM466.473 139.288H440.166C435.542 139.288 430.918 139.687 426.295 140.484C421.671 141.122 417.685 142.796 414.337 145.506C411.148 148.057 409.554 151.804 409.554 156.746C409.554 162.805 411.707 167.428 416.011 170.617C420.475 173.646 425.896 175.161 432.274 175.161C437.216 175.161 441.76 174.523 445.905 173.248C450.21 171.972 453.877 169.9 456.906 167.03C459.936 164.001 462.247 160.254 463.842 155.79C465.596 151.166 466.473 145.665 466.473 139.288Z" fill="#FAFAFA"/>
<path d="M537.598 16.8417C542.541 16.8417 546.606 18.3563 549.795 21.3856C553.143 24.4149 554.817 28.5602 554.817 33.8216C554.817 38.9235 553.143 42.9891 549.795 46.0184C546.606 49.0476 542.541 50.5623 537.598 50.5623C532.337 50.5623 528.112 49.0476 524.923 46.0184C521.734 42.9891 520.14 38.9235 520.14 33.8216C520.14 28.5602 521.734 24.4149 524.923 21.3856C528.112 18.3563 532.337 16.8417 537.598 16.8417ZM523.727 195.25V69.2162H550.991V195.25H523.727Z" fill="#FAFAFA"/>
<path d="M767.673 67.0638C777.717 67.0638 786.566 68.6582 794.219 71.8469C801.872 75.0356 808.329 79.4998 813.59 85.2395C819.011 90.8197 823.076 97.5957 825.787 105.567C828.497 113.539 829.852 122.388 829.852 132.113C829.852 141.998 828.497 150.927 825.787 158.899C823.236 166.711 819.33 173.487 814.068 179.227C808.807 184.966 802.27 189.351 794.458 192.38C786.805 195.409 777.876 196.924 767.673 196.924C757.628 196.924 748.779 195.409 741.127 192.38C733.474 189.191 727.017 184.807 721.755 179.227C716.653 173.487 712.747 166.631 710.037 158.659C707.486 150.688 706.21 141.839 706.21 132.113C706.21 122.388 707.486 113.539 710.037 105.567C712.747 97.5957 716.733 90.8197 721.994 85.2395C727.256 79.4998 733.713 75.0356 741.366 71.8469C749.019 68.6582 757.788 67.0638 767.673 67.0638ZM767.673 173.248C773.891 173.248 779.152 172.211 783.457 170.139C787.921 167.907 791.508 164.957 794.219 161.29C797.088 157.623 799.161 153.318 800.437 148.376C801.871 143.433 802.589 138.092 802.589 132.353C802.589 126.613 801.871 121.272 800.437 116.329C799.161 111.227 797.088 106.843 794.219 103.176C791.508 99.5089 787.921 96.6391 783.457 94.5664C779.152 92.4938 773.891 91.4574 767.673 91.4574C761.614 91.4574 756.432 92.4938 752.128 94.5664C747.823 96.6391 744.236 99.5089 741.366 103.176C738.496 106.843 736.344 111.227 734.909 116.329C733.633 121.272 732.995 126.613 732.995 132.353C732.995 138.092 733.633 143.433 734.909 148.376C736.344 153.318 738.416 157.623 741.127 161.29C743.996 164.957 747.584 167.907 751.889 170.139C756.353 172.211 761.614 173.248 767.673 173.248Z" fill="#FAFAFA"/>
<path d="M629.176 120.634H609.566V31.1693H582.542V195.25H609.566V144.31H630.851L664.093 195.25H695.661L652.613 129.244L692.313 69.2162H661.701L629.176 120.634Z" fill="#FAFAFA"/>
<path d="M363.856 68.8581H331.574V31.1693H323.232L284 84.4717V91.3644H304.146V153.744C304.146 168.469 307.463 179.068 314.098 185.541C320.894 192.013 332.14 195.25 347.836 195.25H362.885V171.463H350.263C342.982 171.463 338.046 169.683 335.457 166.123C332.868 162.563 331.574 157.142 331.574 149.861V91.3644H363.856V68.8581Z" fill="#FAFAFA"/>
<path d="M248.256 183.346L204.803 124.309C200.082 117.893 193.092 114.05 185.648 113.203C183.954 113.006 182.441 112.023 181.593 110.54C180.731 109.057 180.64 107.257 181.321 105.683C184.302 98.8144 184.483 90.8408 181.276 83.5481L151.878 16.401C147.521 6.43027 137.671 0 126.792 0C115.914 0 106.064 6.4454 101.707 16.401L72.3091 83.5481C69.1166 90.8408 69.2831 98.8144 72.2637 105.683C72.9445 107.257 72.8386 109.057 71.9913 110.54C71.1289 112.023 69.631 113.006 67.9364 113.203C60.4925 114.05 53.5024 117.893 48.7819 124.309L5.32833 183.346C-1.11707 192.106 -1.76767 203.847 3.66402 213.273C9.11084 222.684 19.6111 227.995 30.4139 226.8L103.265 218.69C111.178 217.812 118.002 213.682 122.45 207.66C123.464 206.283 125.083 205.466 126.792 205.466C128.502 205.466 130.106 206.283 131.135 207.66C135.583 213.682 142.407 217.812 150.32 218.69L223.171 226.8C233.974 228.01 244.474 222.699 249.921 213.273C255.352 203.847 254.702 192.106 248.256 183.346ZM91.3124 91.9756L120.755 24.7528C121.815 22.3471 124.19 20.7887 126.807 20.7887C129.425 20.7887 131.8 22.3471 132.86 24.7528L162.303 91.9756C163.226 94.0938 163.029 96.5448 161.758 98.4815C160.487 100.418 158.339 101.583 156.009 101.583H97.5914C95.2765 101.583 93.1129 100.418 91.842 98.4815C90.571 96.5448 90.3743 94.0938 91.2972 91.9756H91.3124ZM106.427 194.315C105.383 196.388 103.356 197.78 101.056 198.037L28.1293 206.147C25.5269 206.434 22.9851 205.164 21.6688 202.894C20.3524 200.624 20.5189 197.795 22.0773 195.677L65.5762 136.579C66.953 134.718 69.162 133.659 71.4769 133.795C73.7918 133.916 75.8797 135.202 77.0448 137.214L77.0902 137.29L106.216 187.734L106.261 187.809C107.426 189.822 107.486 192.273 106.442 194.33L106.427 194.315ZM132.784 171.499C131.543 173.632 129.274 174.964 126.792 174.964C124.326 174.964 122.042 173.648 120.801 171.514L98.4235 132.766C97.1829 130.633 97.1829 127.985 98.4235 125.852C99.6642 123.718 101.934 122.387 104.415 122.387H149.155C151.621 122.387 153.905 123.688 155.146 125.837C156.387 127.985 156.387 130.618 155.146 132.751L132.784 171.499ZM231.931 202.894C230.615 205.164 228.088 206.45 225.471 206.162L152.544 198.052C150.244 197.795 148.217 196.403 147.173 194.33C146.129 192.258 146.189 189.807 147.354 187.809L147.4 187.734L176.525 137.29L176.57 137.214C177.735 135.202 179.823 133.916 182.138 133.795C184.453 133.674 186.662 134.718 188.039 136.579L231.538 195.677C233.096 197.795 233.247 200.624 231.946 202.894H231.931Z" fill="#E81899"/>
<path d="M1550.35 176.825C1544.29 184.154 1537.36 189.252 1529.55 192.12C1521.91 194.988 1513.46 196.422 1504.22 196.422C1498.65 196.422 1493.23 195.785 1487.97 194.51C1482.87 193.076 1478.25 190.846 1474.11 187.819C1469.97 184.791 1466.62 180.968 1464.07 176.347C1461.68 171.568 1460.49 166.23 1460.49 160.335C1460.49 153.166 1461.84 147.191 1464.55 142.411C1467.26 137.631 1470.76 133.808 1475.06 130.94C1479.53 128.072 1484.62 126.08 1490.36 124.965C1496.1 123.691 1502.07 123.053 1508.28 123.053H1549.63C1549.63 117.318 1548.99 111.901 1547.72 106.802C1546.6 101.704 1544.69 97.2427 1541.98 93.4189C1539.27 89.5952 1535.69 86.568 1531.23 84.3375C1526.93 82.1069 1521.59 80.9916 1515.21 80.9916C1512.19 80.9916 1509.08 81.2306 1505.89 81.7086C1502.87 82.1866 1499.92 82.9832 1497.05 84.0985C1494.34 85.2137 1491.79 86.807 1489.4 88.8782C1487.17 90.7901 1485.34 93.1799 1483.91 96.0478H1466.7C1468.13 90.7901 1470.52 86.4087 1473.87 82.9035C1477.22 79.2391 1481.12 76.2916 1485.58 74.061C1490.2 71.6712 1495.06 69.9983 1500.16 69.0423C1505.42 68.0864 1510.59 67.6084 1515.69 67.6084C1524.93 67.6084 1532.74 69.122 1539.11 72.1492C1545.49 75.1763 1550.58 79.3984 1554.41 84.8154C1558.39 90.0731 1561.18 96.2868 1562.77 103.456C1564.53 110.626 1565.4 118.353 1565.4 126.638V194.988H1552.5L1550.35 176.825ZM1516.41 135.72C1512.27 135.72 1507.81 135.879 1503.03 136.198C1498.41 136.516 1494.1 137.472 1490.12 139.065C1486.14 140.499 1482.79 142.809 1480.08 145.996C1477.53 149.023 1476.26 153.245 1476.26 158.662C1476.26 162.964 1477.06 166.628 1478.65 169.656C1480.4 172.683 1482.63 175.232 1485.34 177.303C1488.21 179.374 1491.4 180.888 1494.9 181.844C1498.57 182.8 1502.31 183.278 1506.13 183.278C1512.35 183.278 1518.08 182.481 1523.34 180.888C1528.76 179.295 1533.38 176.905 1537.2 173.718C1541.18 170.373 1544.21 166.31 1546.28 161.53C1548.51 156.591 1549.63 150.855 1549.63 144.323V135.72H1516.41Z" fill="#FAFAFA"/>
<path d="M1420.44 23.6348C1423.95 23.6348 1426.81 24.6704 1429.05 26.7416C1431.28 28.8128 1432.39 31.601 1432.39 35.1061C1432.39 38.7706 1431.28 41.6384 1429.05 43.7096C1426.81 45.7808 1423.95 46.8164 1420.44 46.8164C1416.94 46.8164 1414.07 45.7808 1411.84 43.7096C1409.77 41.6384 1408.73 38.7706 1408.73 35.1061C1408.73 31.4417 1409.77 28.6535 1411.84 26.7416C1414.07 24.6704 1416.94 23.6348 1420.44 23.6348ZM1412.56 69.0422H1428.33V194.988H1412.56V69.0422Z" fill="#FAFAFA"/>
<path d="M1267.81 194.989V26.0254H1283.58V90.0737C1285.82 86.25 1288.44 82.9838 1291.47 80.2753C1294.66 77.5668 1298.24 75.1769 1302.23 73.1057C1306.21 71.1938 1310.51 69.8396 1315.13 69.0429C1319.91 68.087 1324.69 67.609 1329.47 67.609C1336.16 67.609 1342.14 68.565 1347.39 70.4769C1352.65 72.3887 1357.11 74.9379 1360.78 78.1244C1366.83 83.2228 1371.05 89.8348 1373.44 97.9603C1375.83 106.086 1377.03 115.167 1377.03 125.205V194.989H1361.26V130.94C1361.26 123.452 1360.62 116.283 1359.34 109.432C1358.23 102.421 1355.68 96.4467 1351.7 91.5077C1348.99 88.3212 1345.64 85.772 1341.66 83.8601C1337.68 81.9482 1332.66 80.9923 1326.6 80.9923C1320.07 80.9923 1314.02 82.3465 1308.44 85.055C1303.02 87.6042 1298.48 91.1093 1294.82 95.5704C1290.83 100.35 1287.97 105.847 1286.21 112.06C1284.46 118.274 1283.58 124.806 1283.58 131.657V194.989H1267.81Z" fill="#FAFAFA"/>
<path d="M1207.32 69.042H1242.45V82.4253H1207.32V153.165C1207.32 157.467 1207.72 162.008 1208.51 166.787C1209.47 171.567 1211.94 175.232 1215.92 177.781C1217.99 179.055 1220.46 180.011 1223.33 180.649C1226.2 181.127 1228.99 181.366 1231.7 181.366H1241.26V194.988H1230.26C1224.85 194.988 1219.43 194.351 1214.01 193.076C1208.75 191.801 1204.13 189.173 1200.15 185.189C1197.12 182.003 1194.89 177.781 1193.46 172.523C1192.18 167.106 1191.55 160.972 1191.55 154.121V82.4253H1170.28V69.042H1191.55V32.9551H1207.32V69.042Z" fill="#FAFAFA"/>
<path d="M1052.18 137.153C1052.5 143.845 1053.62 149.979 1055.53 155.555C1057.6 161.132 1060.47 165.991 1064.13 170.134C1067.8 174.117 1072.26 177.303 1077.52 179.693C1082.93 181.924 1089.23 183.039 1096.4 183.039C1099.74 183.039 1103.09 182.72 1106.43 182.083C1109.94 181.446 1113.2 180.49 1116.23 179.215C1119.42 177.781 1122.29 175.949 1124.83 173.718C1127.38 171.488 1129.38 168.7 1130.81 165.354H1147.3C1145.55 170.93 1142.84 175.71 1139.17 179.693C1135.67 183.676 1131.61 186.942 1126.99 189.491C1122.36 191.881 1117.35 193.634 1111.93 194.749C1106.51 195.864 1101.1 196.422 1095.68 196.422C1085.8 196.422 1077.12 194.829 1069.63 191.642C1062.3 188.456 1056.17 184.074 1051.23 178.498C1046.29 172.762 1042.62 165.991 1040.23 158.184C1037.84 150.218 1036.65 141.535 1036.65 132.135C1036.65 122.575 1037.92 113.812 1040.47 105.846C1043.02 97.88 1046.77 91.1087 1051.7 85.5324C1056.8 79.7967 1063.02 75.4153 1070.35 72.3881C1077.83 69.2016 1086.36 67.6084 1095.92 67.6084C1105.95 67.6084 1114.4 69.6 1121.25 73.5831C1128.26 77.5662 1133.92 82.8239 1138.22 89.3562C1142.52 95.7291 1145.55 103.138 1147.3 111.582C1149.21 119.867 1150.01 128.391 1149.69 137.153H1052.18ZM1133.68 124.009C1133.52 118.274 1132.56 112.777 1130.81 107.519C1129.22 102.261 1126.75 97.7207 1123.4 93.8969C1120.21 89.9138 1116.15 86.807 1111.21 84.5764C1106.27 82.1866 1100.54 80.9916 1094.01 80.9916C1087.47 80.9916 1081.66 82.1866 1076.56 84.5764C1071.62 86.9663 1067.4 90.1528 1063.89 94.1359C1060.39 98.119 1057.68 102.739 1055.77 107.997C1053.86 113.095 1052.74 118.433 1052.42 124.009H1133.68Z" fill="#FAFAFA"/>
<path d="M991.25 194.989V26.0254H1007.02V194.989H991.25Z" fill="#FAFAFA"/>
<path d="M942.144 176.825C936.09 184.154 929.159 189.252 921.352 192.12C913.705 194.988 905.26 196.422 896.02 196.422C890.443 196.422 885.026 195.785 879.769 194.51C874.67 193.076 870.05 190.846 865.907 187.819C861.765 184.791 858.419 180.968 855.87 176.347C853.48 171.568 852.285 166.23 852.285 160.335C852.285 153.166 853.639 147.191 856.348 142.411C859.056 137.631 862.562 133.808 866.863 130.94C871.324 128.072 876.423 126.08 882.158 124.965C887.894 123.691 893.869 123.053 900.082 123.053H941.427C941.427 117.318 940.79 111.901 939.515 106.802C938.4 101.704 936.488 97.2427 933.78 93.4189C931.071 89.5952 927.486 86.568 923.025 84.3375C918.723 82.1069 913.386 80.9916 907.013 80.9916C903.986 80.9916 900.879 81.2306 897.693 81.7086C894.665 82.1866 891.718 82.9832 888.85 84.0985C886.142 85.2137 883.592 86.807 881.203 88.8782C878.972 90.7901 877.14 93.1799 875.706 96.0478H858.499C859.933 90.7901 862.323 86.4087 865.668 82.9035C869.014 79.2391 872.918 76.2916 877.379 74.061C881.999 71.6712 886.859 69.9983 891.957 69.0423C897.215 68.0864 902.393 67.6084 907.491 67.6084C916.732 67.6084 924.539 69.122 930.912 72.1492C937.285 75.1763 942.383 79.3984 946.207 84.8154C950.19 90.0731 952.978 96.2868 954.571 103.456C956.324 110.626 957.2 118.353 957.2 126.638V194.988H944.295L942.144 176.825ZM908.208 135.72C904.065 135.72 899.604 135.879 894.825 136.198C890.204 136.516 885.903 137.472 881.919 139.065C877.936 140.499 874.591 142.809 871.882 145.996C869.333 149.023 868.058 153.245 868.058 158.662C868.058 162.964 868.855 166.628 870.448 169.656C872.201 172.683 874.431 175.232 877.14 177.303C880.008 179.374 883.194 180.888 886.699 181.844C890.364 182.8 894.108 183.278 897.932 183.278C904.145 183.278 909.881 182.481 915.139 180.888C920.556 179.295 925.176 176.905 929 173.718C932.983 170.373 936.01 166.31 938.081 161.53C940.312 156.591 941.427 150.855 941.427 144.323V135.72H908.208Z" fill="#FAFAFA"/>
</svg>
