<svg width="315" height="39" viewBox="0 0 315 39" fill="none" xmlns="http://www.w3.org/2000/svg">
<path d="M63.1706 28.4401C62.611 29.2365 61.8683 29.8285 60.9428 30.2159C60.0172 30.5818 58.984 30.7648 57.8432 30.7648C56.9392 30.7648 56.1105 30.6572 55.3571 30.4419C54.6252 30.2267 53.9795 29.9038 53.4199 29.4733C52.8602 29.0213 52.419 28.4724 52.0961 27.8267C51.7732 27.1594 51.6118 26.406 51.6118 25.5666C51.6118 24.641 51.7947 23.8553 52.1606 23.2096C52.5266 22.5423 53.0216 22.0042 53.6459 21.5952C54.2916 21.1863 55.045 20.8849 55.906 20.6912C56.767 20.4759 57.671 20.3683 58.6181 20.3683H62.9769C62.9769 19.1199 62.6971 18.1513 62.1374 17.4625C61.5778 16.7737 60.5984 16.4185 59.1993 16.397C58.3813 16.397 57.671 16.5369 57.0683 16.8167C56.4871 17.0965 56.0997 17.5593 55.906 18.2051H52.1284C52.2575 17.301 52.5481 16.5369 53.0001 15.9127C53.4737 15.2885 54.0333 14.7719 54.6791 14.3629C55.3463 13.9539 56.0782 13.6633 56.8746 13.4911C57.6925 13.3189 58.5105 13.2328 59.3284 13.2328C60.3831 13.2328 61.3625 13.3727 62.2666 13.6526C63.1706 13.9324 63.9563 14.4059 64.6235 15.0732C65.3769 15.8481 65.8827 16.7737 66.141 17.8499C66.3993 18.9261 66.5285 20.0993 66.5285 21.3692V30.5388H63.332L63.1706 28.4401ZM62.9769 22.9836H59.4253C58.8011 22.9836 58.1768 23.0374 57.5526 23.145C56.9284 23.2311 56.3903 23.4571 55.9383 23.823C55.5078 24.1674 55.2925 24.6733 55.2925 25.3406C55.2925 26.1585 55.5831 26.7827 56.1643 27.2132C56.767 27.6222 57.4988 27.8267 58.3598 27.8267C59.0271 27.8267 59.6405 27.7406 60.2002 27.5684C60.7813 27.3962 61.2764 27.1163 61.6854 26.7289C62.0944 26.3199 62.4065 25.8141 62.6217 25.2114C62.8585 24.5872 62.9769 23.8446 62.9769 22.9836Z" fill="#FAFAFA"/>
<path d="M72.5793 6.45251C73.2466 6.45251 73.7955 6.657 74.2259 7.06597C74.678 7.47494 74.904 8.03459 74.904 8.74491C74.904 9.4337 74.678 9.98258 74.2259 10.3916C73.7955 10.8005 73.2466 11.005 72.5793 11.005C71.869 11.005 71.2986 10.8005 70.8681 10.3916C70.4376 9.98258 70.2223 9.4337 70.2223 8.74491C70.2223 8.03459 70.4376 7.47494 70.8681 7.06597C71.2986 6.657 71.869 6.45251 72.5793 6.45251ZM70.7066 30.5388V13.5234H74.3874V30.5388H70.7066Z" fill="#FAFAFA"/>
<path d="M103.641 13.2328C104.997 13.2328 106.192 13.4481 107.225 13.8786C108.258 14.3091 109.13 14.9118 109.84 15.6867C110.572 16.44 111.121 17.3548 111.487 18.4311C111.853 19.5073 112.036 20.7019 112.036 22.015C112.036 23.3495 111.853 24.5549 111.487 25.6311C111.142 26.6858 110.615 27.6007 109.905 28.3755C109.194 29.1504 108.312 29.7424 107.257 30.1513C106.224 30.5603 105.018 30.7648 103.641 30.7648C102.285 30.7648 101.09 30.5603 100.057 30.1513C99.0238 29.7208 98.152 29.1289 97.4417 28.3755C96.7529 27.6007 96.2256 26.6751 95.8597 25.5988C95.5153 24.5226 95.3431 23.328 95.3431 22.015C95.3431 20.7019 95.5153 19.5073 95.8597 18.4311C96.2256 17.3548 96.7637 16.44 97.474 15.6867C98.1843 14.9118 99.0561 14.3091 100.089 13.8786C101.122 13.4481 102.306 13.2328 103.641 13.2328ZM103.641 27.5684C104.48 27.5684 105.191 27.4285 105.772 27.1486C106.375 26.8473 106.859 26.4491 107.225 25.954C107.612 25.4589 107.892 24.8778 108.064 24.2105C108.258 23.5432 108.355 22.8221 108.355 22.0472C108.355 21.2724 108.258 20.5513 108.064 19.884C107.892 19.1952 107.612 18.6033 107.225 18.1082C106.859 17.6131 106.375 17.2257 105.772 16.9459C105.191 16.666 104.48 16.5261 103.641 16.5261C102.823 16.5261 102.123 16.666 101.542 16.9459C100.961 17.2257 100.477 17.6131 100.089 18.1082C99.7018 18.6033 99.4112 19.1952 99.2175 19.884C99.0453 20.5513 98.9592 21.2724 98.9592 22.0472C98.9592 22.8221 99.0453 23.5432 99.2175 24.2105C99.4112 24.8778 99.6911 25.4589 100.057 25.954C100.444 26.4491 100.929 26.8473 101.51 27.1486C102.113 27.4285 102.823 27.5684 103.641 27.5684Z" fill="#FAFAFA"/>
<path d="M84.943 20.4652H82.2954V8.38683H78.647V30.5388H82.2954V23.6616H85.169L89.6569 30.5388H93.9188L88.1071 21.6275L93.4668 13.5234H89.3341L84.943 20.4652Z" fill="#FAFAFA"/>
<path d="M49.1229 13.4751H44.7646V8.38683H43.6384L38.3419 15.583V16.5136H41.0617V24.9352C41.0617 26.9232 41.5096 28.3541 42.4052 29.228C43.3228 30.1018 44.8411 30.5388 46.9602 30.5388H48.9918V27.3274H47.2878C46.3048 27.3274 45.6385 27.0871 45.2889 26.6065C44.9394 26.1258 44.7646 25.394 44.7646 24.4109V16.5136H49.1229V13.4751Z" fill="#FAFAFA"/>
<path d="M33.5163 28.9317L27.6498 20.9612C27.0124 20.0952 26.0687 19.5763 25.0637 19.4619C24.835 19.4354 24.6307 19.3026 24.5163 19.1024C24.3999 18.9022 24.3876 18.6592 24.4795 18.4467C24.8819 17.5194 24.9065 16.4429 24.4734 15.4583L20.5045 6.39301C19.9162 5.0469 18.5865 4.17877 17.1178 4.17877C15.6491 4.17877 14.3194 5.04894 13.7311 6.39301L9.7622 15.4583C9.3312 16.4429 9.35367 17.5194 9.75607 18.4467C9.84799 18.6592 9.8337 18.9022 9.71931 19.1024C9.60288 19.3026 9.40065 19.4354 9.17187 19.4619C8.16688 19.5763 7.22318 20.0952 6.58587 20.9612L0.71936 28.9317C-0.150812 30.1144 -0.238647 31.6995 0.494667 32.9721C1.23002 34.2426 2.64762 34.9596 4.10608 34.7982L13.9415 33.7033C15.0098 33.5849 15.931 33.0272 16.5316 32.2142C16.6684 32.0284 16.887 31.9181 17.1178 31.9181C17.3486 31.9181 17.5652 32.0284 17.7041 32.2142C18.3046 33.0272 19.2258 33.5849 20.2941 33.7033L30.1295 34.7982C31.588 34.9616 33.0056 34.2446 33.741 32.9721C34.4743 31.6995 34.3864 30.1144 33.5163 28.9317ZM12.3278 16.5961L16.3028 7.52056C16.4458 7.19578 16.7665 6.98538 17.1198 6.98538C17.4732 6.98538 17.7939 7.19578 17.9369 7.52056L21.9119 16.5961C22.0365 16.8821 22.01 17.213 21.8384 17.4744C21.6668 17.7359 21.3767 17.8932 21.0622 17.8932H13.1755C12.863 17.8932 12.5709 17.7359 12.3993 17.4744C12.2277 17.213 12.2011 16.8821 12.3257 16.5961H12.3278ZM14.3684 30.4126C14.2274 30.6925 13.9537 30.8804 13.6432 30.9151L3.79764 32.01C3.4463 32.0488 3.10314 31.8772 2.92543 31.5708C2.74771 31.2644 2.77018 30.8824 2.98058 30.5965L8.85322 22.6178C9.0391 22.3666 9.33733 22.2236 9.64986 22.242C9.96238 22.2583 10.2443 22.432 10.4016 22.7036L10.4077 22.7138L14.3398 29.5241L14.3459 29.5343C14.5032 29.8059 14.5114 30.1369 14.3704 30.4147L14.3684 30.4126ZM17.9267 27.3323C17.7592 27.6203 17.4528 27.8001 17.1178 27.8001C16.7849 27.8001 16.4764 27.6224 16.3089 27.3343L13.2878 22.1031C13.1203 21.8151 13.1203 21.4576 13.2878 21.1696C13.4553 20.8816 13.7617 20.7018 14.0967 20.7018H20.1369C20.4698 20.7018 20.7783 20.8775 20.9458 21.1676C21.1132 21.4576 21.1132 21.813 20.9458 22.101L17.9267 27.3323ZM31.3122 31.5708C31.1345 31.8772 30.7934 32.0508 30.44 32.012L20.5944 30.9172C20.2839 30.8824 20.0102 30.6945 19.8693 30.4147C19.7283 30.1348 19.7365 29.8039 19.8938 29.5343L19.8999 29.5241L23.832 22.7138L23.8382 22.7036C23.9954 22.432 24.2773 22.2583 24.5899 22.242C24.9024 22.2257 25.2006 22.3666 25.3865 22.6178L31.2591 30.5965C31.4695 30.8824 31.4899 31.2644 31.3143 31.5708H31.3122Z" fill="#E81899"/>
<path d="M209.307 28.0513C208.49 29.0408 207.554 29.7291 206.5 30.1163C205.467 30.5035 204.327 30.697 203.08 30.697C202.327 30.697 201.596 30.611 200.886 30.4389C200.197 30.2453 199.574 29.9442 199.014 29.5355C198.455 29.1268 198.003 28.6106 197.659 27.9868C197.337 27.3415 197.175 26.6209 197.175 25.8251C197.175 24.8571 197.358 24.0505 197.724 23.4052C198.09 22.7599 198.563 22.2437 199.144 21.8565C199.746 21.4693 200.434 21.2005 201.208 21.0499C201.983 20.8778 202.789 20.7918 203.628 20.7918H209.21C209.21 20.0174 209.124 19.2861 208.952 18.5978C208.801 17.9095 208.543 17.3072 208.178 16.7909C207.812 16.2747 207.328 15.866 206.726 15.5649C206.145 15.2637 205.424 15.1132 204.564 15.1132C204.155 15.1132 203.736 15.1454 203.306 15.21C202.897 15.2745 202.499 15.3821 202.112 15.5326C201.746 15.6832 201.402 15.8983 201.079 16.1779C200.778 16.436 200.531 16.7587 200.337 17.1459H198.014C198.208 16.436 198.53 15.8445 198.982 15.3713C199.434 14.8766 199.961 14.4786 200.563 14.1775C201.187 13.8549 201.843 13.629 202.531 13.4999C203.241 13.3709 203.94 13.3064 204.629 13.3064C205.876 13.3064 206.93 13.5107 207.79 13.9194C208.651 14.3281 209.339 14.8981 209.855 15.6294C210.393 16.3392 210.77 17.1781 210.985 18.1461C211.221 19.114 211.34 20.1572 211.34 21.2757V30.5035H209.597L209.307 28.0513ZM204.725 22.5018C204.166 22.5018 203.564 22.5233 202.918 22.5663C202.295 22.6094 201.714 22.7384 201.176 22.9535C200.638 23.1471 200.187 23.459 199.821 23.8892C199.477 24.2979 199.305 24.8679 199.305 25.5992C199.305 26.18 199.412 26.6747 199.627 27.0834C199.864 27.4921 200.165 27.8362 200.531 28.1159C200.918 28.3955 201.348 28.5998 201.821 28.7289C202.316 28.858 202.822 28.9225 203.338 28.9225C204.177 28.9225 204.951 28.8149 205.661 28.5998C206.392 28.3847 207.016 28.0621 207.532 27.6319C208.07 27.1802 208.479 26.6317 208.758 25.9864C209.06 25.3196 209.21 24.5452 209.21 23.6633V22.5018H204.725Z" fill="#FAFAFA"/>
<path d="M191.769 7.36962C192.242 7.36962 192.629 7.50943 192.931 7.78906C193.232 8.06869 193.382 8.44511 193.382 8.91833C193.382 9.41305 193.232 9.80023 192.931 10.0799C192.629 10.3595 192.242 10.4993 191.769 10.4993C191.296 10.4993 190.909 10.3595 190.608 10.0799C190.328 9.80023 190.188 9.41305 190.188 8.91833C190.188 8.4236 190.328 8.04718 190.608 7.78906C190.909 7.50943 191.296 7.36962 191.769 7.36962ZM190.704 13.4999H192.834V30.5034H190.704V13.4999Z" fill="#FAFAFA"/>
<path d="M171.163 30.5035V7.69237H173.292V16.3393C173.594 15.8231 173.948 15.3821 174.357 15.0165C174.787 14.6508 175.271 14.3282 175.809 14.0485C176.347 13.7904 176.928 13.6076 177.551 13.5C178.197 13.371 178.842 13.3064 179.487 13.3064C180.391 13.3064 181.197 13.4355 181.907 13.6936C182.617 13.9517 183.219 14.2959 183.714 14.7261C184.531 15.4144 185.101 16.3071 185.424 17.4041C185.747 18.5011 185.908 19.7271 185.908 21.0822V30.5035H183.778V21.8566C183.778 20.8456 183.692 19.8777 183.52 18.9528C183.37 18.0063 183.026 17.1997 182.488 16.5329C182.122 16.1027 181.67 15.7586 181.133 15.5004C180.595 15.2423 179.917 15.1133 179.1 15.1133C178.218 15.1133 177.401 15.2961 176.648 15.6618C175.917 16.0059 175.304 16.4791 174.809 17.0814C174.271 17.7267 173.884 18.4688 173.647 19.3077C173.411 20.1466 173.292 21.0285 173.292 21.9534V30.5035H171.163Z" fill="#FAFAFA"/>
<path d="M162.996 13.4999H167.739V15.3067H162.996V24.8571C162.996 25.4379 163.05 26.0509 163.157 26.6962C163.287 27.3415 163.62 27.8362 164.158 28.1804C164.437 28.3524 164.771 28.4815 165.158 28.5675C165.545 28.6321 165.921 28.6643 166.287 28.6643H167.578V30.5034H166.094C165.362 30.5034 164.631 30.4174 163.9 30.2453C163.19 30.0732 162.566 29.7183 162.028 29.1806C161.62 28.7504 161.318 28.1804 161.125 27.4705C160.953 26.7392 160.867 25.9111 160.867 24.9862V15.3067H157.995V13.4999H160.867V8.62793H162.996V13.4999Z" fill="#FAFAFA"/>
<path d="M142.052 22.6954C142.095 23.5988 142.245 24.4269 142.503 25.1798C142.783 25.9326 143.17 26.5887 143.665 27.1479C144.16 27.6857 144.762 28.1159 145.472 28.4385C146.203 28.7397 147.053 28.8902 148.021 28.8902C148.472 28.8902 148.924 28.8472 149.376 28.7612C149.849 28.6751 150.29 28.5461 150.699 28.374C151.129 28.1804 151.516 27.933 151.86 27.6319C152.204 27.3308 152.473 26.9543 152.667 26.5026H154.893C154.656 27.2555 154.291 27.9008 153.796 28.4385C153.323 28.9763 152.774 29.4172 152.15 29.7614C151.527 30.084 150.849 30.3206 150.118 30.4712C149.386 30.6218 148.655 30.697 147.924 30.697C146.59 30.697 145.418 30.4819 144.407 30.0518C143.417 29.6216 142.589 29.03 141.923 28.2772C141.256 27.5028 140.761 26.5887 140.438 25.5347C140.116 24.4592 139.954 23.2869 139.954 22.0178C139.954 20.7272 140.126 19.5442 140.471 18.4687C140.815 17.3932 141.32 16.4791 141.987 15.7262C142.675 14.9519 143.514 14.3603 144.504 13.9516C145.515 13.5215 146.665 13.3064 147.956 13.3064C149.311 13.3064 150.451 13.5752 151.376 14.113C152.323 14.6507 153.086 15.3605 153.667 16.2424C154.248 17.1028 154.656 18.103 154.893 19.2431C155.151 20.3616 155.259 21.5124 155.216 22.6954H142.052ZM153.054 20.9208C153.032 20.1465 152.903 19.4044 152.667 18.6946C152.452 17.9847 152.118 17.3717 151.666 16.8555C151.236 16.3177 150.688 15.8983 150.021 15.5972C149.354 15.2745 148.58 15.1132 147.698 15.1132C146.816 15.1132 146.031 15.2745 145.343 15.5972C144.676 15.9198 144.106 16.35 143.633 16.8877C143.159 17.4255 142.794 18.0493 142.536 18.7591C142.277 19.4474 142.127 20.168 142.084 20.9208H153.054Z" fill="#FAFAFA"/>
<path d="M133.825 30.5035V7.69237H135.955V30.5035H133.825Z" fill="#FAFAFA"/>
<path d="M127.196 28.0513C126.378 29.0408 125.443 29.7291 124.389 30.1163C123.356 30.5035 122.216 30.697 120.969 30.697C120.216 30.697 119.484 30.611 118.775 30.4389C118.086 30.2453 117.462 29.9442 116.903 29.5355C116.344 29.1268 115.892 28.6106 115.548 27.9868C115.225 27.3415 115.064 26.6209 115.064 25.8251C115.064 24.8571 115.247 24.0505 115.613 23.4052C115.978 22.7599 116.452 22.2437 117.032 21.8565C117.635 21.4693 118.323 21.2005 119.097 21.0499C119.872 20.8778 120.678 20.7918 121.517 20.7918H127.099C127.099 20.0174 127.013 19.2861 126.841 18.5978C126.69 17.9095 126.432 17.3072 126.066 16.7909C125.701 16.2747 125.217 15.866 124.614 15.5649C124.034 15.2637 123.313 15.1132 122.453 15.1132C122.044 15.1132 121.625 15.1454 121.194 15.21C120.786 15.2745 120.388 15.3821 120.001 15.5326C119.635 15.6832 119.291 15.8983 118.968 16.1779C118.667 16.436 118.42 16.7587 118.226 17.1459H115.903C116.097 16.436 116.419 15.8445 116.871 15.3713C117.323 14.8766 117.85 14.4786 118.452 14.1775C119.076 13.8549 119.732 13.629 120.42 13.4999C121.13 13.3709 121.829 13.3064 122.517 13.3064C123.765 13.3064 124.819 13.5107 125.679 13.9194C126.54 14.3281 127.228 14.8981 127.744 15.6294C128.282 16.3392 128.658 17.1781 128.873 18.1461C129.11 19.114 129.228 20.1572 129.228 21.2757V30.5035H127.486L127.196 28.0513ZM122.614 22.5018C122.055 22.5018 121.453 22.5233 120.807 22.5663C120.183 22.6094 119.603 22.7384 119.065 22.9535C118.527 23.1471 118.075 23.459 117.71 23.8892C117.366 24.2979 117.194 24.8679 117.194 25.5992C117.194 26.18 117.301 26.6747 117.516 27.0834C117.753 27.4921 118.054 27.8362 118.42 28.1159C118.807 28.3955 119.237 28.5998 119.71 28.7289C120.205 28.858 120.71 28.9225 121.227 28.9225C122.066 28.9225 122.84 28.8149 123.55 28.5998C124.281 28.3847 124.905 28.0621 125.421 27.6319C125.959 27.1802 126.368 26.6317 126.647 25.9864C126.948 25.3196 127.099 24.5452 127.099 23.6633V22.5018H122.614Z" fill="#FAFAFA"/>
<rect x="227.34" y="1" width="86" height="37" rx="18.5" fill="#E81899" fill-opacity="0.6"/>
<rect x="227.34" y="1" width="86" height="37" rx="18.5" stroke="url(#paint0_linear_201_30)" stroke-width="2"/>
<path d="M255.804 27H253.236L253.092 25.248C252.628 25.92 252.044 26.4 251.34 26.688C250.636 26.976 249.844 27.136 248.964 27.168C247.988 27.152 247.148 26.976 246.444 26.64C245.74 26.288 245.156 25.824 244.692 25.248C244.228 24.656 243.884 23.976 243.66 23.208C243.452 22.44 243.348 21.624 243.348 20.76C243.348 19.816 243.468 18.944 243.708 18.144C243.964 17.344 244.34 16.648 244.836 16.056C245.332 15.464 245.94 15 246.66 14.664C247.38 14.312 248.22 14.136 249.18 14.136C249.868 14.136 250.564 14.248 251.268 14.472C251.972 14.696 252.572 15.112 253.068 15.72V10.032H255.804V27ZM249.492 16.608C248.884 16.608 248.364 16.712 247.932 16.92C247.5 17.128 247.14 17.416 246.852 17.784C246.58 18.152 246.38 18.592 246.252 19.104C246.124 19.6 246.06 20.136 246.06 20.712C246.06 21.288 246.124 21.824 246.252 22.32C246.38 22.816 246.58 23.248 246.852 23.616C247.14 23.984 247.5 24.28 247.932 24.504C248.38 24.712 248.916 24.816 249.54 24.816C250.132 24.816 250.644 24.704 251.076 24.48C251.524 24.24 251.892 23.928 252.18 23.544C252.484 23.16 252.708 22.72 252.852 22.224C252.996 21.728 253.068 21.216 253.068 20.688C253.068 20.128 252.996 19.6 252.852 19.104C252.724 18.608 252.516 18.184 252.228 17.832C251.94 17.464 251.572 17.176 251.124 16.968C250.676 16.744 250.132 16.624 249.492 16.608ZM264.469 14.136C265.477 14.136 266.365 14.296 267.133 14.616C267.901 14.936 268.549 15.384 269.077 15.96C269.621 16.52 270.029 17.2 270.301 18C270.573 18.8 270.709 19.688 270.709 20.664C270.709 21.656 270.573 22.552 270.301 23.352C270.045 24.136 269.653 24.816 269.125 25.392C268.597 25.968 267.941 26.408 267.157 26.712C266.389 27.016 265.493 27.168 264.469 27.168C263.461 27.168 262.573 27.016 261.805 26.712C261.037 26.392 260.389 25.952 259.861 25.392C259.349 24.816 258.957 24.128 258.685 23.328C258.429 22.528 258.301 21.64 258.301 20.664C258.301 19.688 258.429 18.8 258.685 18C258.957 17.2 259.357 16.52 259.885 15.96C260.413 15.384 261.061 14.936 261.829 14.616C262.597 14.296 263.477 14.136 264.469 14.136ZM264.469 24.792C265.093 24.792 265.621 24.688 266.053 24.48C266.501 24.256 266.861 23.96 267.133 23.592C267.421 23.224 267.629 22.792 267.757 22.296C267.901 21.8 267.973 21.264 267.973 20.688C267.973 20.112 267.901 19.576 267.757 19.08C267.629 18.568 267.421 18.128 267.133 17.76C266.861 17.392 266.501 17.104 266.053 16.896C265.621 16.688 265.093 16.584 264.469 16.584C263.861 16.584 263.341 16.688 262.909 16.896C262.477 17.104 262.117 17.392 261.829 17.76C261.541 18.128 261.325 18.568 261.181 19.08C261.053 19.576 260.989 20.112 260.989 20.688C260.989 21.264 261.053 21.8 261.181 22.296C261.325 22.792 261.533 23.224 261.805 23.592C262.093 23.96 262.453 24.256 262.885 24.48C263.333 24.688 263.861 24.792 264.469 24.792ZM278.763 27.168C277.739 27.168 276.851 27.016 276.099 26.712C275.347 26.392 274.715 25.952 274.203 25.392C273.707 24.816 273.331 24.136 273.075 23.352C272.835 22.552 272.715 21.672 272.715 20.712C272.715 19.752 272.843 18.872 273.099 18.072C273.371 17.272 273.771 16.584 274.299 16.008C274.827 15.432 275.467 14.976 276.219 14.64C276.971 14.304 277.843 14.136 278.835 14.136C280.291 14.136 281.499 14.472 282.459 15.144C283.419 15.8 284.027 16.848 284.283 18.288H281.475C281.331 17.728 281.019 17.304 280.539 17.016C280.059 16.728 279.475 16.584 278.787 16.584C278.179 16.584 277.659 16.696 277.227 16.92C276.795 17.144 276.443 17.448 276.171 17.832C275.899 18.216 275.699 18.664 275.571 19.176C275.459 19.672 275.403 20.192 275.403 20.736C275.403 21.296 275.467 21.824 275.595 22.32C275.723 22.816 275.923 23.248 276.195 23.616C276.467 23.968 276.819 24.256 277.251 24.48C277.683 24.688 278.203 24.792 278.811 24.792C279.531 24.792 280.123 24.632 280.587 24.312C281.067 23.992 281.371 23.568 281.499 23.04H284.331C284.203 23.76 283.963 24.384 283.611 24.912C283.275 25.44 282.859 25.872 282.363 26.208C281.867 26.544 281.315 26.792 280.707 26.952C280.099 27.096 279.451 27.168 278.763 27.168ZM291.303 16.416C291.063 16.416 290.807 16.432 290.535 16.464C290.279 16.496 290.031 16.568 289.791 16.68C289.567 16.776 289.375 16.92 289.215 17.112C289.071 17.304 288.999 17.552 288.999 17.856C288.999 18.192 289.111 18.456 289.335 18.648C289.575 18.84 289.855 19 290.175 19.128C290.495 19.24 290.831 19.336 291.183 19.416C291.551 19.48 291.863 19.536 292.119 19.584C292.807 19.728 293.423 19.88 293.967 20.04C294.527 20.2 294.999 20.416 295.383 20.688C295.767 20.944 296.063 21.28 296.271 21.696C296.495 22.112 296.607 22.656 296.607 23.328C296.607 24.048 296.455 24.656 296.151 25.152C295.863 25.648 295.479 26.048 294.999 26.352C294.535 26.64 293.999 26.848 293.391 26.976C292.799 27.104 292.183 27.168 291.543 27.168C290.903 27.168 290.271 27.104 289.647 26.976C289.023 26.848 288.447 26.632 287.919 26.328C287.407 26.024 286.975 25.624 286.623 25.128C286.287 24.616 286.079 24 285.999 23.28H288.759C288.823 23.6 288.959 23.864 289.167 24.072C289.375 24.28 289.615 24.448 289.887 24.576C290.175 24.704 290.471 24.792 290.775 24.84C291.079 24.888 291.359 24.912 291.615 24.912C291.807 24.912 292.039 24.896 292.311 24.864C292.599 24.832 292.863 24.76 293.103 24.648C293.343 24.536 293.543 24.392 293.703 24.216C293.879 24.024 293.967 23.784 293.967 23.496C293.967 23.224 293.903 23 293.775 22.824C293.647 22.632 293.471 22.472 293.247 22.344C293.039 22.216 292.783 22.12 292.479 22.056C292.175 21.976 291.855 21.896 291.519 21.816C290.991 21.72 290.423 21.6 289.815 21.456C289.223 21.312 288.663 21.128 288.135 20.904C287.623 20.664 287.199 20.312 286.863 19.848C286.527 19.384 286.359 18.792 286.359 18.072C286.359 17.304 286.511 16.672 286.815 16.176C287.119 15.68 287.511 15.28 287.991 14.976C288.471 14.656 289.007 14.44 289.599 14.328C290.191 14.2 290.775 14.136 291.351 14.136C292.743 14.136 293.879 14.456 294.759 15.096C295.655 15.736 296.143 16.664 296.223 17.88H293.655C293.575 17.368 293.311 17.008 292.863 16.8C292.431 16.576 291.911 16.448 291.303 16.416Z" fill="white"/>
<defs>
<linearGradient id="paint0_linear_201_30" x1="317.392" y1="-1.88772e-05" x2="219.812" y2="-13.956" gradientUnits="userSpaceOnUse">
<stop stop-color="#E81899"/>
<stop offset="0.382163" stop-color="#F99DC9"/>
<stop offset="0.590208" stop-color="#FD4474"/>
<stop offset="0.88401" stop-color="#FF715B"/>
</linearGradient>
</defs>
</svg>
