<svg xmlns="http://www.w3.org/2000/svg" viewBox="0 0 32 32">
  <g fill="none" fill-rule="evenodd">
    <circle cx="16" cy="16" r="16" fill="#2775CA"/>
    <path fill="#FFF" d="M21.5 18.5c0-2.38-1.458-3.194-4.375-3.531-2.083-.281-2.5-.844-2.5-1.828 0-.984.73-1.61 2.083-1.61 1.25 0 1.927.469 2.24 1.266.052.13.156.219.313.219h.729c.208 0 .364-.182.364-.365v-.052c-.26-1.172-1.198-2.057-2.552-2.266v-1.38c0-.209-.156-.365-.417-.417h-.677c-.208 0-.365.156-.417.365v1.328c-1.77.26-2.917 1.432-2.917 2.917 0 2.292 1.406 3.099 4.323 3.437 1.98.312 2.552.781 2.552 1.88 0 1.1-.99 1.85-2.344 1.85-1.823 0-2.448-.781-2.656-1.823-.052-.156-.157-.26-.313-.26h-.78c-.21 0-.365.156-.365.365v.052c.312 1.484 1.25 2.552 3.125 2.864v1.38c0 .207.156.364.417.416h.677c.208 0 .365-.156.417-.365v-1.38c1.77-.312 2.969-1.536 2.969-3.124z"/>
    <path fill="#FFF" d="M12.854 24.74c-4.375-1.563-6.667-6.406-5.052-10.73 1.042-2.76 3.333-4.636 6.146-5.208.208-.052.313-.208.313-.417v-.677c0-.208-.105-.365-.313-.417-.052 0-.156 0-.208.052-5.104 1.354-8.177 6.615-6.823 11.719.833 3.125 3.177 5.469 6.302 6.302.208.052.416-.052.468-.26.053-.052.053-.104.053-.156v-.677c0-.157-.157-.365-.365-.417zm6.51-20.52c-.208-.053-.417.052-.469.26 0 .052 0 .104.053.156v.677c0 .208.156.365.312.417 4.375 1.563 6.667 6.406 5.052 10.73-1.042 2.76-3.333 4.636-6.146 5.208-.208.052-.313.208-.313.417v.677c0 .208.105.365.313.417.052 0 .156 0 .208-.052 5.104-1.354 8.177-6.615 6.823-11.719-.885-3.125-3.229-5.469-6.354-6.302z"/>
  </g>
</svg>
